#N canvas 481 105 621 567 10;
#N canvas 371 25 894 600 current_loop_interface 0;
#X obj 153 74 nbx 3 14 0 512 0 0 empty SLselected_loop_num selected_loop
33 7 0 8 -262144 -1 -1 0 256;
#N canvas 31 40 1108 473 register_auto_update_current 0;
#X obj 8 69 inlet;
#X obj 8 228 outlet;
#X msg 273 48 4 /sl/-3/register_auto_update next_state 100 /updates/next_state
;
#X msg 263 81 4 /sl/-3/register_auto_update loop_pos 100 /updates/loop_pos
;
#X msg 244 122 4 /sl/-3/register_auto_update cycle_len 100 /updates/cycle_len
;
#X msg 234 155 4 /sl/-3/register_auto_update free_time 100 /updates/free_time
;
#X msg 214 221 4 /sl/-3/register_auto_update waiting 100 /updates/waiting
;
#X msg 204 241 4 /sl/-3/register_auto_update rate_output 100 /updates/rate_output
;
#X msg 194 275 4 /sl/-3/register_auto_update in_peak_meter 100 /updates/in_peak_meter
;
#X msg 184 308 4 /sl/-3/register_auto_update out_peak_meter 100 /updates/out_peak_meter
;
#X msg 164 374 4 /sl/-3/register_auto_update stretch_ratio 100 /updates/stretch_ratio
;
#X msg 154 407 4 /sl/-3/register_auto_update pitch_shift 100 /updates/pitch_shift
;
#X msg 174 341 4 /sl/-3/register_auto_update is_soloed 100 /updates/is_soloed
;
#X msg 224 188 4 /sl/-3/register_auto_update total_time 100 /updates/total_time
;
#X msg 254 102 4 /sl/-3/register_auto_update loop_len 100 /updates/loop_len
;
#X msg 283 28 4 /sl/-3/register_auto_update state 100 /updates/state
;
#X msg 813 158 3 /sl/-3/get state /updates/state;
#X msg 803 178 3 /sl/-3/get next_state /updates/next_state;
#X msg 793 197 3 /sl/-3/get loop_pos /updates/loop_pos;
#X msg 784 218 3 /sl/-3/get loop_len /updates/loop_len;
#X msg 774 238 3 /sl/-3/get cycle_len /updates/cycle_len;
#X msg 764 257 3 /sl/-3/get free_time /updates/free_time;
#X msg 754 276 3 /sl/-3/get total_time /updates/total_time;
#X msg 744 295 3 /sl/-3/get waiting /updates/waiting;
#X msg 734 315 3 /sl/-3/get rate_output /updates/rate_output;
#X msg 724 335 3 /sl/-3/get in_peak_meter /updates/in_peak_meter;
#X msg 714 355 3 /sl/-3/get out_peak_meter /updates/out_peak_meter
;
#X msg 704 375 3 /sl/-3/get is_soloed /updates/is_soloed;
#X msg 694 395 3 /sl/-3/get stretch_ratio /updates/stretch_ratio;
#X msg 684 415 3 /sl/-3/get pitch_shift /updates/pitch_shift;
#X connect 0 0 15 0;
#X connect 0 0 2 0;
#X connect 0 0 3 0;
#X connect 0 0 14 0;
#X connect 0 0 4 0;
#X connect 0 0 5 0;
#X connect 0 0 13 0;
#X connect 0 0 6 0;
#X connect 0 0 7 0;
#X connect 0 0 8 0;
#X connect 0 0 9 0;
#X connect 0 0 12 0;
#X connect 0 0 10 0;
#X connect 0 0 11 0;
#X connect 0 0 16 0;
#X connect 0 0 17 0;
#X connect 0 0 18 0;
#X connect 0 0 19 0;
#X connect 0 0 20 0;
#X connect 0 0 21 0;
#X connect 0 0 22 0;
#X connect 0 0 23 0;
#X connect 0 0 24 0;
#X connect 0 0 25 0;
#X connect 0 0 26 0;
#X connect 0 0 27 0;
#X connect 0 0 28 0;
#X connect 0 0 29 0;
#X connect 2 0 1 0;
#X connect 3 0 1 0;
#X connect 4 0 1 0;
#X connect 5 0 1 0;
#X connect 6 0 1 0;
#X connect 7 0 1 0;
#X connect 8 0 1 0;
#X connect 9 0 1 0;
#X connect 10 0 1 0;
#X connect 11 0 1 0;
#X connect 12 0 1 0;
#X connect 13 0 1 0;
#X connect 14 0 1 0;
#X connect 15 0 1 0;
#X connect 16 0 1 0;
#X connect 17 0 1 0;
#X connect 18 0 1 0;
#X connect 19 0 1 0;
#X connect 20 0 1 0;
#X connect 21 0 1 0;
#X connect 22 0 1 0;
#X connect 23 0 1 0;
#X connect 24 0 1 0;
#X connect 25 0 1 0;
#X connect 26 0 1 0;
#X connect 27 0 1 0;
#X connect 28 0 1 0;
#X connect 29 0 1 0;
#X restore 630 493 pd register_auto_update_current;
#X obj 24 73 tgl 15 0 empty empty enable_monitors 17 7 0 8 -258113
-1 -1 0 1;
#X obj 630 335 select 1;
#N canvas 533 40 685 503 unregister_auto_update_current 0;
#X obj 8 69 inlet;
#X obj 8 228 outlet;
#X msg 273 108 3 /sl/-3/unregister_auto_update next_state /updates/next_state
;
#X msg 263 141 3 /sl/-3/unregister_auto_update loop_pos /updates/loop_pos
;
#X msg 244 182 3 /sl/-3/unregister_auto_update cycle_len /updates/cycle_len
;
#X msg 234 202 3 /sl/-3/unregister_auto_update free_time /updates/free_time
;
#X msg 214 255 3 /sl/-3/unregister_auto_update waiting /updates/waiting
;
#X msg 204 275 3 /sl/-3/unregister_auto_update rate_output /updates/rate_output
;
#X msg 194 309 3 /sl/-3/unregister_auto_update in_peak_meter /updates/in_peak_meter
;
#X msg 184 342 3 /sl/-3/unregister_auto_update out_peak_meter /updates/out_peak_meter
;
#X msg 164 395 3 /sl/-3/unregister_auto_update stretch_ratio /updates/stretch_ratio
;
#X msg 154 428 3 /sl/-3/unregister_auto_update pitch_shift /updates/pitch_shift
;
#X msg 283 88 3 /sl/-3/unregister_auto_update state /updates/state
;
#X msg 254 162 3 /sl/-3/unregister_auto_update loop_len /updates/loop_len
;
#X msg 224 222 3 /sl/-3/unregister_auto_update total_time /updates/total_time
;
#X msg 174 375 3 /sl/-3/unregister_auto_update is_soloed /updates/is_soloed
;
#X connect 0 0 12 0;
#X connect 0 0 2 0;
#X connect 0 0 3 0;
#X connect 0 0 13 0;
#X connect 0 0 4 0;
#X connect 0 0 5 0;
#X connect 0 0 14 0;
#X connect 0 0 6 0;
#X connect 0 0 7 0;
#X connect 0 0 8 0;
#X connect 0 0 9 0;
#X connect 0 0 15 0;
#X connect 0 0 10 0;
#X connect 0 0 11 0;
#X connect 2 0 1 0;
#X connect 3 0 1 0;
#X connect 4 0 1 0;
#X connect 5 0 1 0;
#X connect 6 0 1 0;
#X connect 7 0 1 0;
#X connect 8 0 1 0;
#X connect 9 0 1 0;
#X connect 10 0 1 0;
#X connect 11 0 1 0;
#X connect 12 0 1 0;
#X connect 13 0 1 0;
#X connect 14 0 1 0;
#X connect 15 0 1 0;
#X restore 630 416 pd unregister_auto_update_current;
#X obj 10 16 r disable_monitors_current;
#X msg 10 36 set 0;
#X obj 630 566 s slOSCout;
#X obj 24 112 nbx 5 14 0 1e+37 0 0 empty CCIcycle_len cycle_len 0 -8
0 8 -262144 -1 -1 0 256;
#X obj 24 142 nbx 5 14 0 1e+37 0 0 empty CCIfree_time free_time 0 -8
0 8 -262144 -1 -1 0 256;
#X obj 274 172 nbx 5 14 0 1e+37 0 0 empty CCIis_soloed is_soloed 0
-8 0 8 -262144 -1 -1 0 256;
#X obj 274 112 nbx 5 14 0 1e+37 0 0 empty CCIloop_len loop_len 0 -8
0 8 -262144 -1 -1 0 256;
#X obj 274 142 nbx 5 14 0 1e+37 0 0 empty CCIloop_pos loop_pos 0 -8
0 8 -262144 -1 -1 0 256;
#X obj 620 154 nbx 5 14 0 1e+37 0 0 empty CCInext_state next_state
0 -8 0 8 -262144 -1 -1 0 256;
#X obj 104 142 nbx 5 14 0 1e+37 0 0 empty CCIpitch_shift pitch_shift
0 -8 0 8 -262144 -1 -1 0 256;
#X obj 620 102 nbx 5 14 0 1e+37 0 0 empty CCIstate state 0 -8 0 8 -262144
-1 -1 0 256;
#X obj 194 112 nbx 5 14 0 1e+37 0 0 empty CCIrate_output rate_output
0 -8 0 8 -262144 -1 -1 0 256;
#X obj 104 112 nbx 5 14 0 1e+37 0 0 empty CCIstretch_ratio stretch_ratio
0 -8 0 8 -262144 -1 -1 0 256;
#X obj 194 142 nbx 5 14 0 1e+37 0 0 empty CCItotal_time total_time
0 -8 0 8 -262144 -1 -1 0 256;
#X obj 494 92 nbx 5 14 0 1e+37 0 0 empty CCIwaiting waiting 0 -8 0
8 -262144 -1 -1 0 256;
#X symbolatom 494 152 12 0 0 2 next_state - -;
#N canvas 0 0 488 522 parse_state 0;
#X obj 72 26 inlet;
#X obj 72 56 select -1 0 1 2 3 4 5 6 7 8 9 10 11 12 13 14;
#X msg 72 420 set Unknown;
#X msg 88 400 set Off;
#X msg 104 380 set WaitStart;
#X msg 120 360 set Recording;
#X msg 137 340 set WaitStop;
#X msg 153 320 set Playing;
#X msg 169 300 set Overdubbing;
#X msg 186 280 set Multiplying;
#X msg 202 260 set Inserting;
#X msg 218 240 set Replacing;
#X msg 235 220 set Delay;
#X msg 251 200 set Muted;
#X msg 267 180 set Scratching;
#X msg 284 160 set OneShot;
#X msg 300 140 set Substitute;
#X msg 316 120 set Paused;
#X msg 333 100 set Unknown2;
#X obj 384 464 outlet;
#X connect 0 0 1 0;
#X connect 1 0 2 0;
#X connect 1 1 3 0;
#X connect 1 2 4 0;
#X connect 1 3 5 0;
#X connect 1 4 6 0;
#X connect 1 5 7 0;
#X connect 1 6 8 0;
#X connect 1 7 9 0;
#X connect 1 8 10 0;
#X connect 1 9 11 0;
#X connect 1 10 12 0;
#X connect 1 11 13 0;
#X connect 1 12 14 0;
#X connect 1 13 15 0;
#X connect 1 14 16 0;
#X connect 1 15 17 0;
#X connect 1 16 18 0;
#X connect 2 0 19 0;
#X connect 3 0 19 0;
#X connect 4 0 19 0;
#X connect 5 0 19 0;
#X connect 6 0 19 0;
#X connect 7 0 19 0;
#X connect 8 0 19 0;
#X connect 9 0 19 0;
#X connect 10 0 19 0;
#X connect 11 0 19 0;
#X connect 12 0 19 0;
#X connect 13 0 19 0;
#X connect 14 0 19 0;
#X connect 15 0 19 0;
#X connect 16 0 19 0;
#X connect 17 0 19 0;
#X connect 18 0 19 0;
#X restore 620 121 pd parse_state;
#N canvas 0 0 488 522 parse_next_state 0;
#X obj 72 36 inlet;
#X obj 72 66 select -1 0 1 2 3 4 5 6 7 8 9 10 11 12 13 14;
#X msg 72 430 set Unknown;
#X msg 88 410 set Off;
#X msg 104 390 set WaitStart;
#X msg 120 370 set Recording;
#X msg 137 350 set WaitStop;
#X msg 153 330 set Playing;
#X msg 169 310 set Overdubbing;
#X msg 186 290 set Multiplying;
#X msg 202 270 set Inserting;
#X msg 218 250 set Replacing;
#X msg 235 230 set Delay;
#X msg 251 210 set Muted;
#X msg 267 190 set Scratching;
#X msg 284 170 set OneShot;
#X msg 300 150 set Substitute;
#X msg 316 130 set Paused;
#X msg 333 110 set Unknown2;
#X obj 384 474 outlet;
#X connect 0 0 1 0;
#X connect 1 0 2 0;
#X connect 1 1 3 0;
#X connect 1 2 4 0;
#X connect 1 3 5 0;
#X connect 1 4 6 0;
#X connect 1 5 7 0;
#X connect 1 6 8 0;
#X connect 1 7 9 0;
#X connect 1 8 10 0;
#X connect 1 9 11 0;
#X connect 1 10 12 0;
#X connect 1 11 13 0;
#X connect 1 12 14 0;
#X connect 1 13 15 0;
#X connect 1 14 16 0;
#X connect 1 15 17 0;
#X connect 1 16 18 0;
#X connect 2 0 19 0;
#X connect 3 0 19 0;
#X connect 4 0 19 0;
#X connect 5 0 19 0;
#X connect 6 0 19 0;
#X connect 7 0 19 0;
#X connect 8 0 19 0;
#X connect 9 0 19 0;
#X connect 10 0 19 0;
#X connect 11 0 19 0;
#X connect 12 0 19 0;
#X connect 13 0 19 0;
#X connect 14 0 19 0;
#X connect 15 0 19 0;
#X connect 16 0 19 0;
#X connect 17 0 19 0;
#X connect 18 0 19 0;
#X restore 620 173 pd parse_next_state;
#X symbolatom 494 122 12 0 0 2 state - -;
#N canvas 30 25 634 700 SLcommand_buttons 0;
#X obj 22 20 bng 20 250 50 0 empty empty RECORD 22 10 0 10 -258113
-1 -1;
#X obj 22 50 bng 20 250 50 0 empty empty OVERDUB 22 10 0 10 -258113
-1 -1;
#X obj 22 115 bng 20 250 50 0 empty empty MULTIPLY 22 10 0 10 -258113
-1 -1;
#X obj 22 80 bng 20 250 50 0 empty empty INSERT 22 10 0 10 -258113
-1 -1;
#X obj 102 20 bng 20 250 50 0 empty empty REPLACE 22 10 0 10 -258113
-1 -1;
#X obj 102 50 bng 20 250 50 0 empty empty REVERSE 22 10 0 10 -258113
-1 -1;
#X obj 122 115 bng 20 250 50 0 empty empty MUTE 22 10 0 10 -258113
-1 -1;
#X obj 302 20 bng 20 250 50 0 empty empty UNDO 22 10 0 10 -258113 -1
-1;
#X obj 302 50 bng 20 250 50 0 empty empty REDO 22 10 0 10 -258113 -1
-1;
#X obj 212 20 bng 20 250 50 0 empty empty ONESHOT 22 10 0 10 -258113
-1 -1;
#X obj 212 50 bng 20 250 50 0 empty empty TRIGGER 22 10 0 10 -258113
-1 -1;
#X obj 102 80 bng 20 250 50 0 empty empty SUBSTITUTE 22 10 0 10 -258113
-1 -1;
#X obj 362 20 bng 20 250 50 0 empty empty UNDO_ALL 22 10 0 10 -258113
-1 -1;
#X obj 362 50 bng 20 250 50 0 empty empty REDO_ALL 22 10 0 10 -258113
-1 -1;
#X obj 322 250 bng 20 250 50 0 empty empty MUTE_ON 22 10 0 10 -258113
-1 -1;
#X obj 322 280 bng 20 250 50 0 empty empty MUTE_OFF 22 10 0 10 -258113
-1 -1;
#X obj 272 115 bng 20 250 50 0 empty empty SOLO 22 10 0 10 -258113
-1 -1;
#X obj 192 115 bng 20 250 50 0 empty empty PAUSE 22 10 0 10 -258113
-1 -1;
#X obj 32 250 bng 20 250 50 0 empty empty SOLO_NEXT 22 10 0 10 -258113
-1 -1;
#X obj 142 280 bng 20 250 50 0 empty empty RECORD_SOLO_PREV 22 10 0
10 -258113 -1 -1;
#X obj 32 280 bng 20 250 50 0 empty empty SOLO_PREV 22 10 0 10 -258113
-1 -1;
#X obj 142 220 bng 20 250 50 0 empty empty RECORD_SOLO 22 10 0 10 -258113
-1 -1;
#X obj 142 250 bng 20 250 50 0 empty empty RECORD_SOLO_NEXT 22 10 0
10 -258113 -1 -1;
#X obj 22 145 bng 20 250 50 0 empty empty SET_SYNC_POS 22 10 0 10 -258113
-1 -1;
#X obj 192 145 bng 20 250 50 0 empty empty RESET_SYNC_POS 22 10 0 10
-258113 -1 -1;
#X msg 62 330 send /sl/-3/hit record;
#X msg 62 350 send /sl/-3/hit overdub;
#X msg 62 370 send /sl/-3/hit multiply;
#X msg 62 390 send /sl/-3/hit insert;
#X msg 62 410 send /sl/-3/hit solo;
#X msg 62 430 send /sl/-3/hit solo_next;
#X msg 62 450 send /sl/-3/hit solo_prev;
#X msg 262 330 send /sl/-3/hit replace;
#X msg 262 350 send /sl/-3/hit reverse;
#X msg 262 370 send /sl/-3/hit mute;
#X msg 262 390 send /sl/-3/hit undo;
#X msg 262 410 send /sl/-3/hit record_solo;
#X msg 262 430 send /sl/-3/hit record_solo_next;
#X msg 262 450 send /sl/-3/hit record_solo_prev;
#X msg 62 470 send /sl/-3/hit undo_all;
#X msg 62 490 send /sl/-3/hit redo_all;
#X msg 62 510 send /sl/-3/hit mute_on;
#X msg 62 530 send /sl/-3/hit mute_off;
#X msg 262 470 send /sl/-3/hit redo;
#X msg 262 490 send /sl/-3/hit oneshot;
#X msg 262 510 send /sl/-3/hit trigger;
#X msg 262 530 send /sl/-3/hit substitute;
#X msg 262 550 send /sl/-3/hit pause;
#X msg 262 570 send /sl/-3/hit set_sync_pos;
#X msg 262 590 send /sl/-3/hit reset_sync_pos;
#X obj 163 663 s slOSCout;
#X obj 350 114 bng 20 250 50 0 empty empty NEXT_LOOP 22 10 0 10 -258113
-1 -1;
#X obj 350 144 bng 20 250 50 0 empty empty PREV_LOOP 22 10 0 10 -258113
-1 -1;
#X obj 445 243 nbx 3 14 0 512 0 0 empty SLselected_loop_num selected_loop
0 -8 0 8 -262144 -1 -1 0 256;
#X obj 508 288 nbx 3 14 0 512 0 0 empty SLloops loops 0 -8 0 8 -262144
-1 -1 0 256;
#X msg 430 205 -1;
#X msg 535 205 1;
#X obj 430 263 +;
#X obj 430 286 select -1;
#X obj 481 309 moses;
#X msg 430 335 send /set selected_loop_num \$1;
#X connect 0 0 25 0;
#X connect 1 0 26 0;
#X connect 2 0 27 0;
#X connect 3 0 28 0;
#X connect 4 0 32 0;
#X connect 5 0 33 0;
#X connect 6 0 34 0;
#X connect 7 0 35 0;
#X connect 8 0 43 0;
#X connect 9 0 44 0;
#X connect 10 0 45 0;
#X connect 11 0 46 0;
#X connect 12 0 39 0;
#X connect 13 0 40 0;
#X connect 14 0 41 0;
#X connect 15 0 42 0;
#X connect 16 0 29 0;
#X connect 17 0 47 0;
#X connect 18 0 30 0;
#X connect 19 0 38 0;
#X connect 20 0 31 0;
#X connect 21 0 36 0;
#X connect 22 0 37 0;
#X connect 23 0 48 0;
#X connect 24 0 49 0;
#X connect 25 0 50 0;
#X connect 26 0 50 0;
#X connect 27 0 50 0;
#X connect 28 0 50 0;
#X connect 29 0 50 0;
#X connect 30 0 50 0;
#X connect 31 0 50 0;
#X connect 32 0 50 0;
#X connect 33 0 50 0;
#X connect 34 0 50 0;
#X connect 35 0 50 0;
#X connect 36 0 50 0;
#X connect 37 0 50 0;
#X connect 38 0 50 0;
#X connect 39 0 50 0;
#X connect 40 0 50 0;
#X connect 41 0 50 0;
#X connect 42 0 50 0;
#X connect 43 0 50 0;
#X connect 44 0 50 0;
#X connect 45 0 50 0;
#X connect 46 0 50 0;
#X connect 47 0 50 0;
#X connect 48 0 50 0;
#X connect 49 0 50 0;
#X connect 51 0 56 0;
#X connect 52 0 55 0;
#X connect 53 0 57 1;
#X connect 54 0 59 1;
#X connect 55 0 57 0;
#X connect 56 0 57 0;
#X connect 57 0 58 0;
#X connect 58 1 59 0;
#X connect 59 0 60 0;
#X connect 60 0 50 0;
#X coords 0 -1 1 1 450 170 2 10 10;
#X restore 24 420 pd SLcommand_buttons;
#N canvas 91 25 774 700 register_update_current 0;
#X obj 8 69 inlet;
#X obj 8 228 outlet;
#X msg 124 367 4 /sl/-3/register_auto_update use_common_ins 100 /updates/use_common_ins
;
#X msg 283 8 4 /sl/-3/register_auto_update rec_thresh 100 /updates/rec_thresh
;
#X msg 273 28 4 /sl/-3/register_auto_update feedback 100 /updates/feedback
;
#X msg 263 48 4 /sl/-3/register_auto_update use_feedback_play 100 /updates/use_feedback_play
;
#X msg 254 81 4 /sl/-3/register_auto_update dry 100 /updates/dry-3
;
#X msg 244 101 4 /sl/-3/register_auto_update wet 100 /updates/wet-3
;
#X msg 234 121 4 /sl/-3/register_auto_update input_gain 100 /updates/input_gain
;
#X msg 224 141 4 /sl/-3/register_auto_update rate 100 /updates/rate
;
#X msg 214 161 4 /sl/-3/register_auto_update scratch_pos 100 /updates/scratch_pos
;
#X msg 204 181 4 /sl/-3/register_auto_update delay_trigger 100 /updates/delay_trigger
;
#X msg 194 214 4 /sl/-3/register_auto_update quantize 100 /updates/quantize
;
#X msg 184 234 4 /sl/-3/register_auto_update fade_samples 100 /updates/fade_samples
;
#X msg 174 254 4 /sl/-3/register_auto_update round 100 /updates/round
;
#X msg 164 274 4 /sl/-3/register_auto_update sync 100 /updates/sync
;
#X msg 154 294 4 /sl/-3/register_auto_update playback_sync 100 /updates/playback_sync
;
#X msg 144 327 4 /sl/-3/register_auto_update redo_is_tap 100 /updates/redo_is_tap
;
#X msg 134 347 4 /sl/-3/register_auto_update use_rate 100 /updates/use_rate
;
#X msg 114 400 4 /sl/-3/register_auto_update use_common_outs 100 /updates/use_common_outs
;
#X msg 104 433 4 /sl/-3/register_auto_update relative_sync 100 /updates/relative_sync
;
#X msg 94 466 4 /sl/-3/register_auto_update input_latency 100 /updates/input_latency
;
#X msg 84 499 4 /sl/-3/register_auto_update output_latency 100 /updates/output_latency
;
#X msg 74 532 4 /sl/-3/register_auto_update trigger_latency 100 /updates/trigger_latency
;
#X msg 64 565 4 /sl/-3/register_auto_update autoset_latency 100 /updates/autoset_latency
;
#X msg 54 598 4 /sl/-3/register_auto_update mute_quantized 100 /updates/mute_quantized
;
#X msg 434 458 4 /sl/-3/register_auto_update pan_1 100 /updates/pan_1
;
#X msg 424 478 4 /sl/-3/register_auto_update pan_2 100 /updates/pan_2
;
#X msg 414 498 4 /sl/-3/register_auto_update pan_3 100 /updates/pan_3
;
#X msg 404 518 4 /sl/-3/register_auto_update pan_4 100 /updates/pan_4
;
#X msg 394 538 4 /sl/-3/register_auto_update tempo_stretch 100 /updates/tempo_stretch
;
#X msg 384 571 4 /sl/-3/register_auto_update round_integer_tempo 100
/updates/round_integer_tempo;
#X msg 374 604 4 /sl/-3/register_auto_update replace_quantized 100
/updates/replace_quantized;
#X msg 364 637 4 /sl/-3/register_auto_update overdub_quantized 100
/updates/overdub_quantized;
#X connect 0 0 3 0;
#X connect 0 0 4 0;
#X connect 0 0 5 0;
#X connect 0 0 6 0;
#X connect 0 0 7 0;
#X connect 0 0 8 0;
#X connect 0 0 9 0;
#X connect 0 0 10 0;
#X connect 0 0 11 0;
#X connect 0 0 12 0;
#X connect 0 0 13 0;
#X connect 0 0 14 0;
#X connect 0 0 15 0;
#X connect 0 0 16 0;
#X connect 0 0 17 0;
#X connect 0 0 18 0;
#X connect 0 0 2 0;
#X connect 0 0 19 0;
#X connect 0 0 20 0;
#X connect 0 0 21 0;
#X connect 0 0 22 0;
#X connect 0 0 23 0;
#X connect 0 0 24 0;
#X connect 0 0 25 0;
#X connect 0 0 32 0;
#X connect 0 0 33 0;
#X connect 0 0 30 0;
#X connect 0 0 31 0;
#X connect 0 0 26 0;
#X connect 0 0 27 0;
#X connect 0 0 28 0;
#X connect 0 0 29 0;
#X connect 2 0 1 0;
#X connect 3 0 1 0;
#X connect 4 0 1 0;
#X connect 5 0 1 0;
#X connect 6 0 1 0;
#X connect 7 0 1 0;
#X connect 8 0 1 0;
#X connect 9 0 1 0;
#X connect 10 0 1 0;
#X connect 11 0 1 0;
#X connect 12 0 1 0;
#X connect 13 0 1 0;
#X connect 14 0 1 0;
#X connect 15 0 1 0;
#X connect 16 0 1 0;
#X connect 17 0 1 0;
#X connect 18 0 1 0;
#X connect 19 0 1 0;
#X connect 20 0 1 0;
#X connect 21 0 1 0;
#X connect 22 0 1 0;
#X connect 23 0 1 0;
#X connect 24 0 1 0;
#X connect 25 0 1 0;
#X connect 26 0 1 0;
#X connect 27 0 1 0;
#X connect 28 0 1 0;
#X connect 29 0 1 0;
#X connect 30 0 1 0;
#X connect 31 0 1 0;
#X connect 32 0 1 0;
#X connect 33 0 1 0;
#X restore 640 473 pd register_update_current;
#N canvas 594 25 684 678 get_update_current 0;
#X obj 5 69 inlet;
#X obj -55 288 outlet;
#X msg 280 8 3 /sl/-3/get rec_thresh /updates/rec_thresh;
#X msg 270 28 3 /sl/-3/get feedback /updates/feedback;
#X msg 260 48 3 /sl/-3/get use_feedback_play /updates/use_feedback_play
;
#X msg 251 68 3 /sl/-3/get dry /updates/dry-3;
#X msg 241 88 3 /sl/-3/get wet /updates/wet-3;
#X msg 231 108 3 /sl/-3/get input_gain /updates/input_gain;
#X msg 221 128 3 /sl/-3/get rate /updates/rate;
#X msg 211 148 3 /sl/-3/get scratch_pos /updates/scratch_pos;
#X msg 201 168 3 /sl/-3/get delay_trigger /updates/delay_trigger;
#X msg 191 188 3 /sl/-3/get quantize /updates/quantize;
#X msg 181 208 3 /sl/-3/get fade_samples /updates/fade_samples;
#X msg 171 228 3 /sl/-3/get round /updates/round;
#X msg 161 248 3 /sl/-3/get sync /updates/sync;
#X msg 151 268 3 /sl/-3/get playback_sync /updates/playback_sync;
#X msg 141 288 3 /sl/-3/get redo_is_tap /updates/redo_is_tap;
#X msg 131 309 3 /sl/-3/get use_rate /updates/use_rate;
#X msg 121 329 3 /sl/-3/get use_common_ins /updates/use_common_ins
;
#X msg 111 349 3 /sl/-3/get use_common_outs /updates/use_common_outs
;
#X msg 101 369 3 /sl/-3/get relative_sync /updates/relative_sync;
#X msg 91 389 3 /sl/-3/get input_latency /updates/input_latency;
#X msg 81 409 3 /sl/-3/get output_latency /updates/output_latency;
#X msg 71 429 3 /sl/-3/get trigger_latency /updates/trigger_latency
;
#X msg 61 449 3 /sl/-3/get autoset_latency /updates/autoset_latency
;
#X msg 51 469 3 /sl/-3/get mute_quantized /updates/mute_quantized;
#X msg 41 488 3 /sl/-3/get pan_1 /updates/pan_1;
#X msg 31 508 3 /sl/-3/get pan_2 /updates/pan_2;
#X msg 21 528 3 /sl/-3/get pan_3 /updates/pan_3;
#X msg 11 548 3 /sl/-3/get pan_4 /updates/pan_4;
#X msg 1 568 3 /sl/-3/get tempo_stretch /updates/tempo_stretch;
#X msg -9 588 3 /sl/-3/get round_integer_tempo /updates/round_integer_tempo
;
#X msg -19 621 3 /sl/-3/get replace_quantized /updates/replace_quantized
;
#X msg -29 641 3 /sl/-3/get overdub_quantized /updates/overdub_quantized
;
#X connect 0 0 2 0;
#X connect 0 0 3 0;
#X connect 0 0 4 0;
#X connect 0 0 5 0;
#X connect 0 0 6 0;
#X connect 0 0 7 0;
#X connect 0 0 8 0;
#X connect 0 0 9 0;
#X connect 0 0 10 0;
#X connect 0 0 11 0;
#X connect 0 0 12 0;
#X connect 0 0 13 0;
#X connect 0 0 14 0;
#X connect 0 0 15 0;
#X connect 0 0 16 0;
#X connect 0 0 17 0;
#X connect 0 0 18 0;
#X connect 0 0 19 0;
#X connect 0 0 20 0;
#X connect 0 0 21 0;
#X connect 0 0 22 0;
#X connect 0 0 23 0;
#X connect 0 0 24 0;
#X connect 0 0 25 0;
#X connect 0 0 32 0;
#X connect 0 0 33 0;
#X connect 0 0 30 0;
#X connect 0 0 31 0;
#X connect 0 0 26 0;
#X connect 0 0 27 0;
#X connect 0 0 28 0;
#X connect 0 0 29 0;
#X connect 2 0 1 0;
#X connect 3 0 1 0;
#X connect 4 0 1 0;
#X connect 5 0 1 0;
#X connect 6 0 1 0;
#X connect 7 0 1 0;
#X connect 8 0 1 0;
#X connect 9 0 1 0;
#X connect 10 0 1 0;
#X connect 11 0 1 0;
#X connect 12 0 1 0;
#X connect 13 0 1 0;
#X connect 14 0 1 0;
#X connect 15 0 1 0;
#X connect 16 0 1 0;
#X connect 17 0 1 0;
#X connect 18 0 1 0;
#X connect 19 0 1 0;
#X connect 20 0 1 0;
#X connect 21 0 1 0;
#X connect 22 0 1 0;
#X connect 23 0 1 0;
#X connect 24 0 1 0;
#X connect 25 0 1 0;
#X connect 26 0 1 0;
#X connect 27 0 1 0;
#X connect 28 0 1 0;
#X connect 29 0 1 0;
#X connect 30 0 1 0;
#X connect 31 0 1 0;
#X connect 32 0 1 0;
#X connect 33 0 1 0;
#X restore 650 453 pd get_update_current;
#N canvas 91 25 765 700 unregister_update_current 0;
#X obj 8 69 inlet;
#X obj 8 228 outlet;
#X msg 124 380 3 /sl/-3/unregister_auto_update use_common_ins /updates/use_common_ins
;
#X msg 283 8 3 /sl/-3/unregister_auto_update rec_thresh /updates/rec_thresh
;
#X msg 273 28 3 /sl/-3/unregister_auto_update feedback /updates/feedback
;
#X msg 263 48 3 /sl/-3/unregister_auto_update use_feedback_play /updates/use_feedback_play
;
#X msg 254 81 3 /sl/-3/unregister_auto_update dry /updates/dry-3;
#X msg 244 101 3 /sl/-3/unregister_auto_update wet /updates/wet-3;
#X msg 234 121 3 /sl/-3/unregister_auto_update input_gain /updates/input_gain
;
#X msg 224 141 3 /sl/-3/unregister_auto_update rate /updates/rate;
#X msg 214 161 3 /sl/-3/unregister_auto_update scratch_pos /updates/scratch_pos
;
#X msg 204 181 3 /sl/-3/unregister_auto_update delay_trigger /updates/delay_trigger
;
#X msg 194 214 3 /sl/-3/unregister_auto_update quantize /updates/quantize
;
#X msg 184 234 3 /sl/-3/unregister_auto_update fade_samples /updates/fade_samples
;
#X msg 174 267 3 /sl/-3/unregister_auto_update round /updates/round
;
#X msg 164 287 3 /sl/-3/unregister_auto_update sync /updates/sync;
#X msg 154 307 3 /sl/-3/unregister_auto_update playback_sync /updates/playback_sync
;
#X msg 144 340 3 /sl/-3/unregister_auto_update redo_is_tap /updates/redo_is_tap
;
#X msg 134 360 3 /sl/-3/unregister_auto_update use_rate /updates/use_rate
;
#X msg 114 413 3 /sl/-3/unregister_auto_update use_common_outs /updates/use_common_outs
;
#X msg 104 446 3 /sl/-3/unregister_auto_update relative_sync /updates/relative_sync
;
#X msg 94 479 3 /sl/-3/unregister_auto_update input_latency /updates/input_latency
;
#X msg 84 512 3 /sl/-3/unregister_auto_update output_latency /updates/output_latency
;
#X msg 74 545 3 /sl/-3/unregister_auto_update trigger_latency /updates/trigger_latency
;
#X msg 64 578 3 /sl/-3/unregister_auto_update autoset_latency /updates/autoset_latency
;
#X msg 54 611 3 /sl/-3/unregister_auto_update mute_quantized /updates/mute_quantized
;
#X msg 434 458 3 /sl/-3/unregister_auto_update pan_1 /updates/pan_1
;
#X msg 424 478 3 /sl/-3/unregister_auto_update pan_2 /updates/pan_2
;
#X msg 414 498 3 /sl/-3/unregister_auto_update pan_3 /updates/pan_3
;
#X msg 404 518 3 /sl/-3/unregister_auto_update pan_4 /updates/pan_4
;
#X msg 394 538 3 /sl/-3/unregister_auto_update tempo_stretch /updates/tempo_stretch
;
#X msg 384 571 3 /sl/-3/unregister_auto_update round_integer_tempo
/updates/round_integer_tempo;
#X msg 374 604 3 /sl/-3/unregister_auto_update replace_quantized /updates/replace_quantized
;
#X msg 364 637 3 /sl/-3/unregister_auto_update overdub_quantized /updates/overdub_quantized
;
#X connect 0 0 3 0;
#X connect 0 0 4 0;
#X connect 0 0 5 0;
#X connect 0 0 6 0;
#X connect 0 0 7 0;
#X connect 0 0 8 0;
#X connect 0 0 9 0;
#X connect 0 0 10 0;
#X connect 0 0 11 0;
#X connect 0 0 12 0;
#X connect 0 0 13 0;
#X connect 0 0 14 0;
#X connect 0 0 15 0;
#X connect 0 0 16 0;
#X connect 0 0 17 0;
#X connect 0 0 18 0;
#X connect 0 0 2 0;
#X connect 0 0 19 0;
#X connect 0 0 20 0;
#X connect 0 0 21 0;
#X connect 0 0 22 0;
#X connect 0 0 23 0;
#X connect 0 0 24 0;
#X connect 0 0 25 0;
#X connect 0 0 32 0;
#X connect 0 0 33 0;
#X connect 0 0 30 0;
#X connect 0 0 31 0;
#X connect 0 0 26 0;
#X connect 0 0 27 0;
#X connect 0 0 28 0;
#X connect 0 0 29 0;
#X connect 2 0 1 0;
#X connect 3 0 1 0;
#X connect 4 0 1 0;
#X connect 5 0 1 0;
#X connect 6 0 1 0;
#X connect 7 0 1 0;
#X connect 8 0 1 0;
#X connect 9 0 1 0;
#X connect 10 0 1 0;
#X connect 11 0 1 0;
#X connect 12 0 1 0;
#X connect 13 0 1 0;
#X connect 14 0 1 0;
#X connect 15 0 1 0;
#X connect 16 0 1 0;
#X connect 17 0 1 0;
#X connect 18 0 1 0;
#X connect 19 0 1 0;
#X connect 20 0 1 0;
#X connect 21 0 1 0;
#X connect 22 0 1 0;
#X connect 23 0 1 0;
#X connect 24 0 1 0;
#X connect 25 0 1 0;
#X connect 26 0 1 0;
#X connect 27 0 1 0;
#X connect 28 0 1 0;
#X connect 29 0 1 0;
#X connect 30 0 1 0;
#X connect 31 0 1 0;
#X connect 32 0 1 0;
#X connect 33 0 1 0;
#X restore 630 396 pd unregister_update_current;
#N canvas 341 25 937 697 display_update_current 0;
#X obj -95 239 nbx 5 14 0 1e+37 0 0 empty CCIrec_thresh rec_thresh
0 -8 0 8 -262144 -1 -1 0 256;
#X obj -95 269 nbx 5 14 0 1e+37 0 0 empty CCIfeedback feedback 0 -8
0 8 -262144 -1 -1 0 256;
#X obj 155 89 nbx 5 14 0 1e+37 0 0 empty CCIuse_feedback_play use_feedback_play
0 -8 0 8 -262144 -1 -1 0 256;
#X obj 5 239 nbx 5 14 0 1e+37 0 0 empty CCIdry-3 dry 0 -8 0 8 -262144
-1 -1 0 256;
#X obj 5 269 nbx 5 14 0 1e+37 0 0 empty CCIwet-3 wet 0 -8 0 8 -262144
-1 -1 0 256;
#X obj 5 299 nbx 5 14 0 1e+37 0 0 empty CCIinput_gain input_gain 0
-8 0 8 -262144 -1 -1 0 256;
#X obj 81 299 nbx 5 14 0 1e+37 0 0 empty CCIrate rate 0 -8 0 8 -262144
-1 -1 0 256;
#X obj -95 299 nbx 5 14 0 1e+37 0 0 empty CCIscratch_pos scratch_pos
0 -8 0 8 -262144 -1 -1 0 256;
#X obj 585 -1 nbx 5 14 0 1e+37 0 0 empty CCIdelay_trigger delay_trigger
0 -8 0 8 -262144 -1 -1 0 256;
#X obj 572 488 nbx 5 14 0 1e+37 0 0 empty CCIquantize quantize 0 -8
0 8 -262144 -1 -1 0 256;
#X obj 585 29 nbx 5 14 0 1e+37 0 0 empty CCIfade_samples fade_samples
0 -8 0 8 -262144 -1 -1 0 256;
#X obj -105 61 nbx 5 14 0 1e+37 0 0 empty CCIround round 0 -8 0 8 -262144
-1 -1 0 256;
#X obj -105 91 nbx 5 14 0 1e+37 0 0 empty CCIsync sync 0 -8 0 8 -262144
-1 -1 0 256;
#X obj 35 -1 nbx 5 14 0 1e+37 0 0 empty CCIplayback_sync playback_sync
0 -8 0 8 -262144 -1 -1 0 256;
#X obj 35 29 nbx 5 14 0 1e+37 0 0 empty CCIredo_is_tap redo_is_tap
0 -8 0 8 -262144 -1 -1 0 256;
#X obj 35 59 nbx 5 14 0 1e+37 0 0 empty CCIuse_rate use_rate 0 -8 0
8 -262144 -1 -1 0 256;
#X obj -105 1 nbx 5 14 0 1e+37 0 0 empty CCIuse_common_ins use_common_ins
0 -8 0 8 -262144 -1 -1 0 256;
#X obj -105 31 nbx 5 14 0 1e+37 0 0 empty CCIuse_common_outs use_common_outs
0 -8 0 8 -262144 -1 -1 0 256;
#X obj 35 89 nbx 5 14 0 1e+37 0 0 empty CCIrelative_sync relative_sync
0 -8 0 8 -262144 -1 -1 0 256;
#X obj 321 143 nbx 5 14 0 1e+37 0 0 empty CCIinput_latency input_latency
0 -8 0 8 -262144 -1 -1 0 256;
#X obj 321 173 nbx 5 14 0 1e+37 0 0 empty CCIoutput_latency output_latency
0 -8 0 8 -262144 -1 -1 0 256;
#X obj 321 203 nbx 5 14 0 1e+37 0 0 empty CCItrigger_latency trigger_latency
0 -8 0 8 -262144 -1 -1 0 256;
#X obj 321 93 nbx 5 14 0 1e+37 0 0 empty CCIautoset_latency autoset_latency
0 -8 0 8 -262144 -1 -1 0 256;
#X obj 155 -1 nbx 5 14 0 1e+37 0 0 empty CCImute_quantized mute_quantized
0 -8 0 8 -262144 -1 -1 0 256;
#X obj 635 246 nbx 5 14 0 1e+37 0 0 empty CCIpan_1 pan_1 0 -8 0 8 -262144
-1 -1 0 256;
#X obj 635 276 nbx 5 14 0 1e+37 0 0 empty CCIpan_2 pan_2 0 -8 0 8 -262144
-1 -1 0 256;
#X obj 635 306 nbx 5 14 0 1e+37 0 0 empty CCIpan_3 pan_3 0 -8 0 8 -262144
-1 -1 0 256;
#X obj 635 336 nbx 5 14 0 1e+37 0 0 empty CCIpan_4 pan_4 0 -8 0 8 -262144
-1 -1 0 256;
#X obj 585 59 nbx 5 14 0 1e+37 0 0 empty CCItempo_stretch tempo_stretch
0 -8 0 8 -262144 -1 -1 0 256;
#X obj 585 89 nbx 5 14 0 1e+37 0 0 empty CCIround_integer_tempo round_integer_tempo
0 -8 0 8 -262144 -1 -1 0 256;
#X obj 155 29 nbx 5 14 0 1e+37 0 0 empty CCIreplace_quantized replace_quantized
0 -8 0 8 -262144 -1 -1 0 256;
#X obj 155 59 nbx 5 14 0 1e+37 0 0 empty CCIoverdub_quantized overdub_quantized
0 -8 0 8 -262144 -1 -1 0 256;
#X obj -83 133 tgl 15 0 empty empty use_common_ins 17 7 0 8 -262144
-1 -1 0 1;
#X obj -83 153 tgl 15 0 empty empty use_common_outs 17 7 0 8 -262144
-1 -1 0 1;
#X obj -99 133 bng 15 250 50 0 empty empty empty 17 7 0 10 -258113
-1 -1;
#X obj -99 153 bng 15 250 50 0 empty empty empty 17 7 0 10 -258113
-1 -1;
#X obj -83 173 tgl 15 0 empty empty round 17 7 0 8 -262144 -1 -1 0
1;
#X obj -99 173 bng 15 250 50 0 empty empty empty 17 7 0 10 -258113
-1 -1;
#X obj 177 193 tgl 15 0 empty empty sync 17 7 0 8 -262144 -1 -1 0 1
;
#X obj 161 193 bng 15 250 50 0 empty empty empty 17 7 0 10 -258113
-1 -1;
#X msg -86 451 send /sl/-3/set use_common_ins \$1;
#X obj -86 429 bitflipper;
#X obj -86 479 bitflipper;
#X msg -86 501 send /sl/-3/set use_common_outs \$1;
#X obj -86 529 bitflipper;
#X msg -86 551 send /sl/-3/set round \$1;
#X obj 342 579 bitflipper;
#X msg 342 601 send /sl/-3/set sync \$1;
#X obj 57 133 tgl 15 0 empty empty playback_sync 17 7 0 8 -262144 -1
-1 0 1;
#X obj 57 153 tgl 15 0 empty empty redo_is_tap 17 7 0 8 -262144 -1
-1 0 1;
#X obj 41 133 bng 15 250 50 0 empty empty empty 17 7 0 10 -258113 -1
-1;
#X obj 41 153 bng 15 250 50 0 empty empty empty 17 7 0 10 -258113 -1
-1;
#X obj 57 173 tgl 15 0 empty empty use_rate 17 7 0 8 -262144 -1 -1
0 1;
#X obj 41 173 bng 15 250 50 0 empty empty empty 17 7 0 10 -258113 -1
-1;
#X obj 57 193 tgl 15 0 empty empty relative_sync 17 7 0 8 -262144 -1
-1 0 1;
#X obj 41 193 bng 15 250 50 0 empty empty empty 17 7 0 10 -258113 -1
-1;
#X obj 134 429 bitflipper;
#X obj 134 479 bitflipper;
#X obj 134 529 bitflipper;
#X obj 134 579 bitflipper;
#X obj 177 133 tgl 15 0 empty empty mute_quantized 17 7 0 8 -262144
-1 -1 0 1;
#X obj 177 153 tgl 15 0 empty empty replace_quantized 17 7 0 8 -262144
-1 -1 0 1;
#X obj 161 133 bng 15 250 50 0 empty empty empty 17 7 0 10 -258113
-1 -1;
#X obj 161 153 bng 15 250 50 0 empty empty empty 17 7 0 10 -258113
-1 -1;
#X obj 177 173 tgl 15 0 empty empty overdub_quantized 17 7 0 8 -262144
-1 -1 0 1;
#X obj 161 173 bng 15 250 50 0 empty empty empty 17 7 0 10 -258113
-1 -1;
#X obj -83 193 tgl 15 0 empty empty use_feedback_play 17 7 0 8 -262144
-1 -1 0 1;
#X obj -99 193 bng 15 250 50 0 empty empty empty 17 7 0 10 -258113
-1 -1;
#X obj 342 429 bitflipper;
#X obj 342 479 bitflipper;
#X obj 342 529 bitflipper;
#X obj -99 579 bitflipper;
#X msg 134 451 send /sl/-3/set playback_sync \$1;
#X msg 134 501 send /sl/-3/set redo_is_tap \$1;
#X msg 134 551 send /sl/-3/set use_rate \$1;
#X msg 134 601 send /sl/-3/set relative_sync \$1;
#X msg 342 451 send /sl/-3/set mute_quantized \$1;
#X msg 342 501 send /sl/-3/set replace_quantized \$1;
#X msg 342 551 send /sl/-3/set overdub_quantized \$1;
#X msg -99 601 send /sl/-3/set use_feedback_play \$1;
#X obj 337 223 tgl 15 0 empty empty autoset_latency 17 7 0 8 -262144
-1 -1 0 1;
#X obj 321 223 bng 15 250 50 0 empty empty empty 17 7 0 10 -258113
-1 -1;
#X obj 572 429 bitflipper;
#X msg 572 451 send /sl/-3/set autoset_latency \$1;
#N canvas 725 99 488 261 parse_quantize 0;
#X obj 72 36 inlet;
#X obj 254 224 outlet;
#X obj 72 66 select 0 1 2 3;
#X msg 72 180 set Off;
#X msg 92 160 set Cycle;
#X msg 112 140 set 8th;
#X msg 132 120 set Loop;
#X msg 153 100 set ERR;
#X connect 0 0 2 0;
#X connect 2 0 3 0;
#X connect 2 1 4 0;
#X connect 2 2 5 0;
#X connect 2 3 6 0;
#X connect 2 4 7 0;
#X connect 3 0 1 0;
#X connect 4 0 1 0;
#X connect 5 0 1 0;
#X connect 6 0 1 0;
#X connect 7 0 1 0;
#X restore 572 505 pd parse_quantize;
#X symbolatom 178 229 10 0 0 2 quantize - -;
#X obj 160 230 bng 15 250 50 0 empty empty empty 17 7 0 10 -258113
-1 -1;
#N canvas 79 366 450 300 send_set_quantize 0;
#X obj 56 61 inlet;
#X obj 141 61 inlet;
#X obj 56 89 f;
#X msg 56 147 1;
#X obj 56 230 outlet;
#X obj 56 118 select 0 1 2 3;
#X msg 140 147 0;
#X msg 84 147 2;
#X msg 112 147 3;
#X msg 56 207 send /sl/-3/set quantize \$1;
#X connect 0 0 2 0;
#X connect 1 0 2 1;
#X connect 2 0 5 0;
#X connect 3 0 9 0;
#X connect 5 0 3 0;
#X connect 5 1 7 0;
#X connect 5 2 8 0;
#X connect 5 3 6 0;
#X connect 6 0 9 0;
#X connect 7 0 9 0;
#X connect 8 0 9 0;
#X connect 9 0 4 0;
#X restore 572 526 pd send_set_quantize;
#X obj 324 263 hsl 50 10 0 1 0 0 empty CCIpan_1 pan_1 8 -8 0 8 -262144
-1 -1 0 1;
#X obj 324 276 hsl 50 10 0 1 0 0 empty empty empty 8 -8 0 8 -258113
-1 -1 0 1;
#X obj 384 263 hsl 50 10 0 1 0 0 empty CCIpan_2 pan_2 8 -8 0 8 -262144
-1 -1 0 1;
#X obj 384 276 hsl 50 10 0 1 0 0 empty empty empty 8 -8 0 8 -258113
-1 -1 0 1;
#X obj 324 303 hsl 50 10 0 1 0 0 empty CCIpan_3 pan_3 8 -8 0 8 -262144
-1 -1 0 1;
#X obj 324 316 hsl 50 10 0 1 0 0 empty empty empty 8 -8 0 8 -258113
-1 -1 0 1;
#X obj 384 303 hsl 50 10 0 1 0 0 empty CCIpan_4 pan_4 8 -8 0 8 -262144
-1 -1 0 1;
#X obj 384 316 hsl 50 10 0 1 0 0 empty empty empty 8 -8 0 8 -258113
-1 -1 0 1;
#X msg 466 262 send /sl/-3/set pan_1 \$1;
#X msg 466 282 send /sl/-3/set pan_2 \$1;
#X msg 466 302 send /sl/-3/set pan_3 \$1;
#X msg 466 322 send /sl/-3/set pan_4 \$1;
#X obj -105 641 s slOSCout;
#X obj 58 241 hsl 50 10 0 1 0 0 empty empty empty 8 -8 0 8 -258113
-1 -1 0 1;
#X msg -4 352 send /sl/-3/set dry \$1;
#X obj 58 271 hsl 50 10 0 1 0 0 empty empty empty 8 -8 0 8 -258113
-1 -1 0 1;
#X msg -4 382 send /sl/-3/set wet \$1;
#X connect 2 0 66 0;
#X connect 9 0 84 0;
#X connect 9 0 87 1;
#X connect 11 0 36 0;
#X connect 12 0 38 0;
#X connect 13 0 48 0;
#X connect 14 0 49 0;
#X connect 15 0 52 0;
#X connect 16 0 32 0;
#X connect 17 0 33 0;
#X connect 18 0 54 0;
#X connect 22 0 80 0;
#X connect 23 0 60 0;
#X connect 30 0 61 0;
#X connect 31 0 64 0;
#X connect 32 0 41 1;
#X connect 33 0 42 1;
#X connect 34 0 41 0;
#X connect 35 0 42 0;
#X connect 36 0 44 1;
#X connect 37 0 44 0;
#X connect 38 0 46 1;
#X connect 39 0 46 0;
#X connect 40 0 100 0;
#X connect 41 0 40 0;
#X connect 42 0 43 0;
#X connect 43 0 100 0;
#X connect 44 0 45 0;
#X connect 45 0 100 0;
#X connect 46 0 47 0;
#X connect 47 0 100 0;
#X connect 48 0 56 1;
#X connect 49 0 57 1;
#X connect 50 0 56 0;
#X connect 51 0 57 0;
#X connect 52 0 58 1;
#X connect 53 0 58 0;
#X connect 54 0 59 1;
#X connect 55 0 59 0;
#X connect 56 0 72 0;
#X connect 57 0 73 0;
#X connect 58 0 74 0;
#X connect 59 0 75 0;
#X connect 60 0 68 1;
#X connect 61 0 69 1;
#X connect 62 0 68 0;
#X connect 63 0 69 0;
#X connect 64 0 70 1;
#X connect 65 0 70 0;
#X connect 66 0 71 1;
#X connect 67 0 71 0;
#X connect 68 0 76 0;
#X connect 69 0 77 0;
#X connect 70 0 78 0;
#X connect 71 0 79 0;
#X connect 72 0 100 0;
#X connect 73 0 100 0;
#X connect 74 0 100 0;
#X connect 75 0 100 0;
#X connect 76 0 100 0;
#X connect 77 0 100 0;
#X connect 78 0 100 0;
#X connect 79 0 100 0;
#X connect 80 0 82 1;
#X connect 81 0 82 0;
#X connect 82 0 83 0;
#X connect 83 0 100 0;
#X connect 84 0 85 0;
#X connect 86 0 87 0;
#X connect 87 0 100 0;
#X connect 89 0 96 0;
#X connect 91 0 97 0;
#X connect 93 0 98 0;
#X connect 95 0 99 0;
#X connect 96 0 100 0;
#X connect 97 0 100 0;
#X connect 98 0 100 0;
#X connect 99 0 100 0;
#X connect 101 0 102 0;
#X connect 102 0 100 0;
#X connect 103 0 104 0;
#X connect 104 0 100 0;
#X coords 0 -1 1 1 560 220 2 -110 120;
#X restore 24 198 pd display_update_current;
#X obj 710 527 slOSCsender2;
#X connect 1 0 29 0;
#X connect 2 0 3 0;
#X connect 3 0 1 0;
#X connect 3 0 26 0;
#X connect 3 0 25 0;
#X connect 3 1 4 0;
#X connect 3 1 27 0;
#X connect 4 0 29 0;
#X connect 5 0 6 0;
#X connect 6 0 2 0;
#X connect 13 0 22 0;
#X connect 15 0 21 0;
#X connect 21 0 23 0;
#X connect 22 0 20 0;
#X connect 25 0 29 0;
#X connect 26 0 29 0;
#X connect 27 0 29 0;
#X connect 29 0 7 0;
#X coords 0 -1 1 1 580 530 2 15 65;
#X restore 15 16 pd current_loop_interface;
