#N canvas 0 352 439 334 10;
#N canvas 57 204 931 434 footControllerSerial 0;
#X floatatom 304 341 10 0 0 1 baud - -;
#X floatatom 556 214 3 0 0 3 parity - -;
#X floatatom 581 214 3 0 0 2 stop - -;
#X floatatom 606 213 3 0 0 3 data - -;
#X floatatom 452 341 3 0 0 1 port - -;
#X obj 631 179 tgl 15 0 empty empty rts/cts -10 20 1 11 -24198 -258699
-1 0 1;
#X obj 657 195 tgl 15 0 empty empty xon/xoff -14 20 1 11 -24198 -258699
-1 0 1;
#X text 420 213 serial packet format:;
#X text 572 163 handshaking:;
#X text 378 245 flow control inputs:;
#X obj 506 245 tgl 15 0 empty empty dsr 0 20 1 11 -24198 -258699 -1
0 1;
#X obj 531 245 tgl 15 0 empty empty cts 0 20 1 11 -24198 -258699 -1
0 1;
#X obj 403 341 tgl 15 0 empty empty open 17 7 1 11 -24198 -258699 -1
1 1;
#X obj 732 210 print port_list;
#X obj 846 166 print other;
#X obj 757 173 tgl 15 0 empty empty hupcl -6 20 1 11 -24198 -258699
-1 1 1;
#X floatatom 429 304 10 0 0 1 rxerrors - -;
#X obj 481 136 route baud dsr cts parity stop data rtscts xonxoff port
open ports hupcl rxerrors;
#X obj 394 114 comport 4 57600;
#X msg 408 41 close;
#X obj 58 137 select 13 10 33;
#X obj 146 200 list prepend;
#X obj 145 168 makefilename %c;
#X obj 239 201 t l;
#X obj 58 169 bng 15 50 10 0 empty empty empty 0 -6 0 10 -262144 -1
-1;
#X obj 58 234 list append;
#X symbolatom 304 304 20 0 0 0 - - -;
#X obj 58 264 list2symbol;
#X symbolatom 145 250 10 0 0 0 - - -;
#X obj 64 365 symbol2list;
#X msg 145 227 symbol;
#X text 157 137 <-- end character end line select one!;
#X text 246 167 // change int to ascii;
#X text 270 201 // stores string;
#X text 217 248 // remove unwanted spaces;
#X text 143 368 // make list (message) out of it;
#X obj 197 227 loadbang;
#X msg 449 41 info;
#X obj 581 322 bng 15 250 50 0 empty empty close -28 7 0 8 -258113
-1 -1;
#X obj 581 302 bng 15 250 50 0 empty empty connect -39 7 0 8 -258113
-1 -1;
#X obj 581 342 bng 15 250 50 0 empty empty update -34 7 0 8 -258113
-1 -1;
#X obj 64 386 list trim;
#X msg 485 41 devicename /dev/ttyUSB0;
#X obj 64 408 s localOSCout;
#X obj 241 41 r footControllerSerialOut;
#X connect 17 0 0 0;
#X connect 17 1 10 0;
#X connect 17 2 11 0;
#X connect 17 3 1 0;
#X connect 17 4 2 0;
#X connect 17 5 3 0;
#X connect 17 6 5 0;
#X connect 17 7 6 0;
#X connect 17 8 4 0;
#X connect 17 9 12 0;
#X connect 17 10 13 0;
#X connect 17 11 15 0;
#X connect 17 12 16 0;
#X connect 17 13 14 0;
#X connect 18 0 20 0;
#X connect 18 1 17 0;
#X connect 19 0 18 0;
#X connect 20 1 24 0;
#X connect 20 3 22 0;
#X connect 21 0 23 0;
#X connect 21 0 25 1;
#X connect 22 0 21 0;
#X connect 23 0 21 1;
#X connect 24 0 21 1;
#X connect 24 0 25 0;
#X connect 25 0 27 0;
#X connect 26 0 29 0;
#X connect 27 0 26 0;
#X connect 28 0 27 1;
#X connect 29 0 41 0;
#X connect 30 0 28 0;
#X connect 36 0 30 0;
#X connect 37 0 18 0;
#X connect 38 0 19 0;
#X connect 39 0 42 0;
#X connect 40 0 37 0;
#X connect 41 0 43 0;
#X connect 42 0 18 0;
#X connect 44 0 18 0;
#X coords 0 -1 1 1 300 60 2 300 300;
#X restore 62 32 pd footControllerSerial;
#N canvas -207 56 1210 656 footControllerVisual 0;
#X obj 18 128 routeOSC /0 /1 /2 /3 /4 /5 /6;
#X obj 198 128 routeOSC /0 /1 /2 /3 /4;
#X text 29 110 Foot Switches Hit;
#X text 213 110 Slider Values;
#X obj 373 177 bng 15 250 50 0 empty empty dub -2 22 0 8 -258113 -1
-1;
#X obj 418 177 bng 15 250 50 0 empty empty rec -2 22 0 8 -258113 -1
-1;
#X obj 463 177 bng 15 250 50 0 empty empty undo -4 22 0 8 -258113 -1
-1;
#X obj 508 177 bng 15 250 50 0 empty empty mute -4 22 0 8 -258113 -1
-1;
#X obj 598 177 bng 15 250 50 0 empty empty prev -4 22 0 8 -258113 -1
-1;
#X obj 643 177 bng 15 250 50 0 empty empty next -4 22 0 8 -258113 -1
-1;
#X obj 389 38 vsl 10 100 0 1023 0 0 empty empty empty 0 -9 0 10 -262144
-1 -1 0 1;
#X obj 409 38 vsl 10 100 0 1023 0 0 empty empty empty 0 -9 0 10 -262144
-1 -1 0 1;
#X obj 429 38 vsl 10 100 0 1023 0 0 empty empty empty 0 -9 0 10 -262144
-1 -1 0 1;
#X obj 449 38 vsl 10 100 0 1023 0 0 empty empty empty 0 -9 0 10 -262144
-1 -1 0 1;
#X obj 469 38 vsl 10 100 0 1023 0 0 empty empty empty 0 -9 0 10 -262144
-1 -1 0 1;
#X obj 940 234 bng 20 250 50 0 empty empty NEXT_LOOP 22 10 0 10 -258113
-1 -1;
#X obj 835 234 bng 20 250 50 0 empty empty PREV_LOOP 22 10 0 10 -258113
-1 -1;
#X obj 533 234 bng 20 250 50 0 empty empty MUTE 22 10 0 10 -258113
-1 -1;
#X msg 533 260 send /sl/-3/hit mute;
#X obj 230 234 bng 20 250 50 0 empty empty REC 22 10 0 10 -258113 -1
-1;
#X obj 380 234 bng 20 250 50 0 empty empty UNDO 22 10 0 10 -258113
-1 -1;
#X obj 682 452 send slOSCout;
#X obj 850 298 nbx 3 14 0 512 0 0 empty SLselected_loop_num selected_loop
0 -8 0 8 -262144 -1 -1 0 256;
#X msg 835 260 -1;
#X msg 940 260 1;
#X obj 835 318 +;
#X msg 835 390 send /set selected_loop_num \$1;
#X obj 1051 197 tgl 15 0 empty empty reverse -15 22 0 8 -258113 -1
-1 0 1;
#X msg 1051 254 send /sl/-3/down reverse;
#X msg 1051 276 send /sl/-3/up reverse;
#X obj 1051 232 select 1 0;
#X msg 380 260 send /sl/-3/hit undo;
#X msg 230 260 send /sl/-3/hit record;
#X obj 71 234 bng 20 250 50 0 empty empty OVERDUB 22 10 0 10 -258113
-1 -1;
#X msg 71 260 send /sl/-3/hit overdub;
#X obj 369 21 tgl 8 0 empty empty empty 17 7 0 10 -4032 -1 -1 0 1;
#X obj 840 25 nbx 5 14 0 1e+37 0 0 empty CCIwaiting waiting 0 -8 0
8 -262144 -1 -1 0 256;
#X obj 840 69 s localOSCout;
#X obj 18 75 routeOSC /F /S /L;
#X obj 203 386 routeOSC /0 /1 /2 /3 /4 /5 /6 /8 /9;
#X msg 23 474 49 0;
#X msg 56 474 50 0;
#X obj 281 611 s footControllerSerialOut;
#X msg 514 474 49 8;
#X msg 547 474 50 8;
#X obj 23 448 select 1 0;
#X obj 514 448 select 1 0;
#X msg 840 45 send /AM/L/9 \$1;
#X obj 584 448 select 1 0;
#X msg 584 474 49 9;
#X msg 617 474 50 9;
#X obj 374 448 select 1 0;
#X obj 444 448 select 1 0;
#X obj 234 448 select 1 0;
#X obj 304 448 select 1 0;
#X obj 94 448 select 1 0;
#X obj 164 448 select 1 0;
#X msg 94 474 49 1;
#X msg 127 474 50 1;
#X msg 164 474 49 2;
#X msg 197 474 50 2;
#X msg 234 474 49 3;
#X msg 267 474 50 3;
#X msg 304 474 49 4;
#X msg 337 474 50 5;
#X msg 374 474 49 5;
#X msg 407 474 50 5;
#X msg 444 474 49 6;
#X msg 477 474 50 6;
#X obj 708 23 nbx 5 14 0 1e+37 0 0 empty CCIstate state 0 -8 0 8 -262144
-1 -1 0 256;
#N canvas 682 378 350 145 toggleRECled 0;
#X obj 23 25 inlet;
#X obj 128 25 inlet;
#X obj 23 48 bng 15 250 50 0 empty empty empty 17 7 0 10 -262144 -1
-1;
#X obj 128 48 bng 15 250 50 0 empty empty empty 17 7 0 10 -262144 -1
-1;
#X obj 73 111 outlet;
#X msg 23 73 send /AM/L/1 1;
#X msg 128 73 send /AM/L/1 0;
#X connect 0 0 2 0;
#X connect 1 0 3 0;
#X connect 2 0 5 0;
#X connect 3 0 6 0;
#X connect 5 0 4 0;
#X connect 6 0 4 0;
#X restore 708 145 pd toggleRECled;
#N canvas 0 0 435 159 toggleDUBled 0;
#X obj 33 35 inlet;
#X obj 138 35 inlet;
#X obj 33 58 bng 15 250 50 0 empty empty empty 17 7 0 10 -262144 -1
-1;
#X obj 138 58 bng 15 250 50 0 empty empty empty 17 7 0 10 -262144 -1
-1;
#X obj 83 121 outlet;
#X msg 138 83 send /AM/L/0 0;
#X msg 33 83 send /AM/L/0 1;
#X connect 0 0 2 0;
#X connect 1 0 3 0;
#X connect 2 0 6 0;
#X connect 3 0 5 0;
#X connect 5 0 4 0;
#X connect 6 0 4 0;
#X restore 726 125 pd toggleDUBled;
#X obj 708 168 s localOSCout;
#X obj 708 46 select 2 5 10 3;
#X obj 376 164 tgl 8 0 empty empty empty 17 7 0 10 -4032 -1 -1 0 1
;
#X obj 421 164 tgl 8 0 empty empty empty 17 7 0 10 -4032 -1 -1 0 1
;
#X obj 466 164 tgl 8 0 empty empty empty 17 7 0 10 -4032 -1 -1 0 1
;
#X obj 511 164 tgl 8 0 empty empty empty 17 7 0 10 -4032 -1 -1 0 1
;
#X obj 556 164 tgl 8 0 empty empty empty 17 7 0 10 -4032 -1 -1 0 1
;
#X obj 601 164 tgl 8 0 empty empty empty 17 7 0 10 -4032 -1 -1 0 1
;
#X obj 646 164 tgl 8 0 empty empty empty 17 7 0 10 -4032 -1 -1 0 1
;
#X obj 659 21 tgl 8 0 empty empty empty 17 7 0 10 -4032 -1 -1 0 1;
#X obj 553 177 bng 15 250 50 0 empty empty undo_all -15 22 0 8 -258113
-1 -1;
#X obj 673 234 bng 20 250 50 0 empty empty UNDO_ALL 22 10 0 10 -258113
-1 -1;
#X msg 673 260 send /sl/-3/hit undo_all;
#X obj 929 469 /;
#X obj 929 491 * 8;
#X obj 929 512 int;
#X obj 929 533 change;
#X obj 929 554 mod 2;
#X msg 929 596 send /AM/L/8 \$1;
#X obj 929 617 s localOSCout;
#X obj 557 34 hradio 15 1 0 4 empty empty empty 0 -8 0 10 -258113 -1
-1 0;
#X obj 1044 491 * 4;
#X obj 1044 469 + 1;
#X text 957 512 flash 'power' led on beat intervals;
#X text 521 13 4ths 8ths 16ths 32nds;
#X obj 929 575 invert;
#X obj 18 47 routeOSC /AM;
#X obj 18 23 r localOSCin;
#X obj 929 429 r 0_loop_pos;
#X obj 944 448 r 0_loop_len;
#X obj 835 341 moses 0;
#X obj 874 364 moses 6;
#X obj 913 342 nbx 5 14 0 1e+37 0 0 empty SLloops loops 0 -8 0 8 -262144
-1 -1 6 256;
#X connect 0 0 4 0;
#X connect 0 1 5 0;
#X connect 0 2 6 0;
#X connect 0 3 7 0;
#X connect 0 4 82 0;
#X connect 0 5 8 0;
#X connect 0 6 9 0;
#X connect 1 0 10 0;
#X connect 1 1 11 0;
#X connect 1 2 12 0;
#X connect 1 3 13 0;
#X connect 1 4 14 0;
#X connect 4 0 33 0;
#X connect 5 0 19 0;
#X connect 6 0 20 0;
#X connect 7 0 17 0;
#X connect 8 0 16 0;
#X connect 9 0 15 0;
#X connect 15 0 24 0;
#X connect 16 0 23 0;
#X connect 17 0 18 0;
#X connect 18 0 21 0;
#X connect 19 0 32 0;
#X connect 20 0 31 0;
#X connect 22 0 25 1;
#X connect 23 0 25 0;
#X connect 24 0 25 0;
#X connect 25 0 102 0;
#X connect 26 0 21 0;
#X connect 27 0 30 0;
#X connect 29 0 21 0;
#X connect 30 0 28 0;
#X connect 30 1 29 0;
#X connect 31 0 21 0;
#X connect 32 0 21 0;
#X connect 33 0 34 0;
#X connect 34 0 21 0;
#X connect 36 0 47 0;
#X connect 38 0 0 0;
#X connect 38 1 1 0;
#X connect 38 2 39 0;
#X connect 39 0 45 0;
#X connect 39 0 74 0;
#X connect 39 1 55 0;
#X connect 39 1 75 0;
#X connect 39 2 56 0;
#X connect 39 2 76 0;
#X connect 39 3 53 0;
#X connect 39 3 77 0;
#X connect 39 4 54 0;
#X connect 39 4 78 0;
#X connect 39 5 51 0;
#X connect 39 5 79 0;
#X connect 39 6 52 0;
#X connect 39 6 80 0;
#X connect 39 7 46 0;
#X connect 39 7 81 0;
#X connect 39 8 48 0;
#X connect 39 8 35 0;
#X connect 40 0 42 0;
#X connect 41 0 42 0;
#X connect 43 0 42 0;
#X connect 44 0 42 0;
#X connect 45 0 40 0;
#X connect 45 1 41 0;
#X connect 46 0 43 0;
#X connect 46 1 44 0;
#X connect 47 0 37 0;
#X connect 48 0 49 0;
#X connect 48 1 50 0;
#X connect 49 0 42 0;
#X connect 50 0 42 0;
#X connect 51 0 65 0;
#X connect 51 1 66 0;
#X connect 52 0 67 0;
#X connect 52 1 68 0;
#X connect 53 0 61 0;
#X connect 53 1 62 0;
#X connect 54 0 63 0;
#X connect 54 1 64 0;
#X connect 55 0 57 0;
#X connect 55 1 58 0;
#X connect 56 0 59 0;
#X connect 56 1 60 0;
#X connect 57 0 42 0;
#X connect 58 0 42 0;
#X connect 59 0 42 0;
#X connect 60 0 42 0;
#X connect 61 0 42 0;
#X connect 62 0 42 0;
#X connect 63 0 42 0;
#X connect 64 0 42 0;
#X connect 65 0 42 0;
#X connect 66 0 42 0;
#X connect 67 0 42 0;
#X connect 68 0 42 0;
#X connect 69 0 73 0;
#X connect 70 0 72 0;
#X connect 71 0 72 0;
#X connect 73 0 70 0;
#X connect 73 0 71 1;
#X connect 73 1 71 0;
#X connect 73 1 70 1;
#X connect 73 2 70 1;
#X connect 73 2 71 1;
#X connect 73 4 71 1;
#X connect 73 4 70 1;
#X connect 82 0 83 0;
#X connect 83 0 84 0;
#X connect 84 0 21 0;
#X connect 85 0 86 0;
#X connect 86 0 87 0;
#X connect 87 0 88 0;
#X connect 88 0 89 0;
#X connect 89 0 97 0;
#X connect 90 0 91 0;
#X connect 92 0 94 0;
#X connect 93 0 86 1;
#X connect 94 0 93 0;
#X connect 97 0 90 0;
#X connect 98 0 38 0;
#X connect 99 0 98 0;
#X connect 100 0 85 0;
#X connect 101 0 85 1;
#X connect 102 1 103 0;
#X connect 103 0 26 0;
#X connect 104 0 103 1;
#X coords 0 -1 1 1 320 200 2 360 10;
#X restore 52 94 pd footControllerVisual;
