#N canvas 646 25 378 265 10;
#N canvas 74 410 408 275 OSCin 0;
#X text 103 34 SERVER;
#X obj -5 47 unpackOSC;
#X floatatom 52 84 10 0 0 1 millisecond_delay - -;
#X obj -5 84 pipelist;
#X obj -5 17 udpreceive 9950;
#X msg 96 51 127.0.0.1;
#X msg 96 17 set \$1.\$2.\$3.\$4;
#X text 205 22 OSC IN;
#N canvas 355 447 643 187 processUpdates 0;
#X obj 5 4 inlet;
#X obj 5 71 unpack f s f;
#X obj 5 95 s SLsync_source;
#X obj 102 71 unpack f s f;
#X obj 102 95 s SLselected_loop_num;
#X obj 456 71 print UNKNOWN_UPDATE;
#X obj 235 71 unpack f s f;
#X obj 235 95 s SLoutput_midi_clock;
#X obj 5 31 routeOSC /sync_source /selected_loop_num /output_midi_clock
/loops;
#X obj 368 95 s SLloops;
#X obj 368 71 unpack s s f;
#X connect 0 0 8 0;
#X connect 1 2 2 0;
#X connect 3 2 4 0;
#X connect 6 2 7 0;
#X connect 8 0 1 0;
#X connect 8 1 3 0;
#X connect 8 2 6 0;
#X connect 8 3 10 0;
#X connect 8 4 5 0;
#X connect 10 2 9 0;
#X restore -5 162 pd processUpdates;
#X obj 243 51 r localOSCout;
#X obj 243 73 packOSC;
#X obj 136 130 s localOSCin;
#X obj 264 25 tgl 15 0 empty empty dump 17 8 0 8 -262144 -1 -1 0 1
;
#X obj 219 134 spigot 0;
#X obj 219 157 print OSC;
#X text 2 195 Use localOSCin and localOSCout for OSC local to puredata
;
#X obj -5 109 routeOSC /updates /clock;
#X obj 14 222 udpreceive 9955;
#X obj 160 253 midiout;
#X obj 248 236 print;
#X connect 1 0 3 0;
#X connect 1 1 2 0;
#X connect 1 1 3 1;
#X connect 3 0 13 0;
#X connect 3 0 16 0;
#X connect 4 0 1 0;
#X connect 4 1 6 0;
#X connect 6 0 5 0;
#X connect 9 0 10 0;
#X connect 10 0 1 0;
#X connect 12 0 13 1;
#X connect 13 0 14 0;
#X connect 16 0 8 0;
#X connect 16 2 11 0;
#X connect 17 0 18 0;
#X connect 17 0 19 0;
#X coords 0 -1 1 1 125 25 2 200 20;
#X restore 209 107 pd OSCin;
#N canvas 635 343 381 270 OSCout 0;
#X obj 131 10 inlet;
#X obj 131 35 packOSC;
#X floatatom 170 58 5 0 0 0 - - -;
#X text 204 59 bundle depth;
#X obj 48 151 bng 15 250 50 0 empty empty connect 20 7 0 8 -258113
-1 -1;
#X obj 47 120 tgl 15 0 empty empty connected 20 7 0 8 -4034 -45076
-1 1 1;
#X obj 48 169 bng 15 250 50 0 empty empty disconnect 20 7 0 8 -258113
-1 -1;
#X text 44 100 OSC OUT;
#X obj 131 220 udpsend;
#X obj 80 73 select 1;
#X obj 35 35 print OSCOUT;
#N canvas 751 214 338 182 do_after_connect 0;
#X obj 7 8 inlet;
#X obj 7 131 outlet;
#N canvas 533 187 447 299 global_register_update 0;
#X obj 17 18 inlet;
#X msg 83 90 3 /register_update sync_source /updates/sync_source;
#X msg 93 111 3 /register_update output_midi_clock /updates/output_midi_clock
;
#X msg 103 146 2 /register /updates/loops;
#X obj 17 258 outlet;
#X msg 110 167 4 /register_auto_update selected_loop_num 100 /updates/selected_loop_num
;
#X connect 0 0 1 0;
#X connect 0 0 3 0;
#X connect 0 0 2 0;
#X connect 0 0 5 0;
#X connect 1 0 4 0;
#X connect 2 0 4 0;
#X connect 3 0 4 0;
#X connect 5 0 4 0;
#X restore 7 50 pd global_register_update;
#N canvas 511 125 457 206 global_get_update 0;
#X obj 17 18 inlet;
#X msg 63 60 3 /get sync_source /updates/sync_source;
#X msg 63 80 3 /get output_midi_clock /updates/output_midi_clock;
#X obj 18 138 outlet;
#X msg 63 103 3 /get selected_loop_num /updates/selected_loop_num;
#X connect 0 0 1 0;
#X connect 0 0 2 0;
#X connect 0 0 4 0;
#X connect 1 0 3 0;
#X connect 2 0 3 0;
#X connect 4 0 3 0;
#X restore 29 74 pd global_get_update;
#X obj 7 108 slOSCsender2;
#X connect 0 0 2 0;
#X connect 0 0 3 0;
#X connect 2 0 4 0;
#X connect 3 0 4 0;
#X connect 4 0 1 0;
#X restore 225 120 pd do_after_connect;
#N canvas 0 0 450 300 do_after_disconnect 0;
#X obj 3 5 inlet;
#X restore 225 159 pd do_after_disconnect;
#N canvas 0 0 450 300 do_before_connect 0;
#X obj 15 15 inlet;
#X obj 15 276 outlet;
#X msg 15 143 connect 127.0.0.1 9951;
#X connect 0 0 2 0;
#X connect 2 0 1 0;
#X restore 225 100 pd do_before_connect;
#N canvas 383 311 528 387 do_before_disconnect 0;
#X obj 57 244 outlet;
#X msg 57 194 disconnect;
#X obj 158 244 outlet;
#X obj 158 21 inlet;
#N canvas 10 118 425 207 global_unregister_update 0;
#X obj 18 16 inlet;
#X msg 74 58 3 /unregister_update sync_source /updates/sync_source
;
#X msg 74 85 3 /unregister_update output_midi_clock /updates/output_midi_clock
;
#X obj 24 176 outlet;
#X msg 74 125 3 /unregister_auto_update selected_loop_num /updates/selected_loop_num
;
#X connect 0 0 1 0;
#X connect 0 0 2 0;
#X connect 0 0 4 0;
#X connect 1 0 3 0;
#X connect 2 0 3 0;
#X connect 4 0 3 0;
#X restore 158 194 pd global_unregister_update;
#X obj 170 45 s disable_monitors_current;
#X obj 158 219 slOSCsender2;
#X obj 57 116 bng 15 250 50 0 empty empty empty 17 7 0 10 -262144 -1
-1;
#X obj 57 156 bng 15 250 50 0 empty empty empty 17 7 0 10 -262144 -1
-1;
#X obj 57 135 delay 25;
#X connect 1 0 0 0;
#X connect 3 0 4 0;
#X connect 3 0 5 0;
#X connect 3 0 7 0;
#X connect 4 0 6 0;
#X connect 6 0 2 0;
#X connect 7 0 9 0;
#X connect 8 0 1 0;
#X connect 9 0 8 0;
#X restore 225 140 pd do_before_disconnect;
#X obj 169 10 r slOSCout;
#X connect 0 0 1 0;
#X connect 1 0 8 0;
#X connect 1 1 2 0;
#X connect 4 0 13 0;
#X connect 5 0 9 0;
#X connect 6 0 14 0;
#X connect 8 0 5 0;
#X connect 9 0 11 0;
#X connect 9 1 12 0;
#X connect 11 0 1 0;
#X connect 13 0 8 0;
#X connect 14 0 8 0;
#X connect 14 1 1 0;
#X connect 15 0 1 0;
#X coords 0 -1 1 1 125 90 2 40 100;
#X restore 209 11 pd OSCout;
#X obj 6 149 cnv 15 320 60 empty empty empty 20 12 0 14 -257985 -66577
0;
#X text 13 154 emOSCulator - puredata sooperlooper interface;
#X text 12 174 controls are in red - changing other items can have
unexpected results;
#N canvas 450 25 574 562 sync_source_interface 0;
#X obj 111 63 nbx 2 14 -3 128 0 0 empty SLsync_source sync_source 0
-8 0 8 -262144 -1 -1 1 256;
#X obj 203 63 bng 15 250 50 0 empty empty empty -46 7 0 8 -258113 -1
-1;
#X symbolatom 138 62 10 0 0 0 - SLsync_source_message -;
#X obj 241 85 + 1;
#X obj 203 85 f;
#X obj 241 107 moses 1;
#X obj 280 85 + 1;
#X obj 280 129 bng 15 250 50 0 empty empty empty 17 7 0 10 -262144
-1 -1;
#X msg 280 148 -4;
#X msg 241 171 send /set sync_source \$1;
#X obj -112 101 select -3 -2 -1 0 1 2 3 4 5 6 7 8 9 10 11 12;
#X msg -112 465 set Internal;
#X msg -96 445 set Midi;
#X msg -80 425 set Jack;
#X msg -64 405 set None;
#X msg 149 145 set MOARLOOPS;
#X obj 200 509 s SLsync_source_message;
#X obj 241 194 s slOSCout;
#X obj 280 67 nbx 5 14 0 1e+37 0 0 empty SLloops SLloops 0 -8 0 8 -262144
-1 -1 10 256;
#X msg -47 385 set Loop0;
#X msg -31 365 set Loop1;
#X msg -15 345 set Loop2;
#X msg 2 325 set Loop3;
#X msg 18 305 set Loop4;
#X msg 34 285 set Loop5;
#X msg 51 265 set Loop6;
#X msg 67 245 set Loop7;
#X msg 83 225 set Loop8;
#X msg 100 205 set Loop9;
#X msg 116 185 set Loop10;
#X msg 132 165 set Loop11;
#X connect 0 0 10 0;
#X connect 1 0 4 0;
#X connect 3 0 4 1;
#X connect 3 0 5 0;
#X connect 4 0 3 0;
#X connect 5 0 9 0;
#X connect 5 1 7 0;
#X connect 6 0 5 1;
#X connect 7 0 8 0;
#X connect 8 0 4 0;
#X connect 9 0 17 0;
#X connect 10 0 11 0;
#X connect 10 1 12 0;
#X connect 10 2 13 0;
#X connect 10 3 14 0;
#X connect 10 4 19 0;
#X connect 10 5 20 0;
#X connect 10 6 21 0;
#X connect 10 7 22 0;
#X connect 10 8 23 0;
#X connect 10 9 24 0;
#X connect 10 10 25 0;
#X connect 10 11 26 0;
#X connect 10 12 27 0;
#X connect 10 13 28 0;
#X connect 10 14 29 0;
#X connect 10 15 30 0;
#X connect 10 16 15 0;
#X connect 11 0 16 0;
#X connect 12 0 16 0;
#X connect 13 0 16 0;
#X connect 14 0 16 0;
#X connect 15 0 16 0;
#X connect 18 0 6 0;
#X connect 19 0 16 0;
#X connect 20 0 16 0;
#X connect 21 0 16 0;
#X connect 22 0 16 0;
#X connect 23 0 16 0;
#X connect 24 0 16 0;
#X connect 25 0 16 0;
#X connect 26 0 16 0;
#X connect 27 0 16 0;
#X connect 28 0 16 0;
#X connect 29 0 16 0;
#X connect 30 0 16 0;
#X coords 0 -1 1 1 125 30 2 100 50;
#X restore -1 101 pd sync_source_interface;
#N canvas 563 464 461 198 add_del_loop-\$0 0;
#X msg 229 63 send /loop_del -1;
#X obj 28 80 bng 15 250 50 0 empty empty remove_last_loop 17 7 0 8
-258113 -1 -1;
#X obj 28 45 bng 15 250 50 0 empty empty add_mono_loop 17 7 0 8 -258113
-1 -1;
#X obj 28 25 bng 15 250 50 0 empty empty add_stereo_loop 17 7 0 8 -258113
-1 -1;
#X obj 148 25 nbx 3 14 4 360 0 1 empty empty secs 34 8 0 8 -258113
-1 -1 60 256;
#X msg 249 22 send /loop_add 2 \$1;
#X obj 148 45 nbx 3 14 4 360 0 1 empty empty secs 34 8 0 8 -258113
-1 -1 300 256;
#X msg 239 42 send /loop_add 1 \$1;
#X obj 277 103 s slOSCout;
#X obj 156 81 nbx 5 14 0 1e+37 0 0 empty SLloops loops 0 -8 0 8 -262144
-1 -1 10 256;
#X obj 91 -11 f;
#X obj 91 114 f;
#X connect 0 0 8 0;
#X connect 1 0 0 0;
#X connect 2 0 11 0;
#X connect 3 0 10 0;
#X connect 4 0 10 1;
#X connect 5 0 8 0;
#X connect 6 0 11 1;
#X connect 7 0 8 0;
#X connect 10 0 5 0;
#X connect 11 0 7 0;
#X coords 0 -1 1 1 200 80 2 20 20;
#X restore -1 11 pd add_del_loop-\$0;
#N canvas 284 42 515 686 save_page 0;
#X obj -72 590 spigot;
#X obj -39 571 tgl 15 0 empty empty empty 17 7 0 10 -262144 -1 -1 0
1;
#X text -14 572 set your filenames \, turn on the spigot. click on
messages one by one to send them.;
#X obj 19 469 cnv 15 400 100 empty empty empty 20 12 0 14 -233017 -66577
0;
#X obj -72 638 s slOSCout;
#X msg -72 20 5 /sl/-3/save_loop blah.wav format endian /errors/save_loop
;
#X msg 11 448 3 /save_session blank.sl /errors/save_session;
#X msg 24 474 3 /load_session blank.sl /errors/load_session;
#X msg -22 130 5 /sl/4/save_loop ses1-4.wav format endian /errors/save_loop
;
#X msg -12 150 5 /sl/5/save_loop ses1-5.wav format endian /errors/save_loop
;
#X obj -72 614 slOSCsender2;
#X msg -2 170 5 /sl/6/save_loop uke9-6.wav format endian /errors/save_loop
;
#X msg 8 190 5 /sl/7/save_loop uke9-7.wav format endian /errors/save_loop
;
#X msg 18 210 5 /sl/8/save_loop uke9-8.wav format endian /errors/save_loop
;
#X msg 28 230 5 /sl/9/save_loop uke9-9.wav format endian /errors/save_loop
;
#X msg 38 250 5 /sl/10/save_loop uke9-10.wav format endian /errors/save_loop
;
#X msg 48 280 5 /sl/11/save_loop uke9-11.wav format endian /errors/save_loop
;
#X msg 58 310 5 /sl/12/save_loop uke9-12.wav format endian /errors/save_loop
;
#X msg 31 499 3 /load_session goldfish.sl /errors/load_session;
#X msg 11 429 3 /save_session goldfishQUAD.sl /errors/save_session
;
#X msg 41 519 3 /load_session goldfishQUAD.sl /errors/load_session
;
#X msg 68 350 3 /sl/0/load_loop Rock-108-1a.wav /errors/load_loop;
#X msg 78 370 3 /sl/0/load_loop Eroc1a-120.wav /errors/load_loop;
#X msg -62 50 5 /sl/0/save_loop md1-0.wav format endian /errors/save_loop
;
#X msg -52 70 5 /sl/1/save_loop md1-1.wav format endian /errors/save_loop
;
#X msg -42 90 5 /sl/2/save_loop md1-2.wav format endian /errors/save_loop
;
#X msg -32 110 5 /sl/3/save_loop md1-3.wav format endian /errors/save_loop
;
#X connect 0 0 10 0;
#X connect 1 0 0 1;
#X connect 5 0 0 0;
#X connect 6 0 0 0;
#X connect 7 0 0 0;
#X connect 8 0 0 0;
#X connect 9 0 0 0;
#X connect 10 0 4 0;
#X connect 11 0 0 0;
#X connect 12 0 0 0;
#X connect 13 0 0 0;
#X connect 14 0 0 0;
#X connect 15 0 0 0;
#X connect 16 0 0 0;
#X connect 17 0 0 0;
#X connect 18 0 0 0;
#X connect 19 0 0 0;
#X connect 20 0 0 0;
#X connect 21 0 0 0;
#X connect 22 0 0 0;
#X connect 23 0 0 0;
#X connect 24 0 0 0;
#X connect 25 0 0 0;
#X connect 26 0 0 0;
#X restore 6 222 pd save_page;
