#N canvas 945 25 333 335 10;
#N canvas 627 284 570 325 OSCin 0;
#X text 103 34 SERVER;
#X obj -5 47 unpackOSC;
#X floatatom 52 84 10 0 0 1 millisecond_delay - -;
#X obj -5 84 pipelist;
#X obj -5 17 udpreceive 9950;
#X msg 96 51 192.168.75.151;
#X msg 96 17 set \$1.\$2.\$3.\$4;
#X text 205 22 OSC IN;
#X obj 94 136 print incomingOSC;
#X obj -5 109 routeOSC /updates;
#N canvas 353 186 838 479 processUpdates 0;
#X obj 5 4 inlet;
#X obj 5 181 routeOSC /eighth_per_cycle /smart_eighths;
#X obj 339 94 routeOSC /auto_disable_latency /output_midi_clock /use_midi_start
/use_midi_stop /send_midi_start_on_trigger;
#X obj 5 101 routeOSC /tempo /sync_source /selected_loop_num;
#X obj 5 261 routeOSC /input_gain /in_peak_meter;
#X obj 5 150 s SLtempo;
#X obj 5 126 unpack f s f;
#X obj 84 126 unpack f s f;
#X obj 84 150 s SLsync_source;
#X obj 181 126 unpack f s f;
#X obj 181 150 s SLselected_loop_num;
#X obj 5 373 unpack f s f;
#X obj 120 373 unpack f s f;
#X obj 200 373 unpack f s f;
#X obj 5 397 s SLout_peak_meter;
#X obj 200 397 s SLdry;
#X obj 120 397 s SLwet;
#X obj 5 288 unpack f s f;
#X obj 105 288 unpack f s f;
#X obj 5 312 s SLinput_gain;
#X obj 105 312 s SLin_peak_meter;
#X obj 5 208 unpack f s f;
#X obj 135 208 unpack f s f;
#X obj 5 232 s SLeighth_per_cycle;
#X obj 135 232 s SLsmart_eighths;
#X obj 339 196 print UNKNOWN_UPDATE;
#X obj 5 341 routeOSC /out_peak_meter /wet /dry /loops;
#X obj 280 397 s SLloops;
#X obj 280 373 unpack s s f;
#N canvas 368 25 873 690 current_channel_interface_messages 0;
#X obj 16 5 inlet;
#X obj 463 677 outlet;
#X obj 39 24 routeOSC /cycle_len /free_time /is_soloed /loop_len;
#X obj 41 93 routeOSC /loop_pos /next_state /pitch_shift /state;
#X obj 41 167 routeOSC /rate_output /stretch_ratio /total_time /waiting
;
#X obj 39 46 unpack f s f;
#X obj 39 70 s CCIcycle_len;
#X obj 129 46 unpack f s f;
#X obj 129 70 s CCIfree_time;
#X obj 219 46 unpack f s f;
#X obj 219 70 s CCIis_soloed;
#X obj 309 46 unpack f s f;
#X obj 309 70 s CCIloop_len;
#X obj 39 119 unpack f s f;
#X obj 129 119 unpack f s f;
#X obj 219 119 unpack f s f;
#X obj 309 119 unpack f s f;
#X obj 39 143 s CCIloop_pos;
#X obj 123 143 s CCInext_state;
#X obj 219 143 s CCIpitch_shift;
#X obj 322 143 s CCIstate;
#X obj 39 189 unpack f s f;
#X obj 129 189 unpack f s f;
#X obj 219 189 unpack f s f;
#X obj 309 189 unpack f s f;
#X obj 39 213 s CCIrate_output;
#X obj 140 213 s CCIstretch_ratio;
#X obj 253 213 s CCItotal_time;
#X obj 348 213 s CCIwaiting;
#X obj 39 261 unpack f s f;
#X obj 129 261 unpack f s f;
#X obj 219 261 unpack f s f;
#X obj 309 261 unpack f s f;
#X obj 39 335 unpack f s f;
#X obj 129 335 unpack f s f;
#X obj 219 335 unpack f s f;
#X obj 309 335 unpack f s f;
#X obj 39 405 unpack f s f;
#X obj 129 405 unpack f s f;
#X obj 219 405 unpack f s f;
#X obj 309 405 unpack f s f;
#X obj 39 285 s CCIrec_thresh;
#X obj 135 285 s CCIfeedback;
#X obj 219 285 s CCIuse_feedback_play;
#X obj 39 359 s CCIwet-3;
#X obj 41 309 routeOSC /wet-3 /rate /scratch_pos /delay_trigger;
#X obj 39 237 routeOSC /rec_thresh /feedback /use_feedback_play /dry-3
;
#X obj 358 285 s CCIdry-3;
#X obj 41 383 routeOSC /quantize /fade_samples /round /sync;
#X obj 39 429 s CCIquantize;
#X obj 128 429 s CCIfade_samples;
#X obj 241 429 s CCIround;
#X obj 327 429 s CCIsync;
#X obj 39 481 unpack f s f;
#X obj 129 481 unpack f s f;
#X obj 219 481 unpack f s f;
#X obj 309 481 unpack f s f;
#X obj 39 555 unpack f s f;
#X obj 129 555 unpack f s f;
#X obj 219 555 unpack f s f;
#X obj 39 625 unpack f s f;
#X obj 129 625 unpack f s f;
#X obj 219 625 unpack f s f;
#X obj 39 448 routeOSC /playback_sync /redo_is_tap /use_rate /tempo_stretch
;
#X obj 39 505 s CCIplayback_sync;
#X obj 153 505 s CCIredo_is_tap;
#X obj 255 505 s CCIuse_rate;
#X obj 339 505 s CCItempo_stretch;
#X obj 39 579 s CCIuse_common_ins;
#X obj 159 579 s CCIuse_common_outs;
#X obj 285 579 s CCIrelative_sync;
#X obj 41 603 routeOSC /input_latency /output_latency /trigger_latency
;
#X obj 459 55 unpack f s f;
#X obj 549 55 unpack f s f;
#X obj 639 55 unpack f s f;
#X obj 459 137 unpack f s f;
#X obj 549 137 unpack f s f;
#X obj 639 137 unpack f s f;
#X obj 461 29 routeOSC /autoset_latency /mute_quantized /replace_quantized
;
#X obj 39 649 s CCIinput_latency;
#X obj 154 649 s CCIoutput_latency;
#X obj 275 649 s CCItrigger_latency;
#X obj 459 79 s CCIautoset_latency;
#X obj 585 79 s CCImute_quantized;
#X obj 706 79 s CCIreplace_quantized;
#X obj 461 103 routeOSC /overdub_quantized /tempo_stretch /round_integer_tempo
;
#X obj 459 161 s CCIoverdub_quantized;
#X obj 598 161 s CCItempo_stretch;
#X obj 712 161 s CCIround_integer_tempo;
#X obj 41 529 routeOSC /use_common_ins /use_common_outs /relative_sync
;
#X obj 459 205 unpack f s f;
#X obj 549 205 unpack f s f;
#X obj 639 205 unpack f s f;
#X obj 729 205 unpack f s f;
#X obj 461 183 routeOSC /pan_1 /pan_2 /pan_3 /pan_4;
#X obj 459 229 s CCIpan_1;
#X obj 549 229 s CCIpan_2;
#X obj 639 229 s CCIpan_3;
#X obj 729 229 s CCIpan_4;
#X obj 123 359 s CCIrate;
#X obj 185 359 s CCIscratch_pos;
#X obj 288 359 s CCIdelay_trigger;
#X connect 0 0 2 0;
#X connect 2 0 5 0;
#X connect 2 1 7 0;
#X connect 2 2 9 0;
#X connect 2 3 11 0;
#X connect 2 4 3 0;
#X connect 3 0 13 0;
#X connect 3 1 14 0;
#X connect 3 2 15 0;
#X connect 3 3 16 0;
#X connect 3 4 4 0;
#X connect 4 0 21 0;
#X connect 4 1 22 0;
#X connect 4 2 23 0;
#X connect 4 3 24 0;
#X connect 4 4 46 0;
#X connect 5 2 6 0;
#X connect 7 2 8 0;
#X connect 9 2 10 0;
#X connect 11 2 12 0;
#X connect 13 2 17 0;
#X connect 14 2 18 0;
#X connect 15 2 19 0;
#X connect 16 2 20 0;
#X connect 21 2 25 0;
#X connect 22 2 26 0;
#X connect 23 2 27 0;
#X connect 24 2 28 0;
#X connect 29 2 41 0;
#X connect 30 2 42 0;
#X connect 31 2 43 0;
#X connect 32 2 47 0;
#X connect 33 2 44 0;
#X connect 34 2 99 0;
#X connect 35 2 100 0;
#X connect 36 2 101 0;
#X connect 37 2 49 0;
#X connect 38 2 50 0;
#X connect 39 2 51 0;
#X connect 40 2 52 0;
#X connect 45 0 33 0;
#X connect 45 1 34 0;
#X connect 45 2 35 0;
#X connect 45 3 36 0;
#X connect 45 4 48 0;
#X connect 46 0 29 0;
#X connect 46 1 30 0;
#X connect 46 2 31 0;
#X connect 46 3 32 0;
#X connect 46 4 45 0;
#X connect 48 0 37 0;
#X connect 48 1 38 0;
#X connect 48 2 39 0;
#X connect 48 3 40 0;
#X connect 48 4 63 0;
#X connect 53 2 64 0;
#X connect 54 2 65 0;
#X connect 55 2 66 0;
#X connect 56 2 67 0;
#X connect 57 2 68 0;
#X connect 58 2 69 0;
#X connect 59 2 70 0;
#X connect 60 2 79 0;
#X connect 61 2 80 0;
#X connect 62 2 81 0;
#X connect 63 0 53 0;
#X connect 63 1 54 0;
#X connect 63 2 55 0;
#X connect 63 3 56 0;
#X connect 63 4 89 0;
#X connect 71 0 60 0;
#X connect 71 1 61 0;
#X connect 71 2 62 0;
#X connect 71 3 78 0;
#X connect 72 2 82 0;
#X connect 73 2 83 0;
#X connect 74 2 84 0;
#X connect 75 2 86 0;
#X connect 76 2 87 0;
#X connect 77 2 88 0;
#X connect 78 0 72 0;
#X connect 78 1 73 0;
#X connect 78 2 74 0;
#X connect 78 3 85 0;
#X connect 85 0 75 0;
#X connect 85 1 76 0;
#X connect 85 2 77 0;
#X connect 85 3 94 0;
#X connect 89 0 57 0;
#X connect 89 1 58 0;
#X connect 89 2 59 0;
#X connect 89 3 71 0;
#X connect 90 2 95 0;
#X connect 91 2 96 0;
#X connect 92 2 97 0;
#X connect 93 2 98 0;
#X connect 94 0 90 0;
#X connect 94 1 91 0;
#X connect 94 2 92 0;
#X connect 94 3 93 0;
#X connect 94 4 1 0;
#X restore 339 170 pd current_channel_interface_messages;
#X obj 5 54 routeOSC /tap_tempo;
#X connect 0 0 30 0;
#X connect 1 0 21 0;
#X connect 1 1 22 0;
#X connect 1 2 4 0;
#X connect 2 5 29 0;
#X connect 3 0 6 0;
#X connect 3 1 7 0;
#X connect 3 2 9 0;
#X connect 3 3 1 0;
#X connect 4 0 17 0;
#X connect 4 1 18 0;
#X connect 4 2 26 0;
#X connect 6 2 5 0;
#X connect 7 2 8 0;
#X connect 9 2 10 0;
#X connect 11 2 14 0;
#X connect 12 2 16 0;
#X connect 13 2 15 0;
#X connect 17 2 19 0;
#X connect 18 2 20 0;
#X connect 21 2 23 0;
#X connect 22 2 24 0;
#X connect 26 0 11 0;
#X connect 26 1 12 0;
#X connect 26 2 13 0;
#X connect 26 3 28 0;
#X connect 26 4 2 0;
#X connect 28 2 27 0;
#X connect 29 0 25 0;
#X connect 30 1 3 0;
#X restore -5 166 pd processUpdates;
#X connect 1 0 3 0;
#X connect 1 1 2 0;
#X connect 1 1 3 1;
#X connect 3 0 9 0;
#X connect 4 0 1 0;
#X connect 4 1 6 0;
#X connect 6 0 5 0;
#X connect 9 0 10 0;
#X connect 9 1 8 0;
#X coords 0 -1 1 1 125 25 2 200 20;
#X restore 166 103 pd OSCin;
#N canvas 20 286 381 270 OSCout 0;
#X obj 131 10 inlet;
#X obj 131 35 packOSC;
#X floatatom 170 58 5 0 0 0 - - -;
#X text 204 59 bundle depth;
#X obj 48 151 bng 15 250 50 0 empty empty connect 20 7 0 8 -258113
-1 -1;
#X obj 47 120 tgl 15 0 empty empty connected 20 7 0 8 -4034 -45076
-1 1 1;
#X obj 48 169 bng 15 250 50 0 empty empty disconnect 20 7 0 8 -258113
-1 -1;
#X text 44 100 OSC OUT;
#X obj 131 220 udpsend;
#X obj 80 73 select 1;
#X obj 35 35 print OSCOUT;
#N canvas 66 60 332 451 do_after_connect 0;
#X obj 7 8 inlet;
#X obj 7 361 outlet;
#N canvas 452 34 702 583 global_register_update 0;
#X obj 17 18 inlet;
#X msg 233 70 3 /register_update tempo /updates/tempo;
#X msg 243 90 3 /register_update sync_source /updates/sync_source;
#X msg 263 143 3 /register_update tap_tempo /updates/tap_tempo;
#X msg 273 163 3 /register_update wet /updates/wet;
#X msg 283 183 3 /register_update dry /updates/dry;
#X msg 293 203 3 /register_update input_gain /updates/input_gain;
#X msg 303 223 3 /register_update auto_disable_latency /updates/auto_disable_latency
;
#X msg 313 256 3 /register_update output_midi_clock /updates/output_midi_clock
;
#X msg 323 289 3 /register_update use_midi_stop /updates/use_midi_stop
;
#X msg 333 309 3 /register_update use_midi_start /updates/use_midi_start
;
#X msg 343 329 3 /register_update send_midi_start_on_trigger /updates/send_midi_start_on_trigger
;
#X msg 353 362 3 /register_update smart_eighths /updates/smart_eighths
;
#X msg 253 110 3 /register_update eighth_per_cycle /updates/eighth_per_cycle
;
#X msg 383 448 3 /register_auto_update out_peak_meter /updates/out_peak_meter
;
#X msg 393 481 2 /register /updates/loops;
#X msg 373 415 4 /register_auto_update in_peak_meter 100 /updates/in_peak_meter
;
#X obj 23 538 outlet;
#X msg 363 382 4 /register_auto_update selected_loop_num 100 /updates/selected_loop_num
;
#X connect 0 0 1 0;
#X connect 0 0 2 0;
#X connect 0 0 16 0;
#X connect 0 0 14 0;
#X connect 0 0 18 0;
#X connect 0 0 15 0;
#X connect 0 0 12 0;
#X connect 0 0 11 0;
#X connect 0 0 10 0;
#X connect 0 0 9 0;
#X connect 0 0 8 0;
#X connect 0 0 7 0;
#X connect 0 0 6 0;
#X connect 0 0 5 0;
#X connect 0 0 4 0;
#X connect 0 0 3 0;
#X connect 0 0 13 0;
#X connect 1 0 17 0;
#X connect 2 0 17 0;
#X connect 3 0 17 0;
#X connect 4 0 17 0;
#X connect 5 0 17 0;
#X connect 6 0 17 0;
#X connect 7 0 17 0;
#X connect 8 0 17 0;
#X connect 9 0 17 0;
#X connect 10 0 17 0;
#X connect 11 0 17 0;
#X connect 12 0 17 0;
#X connect 13 0 17 0;
#X connect 14 0 17 0;
#X connect 15 0 17 0;
#X connect 16 0 17 0;
#X connect 18 0 17 0;
#X restore 7 90 pd global_register_update;
#N canvas 13 47 755 577 global_get_update 0;
#X obj 17 18 inlet;
#X msg 373 100 3 /get tempo /updates/tempo;
#X msg 373 120 3 /get sync_source /updates/sync_source;
#X msg 373 140 3 /get eighth_per_cycle /updates/eighth_per_cycle;
#X msg 373 160 3 /get wet /updates/wet;
#X msg 373 180 3 /get dry /updates/dry;
#X msg 373 200 3 /get input_gain /updates/input_gain;
#X msg 373 220 3 /get auto_disable_latency /updates/auto_disable_latency
;
#X msg 373 240 3 /get output_midi_clock /updates/output_midi_clock
;
#X msg 373 260 3 /get use_midi_stop /updates/use_midi_stop;
#X msg 373 280 3 /get use_midi_start /updates/use_midi_start;
#X msg 373 300 3 /get send_midi_start_on_trigger /updates/send_midi_start_on_trigger
;
#X msg 373 333 3 /get smart_eighths /updates/smart_eighths;
#X msg 373 353 3 /get selected_loop_num /updates/selected_loop_num
;
#X msg 373 373 3 /get in_peak_meter /updates/in_peak_meter;
#X msg 373 393 3 /get out_peak_meter /updates/out_peak_meter;
#X obj 18 538 outlet;
#X connect 0 0 1 0;
#X connect 0 0 2 0;
#X connect 0 0 3 0;
#X connect 0 0 4 0;
#X connect 0 0 5 0;
#X connect 0 0 6 0;
#X connect 0 0 7 0;
#X connect 0 0 8 0;
#X connect 0 0 9 0;
#X connect 0 0 10 0;
#X connect 0 0 11 0;
#X connect 0 0 12 0;
#X connect 0 0 13 0;
#X connect 0 0 14 0;
#X connect 0 0 15 0;
#X connect 1 0 16 0;
#X connect 2 0 16 0;
#X connect 3 0 16 0;
#X connect 4 0 16 0;
#X connect 5 0 16 0;
#X connect 6 0 16 0;
#X connect 7 0 16 0;
#X connect 8 0 16 0;
#X connect 9 0 16 0;
#X connect 10 0 16 0;
#X connect 11 0 16 0;
#X connect 12 0 16 0;
#X connect 13 0 16 0;
#X connect 14 0 16 0;
#X connect 15 0 16 0;
#X restore 29 114 pd global_get_update;
#X obj 7 338 slOSCsender2;
#X connect 0 0 2 0;
#X connect 0 0 3 0;
#X connect 2 0 4 0;
#X connect 3 0 4 0;
#X connect 4 0 1 0;
#X restore 225 120 pd do_after_connect;
#N canvas 0 0 450 300 do_after_disconnect 0;
#X obj 3 5 inlet;
#X restore 225 159 pd do_after_disconnect;
#N canvas 0 0 450 300 do_before_connect 0;
#X obj 15 15 inlet;
#X obj 15 276 outlet;
#X msg 15 143 connect 127.0.0.1 9951;
#X connect 0 0 2 0;
#X connect 2 0 1 0;
#X restore 225 100 pd do_before_connect;
#N canvas 383 311 528 387 do_before_disconnect 0;
#X obj 57 244 outlet;
#X msg 57 194 disconnect;
#X obj 158 244 outlet;
#X obj 158 21 inlet;
#N canvas 0 0 730 575 global_unregister_update 0;
#X obj 18 16 inlet;
#X msg 234 68 3 /unregister_update tempo /updates/tempo;
#X msg 244 88 3 /unregister_update sync_source /updates/sync_source
;
#X msg 254 108 3 /unregister_update eighth_per_cycle /updates/eighth_per_cycle
;
#X msg 264 141 3 /unregister_update tap_tempo /updates/tap_tempo;
#X msg 274 161 3 /unregister_update wet /updates/wet;
#X msg 284 181 3 /unregister_update dry /updates/dry;
#X msg 294 201 3 /unregister_update input_gain /updates/input_gain
;
#X msg 304 221 3 /unregister_update auto_disable_latency /updates/auto_disable_latency
;
#X msg 314 254 3 /unregister_update output_midi_clock /updates/output_midi_clock
;
#X msg 324 287 3 /unregister_update use_midi_stop /updates/use_midi_stop
;
#X msg 334 307 3 /unregister_update use_midi_start /updates/use_midi_start
;
#X msg 344 327 3 /unregister_update send_midi_start_on_trigger /updates/send_midi_start_on_trigger
;
#X msg 354 360 3 /unregister_update smart_eighths /updates/smart_eighths
;
#X msg 364 380 3 /unregister_update selected_loop_num /updates/selected_loop_num
;
#X msg 374 413 3 /unregister_auto_update in_peak_meter /updates/in_peak_meter
;
#X msg 384 446 3 /unregister_auto_update out_peak_meter /updates/out_peak_meter
;
#X obj 24 536 outlet;
#X connect 0 0 1 0;
#X connect 0 0 2 0;
#X connect 0 0 15 0;
#X connect 0 0 16 0;
#X connect 0 0 14 0;
#X connect 0 0 13 0;
#X connect 0 0 12 0;
#X connect 0 0 11 0;
#X connect 0 0 10 0;
#X connect 0 0 9 0;
#X connect 0 0 8 0;
#X connect 0 0 7 0;
#X connect 0 0 6 0;
#X connect 0 0 5 0;
#X connect 0 0 4 0;
#X connect 0 0 3 0;
#X connect 1 0 17 0;
#X connect 2 0 17 0;
#X connect 3 0 17 0;
#X connect 4 0 17 0;
#X connect 5 0 17 0;
#X connect 6 0 17 0;
#X connect 7 0 17 0;
#X connect 8 0 17 0;
#X connect 9 0 17 0;
#X connect 10 0 17 0;
#X connect 11 0 17 0;
#X connect 12 0 17 0;
#X connect 13 0 17 0;
#X connect 14 0 17 0;
#X connect 15 0 17 0;
#X connect 16 0 17 0;
#X restore 158 194 pd global_unregister_update;
#X obj 170 45 s disable_monitors_current;
#X obj 158 219 slOSCsender2;
#X connect 1 0 0 0;
#X connect 3 0 1 0;
#X connect 3 0 4 0;
#X connect 3 0 5 0;
#X connect 4 0 6 0;
#X connect 6 0 2 0;
#X restore 225 140 pd do_before_disconnect;
#X obj 169 10 r slOSCout;
#X connect 0 0 1 0;
#X connect 1 0 8 0;
#X connect 1 1 2 0;
#X connect 4 0 13 0;
#X connect 5 0 9 0;
#X connect 6 0 14 0;
#X connect 8 0 5 0;
#X connect 9 0 11 0;
#X connect 9 1 12 0;
#X connect 11 0 1 0;
#X connect 13 0 8 0;
#X connect 14 0 8 0;
#X connect 14 1 1 0;
#X connect 15 0 1 0;
#X coords 0 -1 1 1 125 90 2 40 100;
#X restore 166 6 pd OSCout;
#N canvas 719 464 461 198 add_del_loop-\$0 0;
#X msg 229 63 send /loop_del -1;
#X obj 28 80 bng 15 250 50 0 empty empty remove_last_loop 17 7 0 8
-258113 -1 -1;
#X obj 28 45 bng 15 250 50 0 empty empty add_mono_loop 17 7 0 8 -258113
-1 -1;
#X obj 28 25 bng 15 250 50 0 empty empty add_stereo_loop 17 7 0 8 -258113
-1 -1;
#X obj 148 25 nbx 3 14 4 360 0 1 empty empty secs 34 8 0 8 -258113
-1 -1 60 256;
#X msg 249 22 send /loop_add 2 \$1;
#X obj 148 45 nbx 3 14 4 360 0 1 empty empty secs 34 8 0 8 -258113
-1 -1 120 256;
#X msg 239 42 send /loop_add 1 \$1;
#X obj 277 103 s slOSCout;
#X obj 156 81 nbx 5 14 0 1e+37 0 0 empty SLloops loops 0 -8 0 8 -262144
-1 -1 13 256;
#X obj 91 -11 f;
#X obj 91 114 f;
#X connect 0 0 8 0;
#X connect 1 0 0 0;
#X connect 2 0 11 0;
#X connect 3 0 10 0;
#X connect 4 0 10 1;
#X connect 5 0 8 0;
#X connect 6 0 11 1;
#X connect 7 0 8 0;
#X connect 10 0 5 0;
#X connect 11 0 7 0;
#X coords 0 -1 1 1 200 80 2 20 20;
#X restore 51 136 pd add_del_loop-\$0;
#N canvas 221 240 415 321 sync_interface 0;
#N canvas 704 25 574 562 sync_source_interface 0;
#X obj 111 63 nbx 2 14 -3 128 0 0 empty SLsync_source sync_source 0
-8 0 8 -262144 -1 -1 1 256;
#X obj 203 63 bng 15 250 50 0 empty empty empty -46 7 0 8 -258113 -1
-1;
#X symbolatom 138 62 10 0 0 0 - SLsync_source_message -;
#X obj 241 85 + 1;
#X obj 203 85 f;
#X obj 241 107 moses 1;
#X obj 280 85 + 1;
#X obj 280 129 bng 15 250 50 0 empty empty empty 17 7 0 10 -262144
-1 -1;
#X msg 280 148 -4;
#X msg 241 171 send /set sync_source \$1;
#X obj -112 101 select -3 -2 -1 0 1 2 3 4 5 6 7 8 9 10 11 12;
#X msg -112 465 set Internal;
#X msg -96 445 set Midi;
#X msg -80 425 set Jack;
#X msg -64 405 set None;
#X msg -31 365 set Loop2;
#X msg -47 385 set Loop1;
#X msg -15 345 set Loop3;
#X msg 2 325 set Loop4;
#X msg 18 305 set Loop5;
#X msg 34 285 set Loop6;
#X msg 51 265 set Loop7;
#X msg 67 245 set Loop8;
#X msg 83 225 set Loop9;
#X msg 100 205 set Loop10;
#X msg 116 185 set Loop11;
#X msg 132 165 set Loop12;
#X msg 149 145 set MOARLOOPS;
#X obj 200 509 s SLsync_source_message;
#X obj 241 194 s slOSCout;
#X obj 280 67 nbx 5 14 0 1e+37 0 0 empty SLloops loops 0 -8 0 8 -262144
-1 -1 13 256;
#X connect 0 0 10 0;
#X connect 1 0 4 0;
#X connect 3 0 4 1;
#X connect 3 0 5 0;
#X connect 4 0 3 0;
#X connect 5 0 9 0;
#X connect 5 1 7 0;
#X connect 6 0 5 1;
#X connect 7 0 8 0;
#X connect 8 0 4 0;
#X connect 9 0 29 0;
#X connect 10 0 11 0;
#X connect 10 1 12 0;
#X connect 10 2 13 0;
#X connect 10 3 14 0;
#X connect 10 4 16 0;
#X connect 10 5 15 0;
#X connect 10 6 17 0;
#X connect 10 7 18 0;
#X connect 10 8 19 0;
#X connect 10 9 20 0;
#X connect 10 10 21 0;
#X connect 10 11 22 0;
#X connect 10 12 23 0;
#X connect 10 13 24 0;
#X connect 10 14 25 0;
#X connect 10 15 26 0;
#X connect 10 16 27 0;
#X connect 11 0 28 0;
#X connect 12 0 28 0;
#X connect 13 0 28 0;
#X connect 14 0 28 0;
#X connect 15 0 28 0;
#X connect 16 0 28 0;
#X connect 17 0 28 0;
#X connect 18 0 28 0;
#X connect 19 0 28 0;
#X connect 20 0 28 0;
#X connect 21 0 28 0;
#X connect 22 0 28 0;
#X connect 23 0 28 0;
#X connect 24 0 28 0;
#X connect 25 0 28 0;
#X connect 26 0 28 0;
#X connect 27 0 28 0;
#X connect 30 0 6 0;
#X coords 0 -1 1 1 125 30 2 100 50;
#X restore 25 101 pd sync_source_interface;
#X obj 55 51 nbx 3 14 0 1e+37 0 0 empty SLeighths_per_cycle 8th/cycle
0 -8 0 8 -262144 -1 -1 0 256;
#X obj 45 76 tgl 15 0 empty SLsmart_eighths auto_8th 17 7 0 8 -262144
-1 -1 1 1;
#X obj 331 285 s slOSCout;
#X msg 151 197 send /set smart_eighths \$1;
#X obj 115 76 bng 15 250 50 0 empty empty empty -46 7 0 8 -258113 -1
-1;
#X obj 151 154 + 1;
#X obj 113 154 float;
#X obj 151 176 mod 2;
#X obj 91 51 nbx 3 14 0 64 0 0 empty empty empty 0 -8 0 8 -258113 -1
-1 0 256;
#X msg 189 15 4;
#X msg 219 15 8;
#X msg 249 15 16;
#X msg 279 15 32;
#X msg 184 80 send /set eighth_per_cycle \$1;
#X obj 33 14 bng 20 250 50 0 empty empty 4 7 11 0 8 -258113 -1 -1;
#X obj 63 14 bng 20 250 50 0 empty empty 8 7 11 0 8 -258113 -1 -1;
#X obj 93 14 bng 20 250 50 0 empty empty 16 4 11 0 8 -258113 -1 -1
;
#X obj 123 14 bng 20 250 50 0 empty empty 32 4 11 0 8 -258113 -1 -1
;
#X connect 4 0 3 0;
#X connect 5 0 7 0;
#X connect 6 0 7 1;
#X connect 6 0 8 0;
#X connect 7 0 6 0;
#X connect 8 0 4 0;
#X connect 9 0 14 0;
#X connect 10 0 9 0;
#X connect 11 0 9 0;
#X connect 12 0 9 0;
#X connect 13 0 9 0;
#X connect 14 0 3 0;
#X connect 15 0 10 0;
#X connect 16 0 11 0;
#X connect 17 0 12 0;
#X connect 18 0 13 0;
#X coords 0 -1 1 1 135 125 2 20 10;
#X restore -9 6 pd sync_interface;
#X obj -16 224 cnv 15 320 60 empty empty empty 20 12 0 14 -257985 -66577
0;
#X text -9 237 emOSCulator - puredata sooperlooper interface;
#X text -10 257 controls are in red - changing other items can have
unexpected results;
#N canvas 29 117 592 542 loop_interfaces 0;
#N canvas 371 25 894 600 current_loop_interface 0;
#X obj 153 74 nbx 3 14 0 512 0 0 empty SLselected_loop_num selected_loop
33 7 0 8 -262144 -1 -1 9 256;
#X obj 710 527 slOSCsender2;
#N canvas 31 40 1108 473 register_auto_update_current 0;
#X obj 8 69 inlet;
#X obj 8 228 outlet;
#X msg 273 48 4 /sl/-3/register_auto_update next_state 100 /updates/next_state
;
#X msg 263 81 4 /sl/-3/register_auto_update loop_pos 100 /updates/loop_pos
;
#X msg 244 122 4 /sl/-3/register_auto_update cycle_len 100 /updates/cycle_len
;
#X msg 234 155 4 /sl/-3/register_auto_update free_time 100 /updates/free_time
;
#X msg 214 221 4 /sl/-3/register_auto_update waiting 100 /updates/waiting
;
#X msg 204 241 4 /sl/-3/register_auto_update rate_output 100 /updates/rate_output
;
#X msg 194 275 4 /sl/-3/register_auto_update in_peak_meter 100 /updates/in_peak_meter
;
#X msg 184 308 4 /sl/-3/register_auto_update out_peak_meter 100 /updates/out_peak_meter
;
#X msg 164 374 4 /sl/-3/register_auto_update stretch_ratio 100 /updates/stretch_ratio
;
#X msg 154 407 4 /sl/-3/register_auto_update pitch_shift 100 /updates/pitch_shift
;
#X msg 174 341 4 /sl/-3/register_auto_update is_soloed 100 /updates/is_soloed
;
#X msg 224 188 4 /sl/-3/register_auto_update total_time 100 /updates/total_time
;
#X msg 254 102 4 /sl/-3/register_auto_update loop_len 100 /updates/loop_len
;
#X msg 283 28 4 /sl/-3/register_auto_update state 100 /updates/state
;
#X msg 813 158 3 /sl/-3/get state /updates/state;
#X msg 803 178 3 /sl/-3/get next_state /updates/next_state;
#X msg 793 197 3 /sl/-3/get loop_pos /updates/loop_pos;
#X msg 784 218 3 /sl/-3/get loop_len /updates/loop_len;
#X msg 774 238 3 /sl/-3/get cycle_len /updates/cycle_len;
#X msg 764 257 3 /sl/-3/get free_time /updates/free_time;
#X msg 754 276 3 /sl/-3/get total_time /updates/total_time;
#X msg 744 295 3 /sl/-3/get waiting /updates/waiting;
#X msg 734 315 3 /sl/-3/get rate_output /updates/rate_output;
#X msg 724 335 3 /sl/-3/get in_peak_meter /updates/in_peak_meter;
#X msg 714 355 3 /sl/-3/get out_peak_meter /updates/out_peak_meter
;
#X msg 704 375 3 /sl/-3/get is_soloed /updates/is_soloed;
#X msg 694 395 3 /sl/-3/get stretch_ratio /updates/stretch_ratio;
#X msg 684 415 3 /sl/-3/get pitch_shift /updates/pitch_shift;
#X connect 0 0 15 0;
#X connect 0 0 2 0;
#X connect 0 0 3 0;
#X connect 0 0 14 0;
#X connect 0 0 4 0;
#X connect 0 0 5 0;
#X connect 0 0 13 0;
#X connect 0 0 6 0;
#X connect 0 0 7 0;
#X connect 0 0 8 0;
#X connect 0 0 9 0;
#X connect 0 0 12 0;
#X connect 0 0 10 0;
#X connect 0 0 11 0;
#X connect 0 0 16 0;
#X connect 0 0 17 0;
#X connect 0 0 18 0;
#X connect 0 0 19 0;
#X connect 0 0 20 0;
#X connect 0 0 21 0;
#X connect 0 0 22 0;
#X connect 0 0 23 0;
#X connect 0 0 24 0;
#X connect 0 0 25 0;
#X connect 0 0 26 0;
#X connect 0 0 27 0;
#X connect 0 0 28 0;
#X connect 0 0 29 0;
#X connect 2 0 1 0;
#X connect 3 0 1 0;
#X connect 4 0 1 0;
#X connect 5 0 1 0;
#X connect 6 0 1 0;
#X connect 7 0 1 0;
#X connect 8 0 1 0;
#X connect 9 0 1 0;
#X connect 10 0 1 0;
#X connect 11 0 1 0;
#X connect 12 0 1 0;
#X connect 13 0 1 0;
#X connect 14 0 1 0;
#X connect 15 0 1 0;
#X connect 16 0 1 0;
#X connect 17 0 1 0;
#X connect 18 0 1 0;
#X connect 19 0 1 0;
#X connect 20 0 1 0;
#X connect 21 0 1 0;
#X connect 22 0 1 0;
#X connect 23 0 1 0;
#X connect 24 0 1 0;
#X connect 25 0 1 0;
#X connect 26 0 1 0;
#X connect 27 0 1 0;
#X connect 28 0 1 0;
#X connect 29 0 1 0;
#X restore 630 493 pd register_auto_update_current;
#X obj 24 73 tgl 15 0 empty empty enable_monitors 17 7 0 8 -258113
-1 -1 0 1;
#X obj 630 335 select 1;
#N canvas 533 40 685 503 unregister_auto_update_current 0;
#X obj 8 69 inlet;
#X obj 8 228 outlet;
#X msg 273 108 3 /sl/-3/unregister_auto_update next_state /updates/next_state
;
#X msg 263 141 3 /sl/-3/unregister_auto_update loop_pos /updates/loop_pos
;
#X msg 244 182 3 /sl/-3/unregister_auto_update cycle_len /updates/cycle_len
;
#X msg 234 202 3 /sl/-3/unregister_auto_update free_time /updates/free_time
;
#X msg 214 255 3 /sl/-3/unregister_auto_update waiting /updates/waiting
;
#X msg 204 275 3 /sl/-3/unregister_auto_update rate_output /updates/rate_output
;
#X msg 194 309 3 /sl/-3/unregister_auto_update in_peak_meter /updates/in_peak_meter
;
#X msg 184 342 3 /sl/-3/unregister_auto_update out_peak_meter /updates/out_peak_meter
;
#X msg 164 395 3 /sl/-3/unregister_auto_update stretch_ratio /updates/stretch_ratio
;
#X msg 154 428 3 /sl/-3/unregister_auto_update pitch_shift /updates/pitch_shift
;
#X msg 283 88 3 /sl/-3/unregister_auto_update state /updates/state
;
#X msg 254 162 3 /sl/-3/unregister_auto_update loop_len /updates/loop_len
;
#X msg 224 222 3 /sl/-3/unregister_auto_update total_time /updates/total_time
;
#X msg 174 375 3 /sl/-3/unregister_auto_update is_soloed /updates/is_soloed
;
#X connect 0 0 12 0;
#X connect 0 0 2 0;
#X connect 0 0 3 0;
#X connect 0 0 13 0;
#X connect 0 0 4 0;
#X connect 0 0 5 0;
#X connect 0 0 14 0;
#X connect 0 0 6 0;
#X connect 0 0 7 0;
#X connect 0 0 8 0;
#X connect 0 0 9 0;
#X connect 0 0 15 0;
#X connect 0 0 10 0;
#X connect 0 0 11 0;
#X connect 2 0 1 0;
#X connect 3 0 1 0;
#X connect 4 0 1 0;
#X connect 5 0 1 0;
#X connect 6 0 1 0;
#X connect 7 0 1 0;
#X connect 8 0 1 0;
#X connect 9 0 1 0;
#X connect 10 0 1 0;
#X connect 11 0 1 0;
#X connect 12 0 1 0;
#X connect 13 0 1 0;
#X connect 14 0 1 0;
#X connect 15 0 1 0;
#X restore 630 416 pd unregister_auto_update_current;
#X obj 10 16 r disable_monitors_current;
#X msg 10 36 set 0;
#X obj 630 566 s slOSCout;
#X obj 24 112 nbx 5 14 0 1e+37 0 0 empty CCIcycle_len cycle_len 0 -8
0 8 -262144 -1 -1 32.2867 256;
#X obj 24 142 nbx 5 14 0 1e+37 0 0 empty CCIfree_time free_time 0 -8
0 8 -262144 -1 -1 190.218 256;
#X obj 274 172 nbx 5 14 0 1e+37 0 0 empty CCIis_soloed is_soloed 0
-8 0 8 -262144 -1 -1 0 256;
#X obj 274 112 nbx 5 14 0 1e+37 0 0 empty CCIloop_len loop_len 0 -8
0 8 -262144 -1 -1 32.2867 256;
#X obj 274 142 nbx 5 14 0 1e+37 0 0 empty CCIloop_pos loop_pos 0 -8
0 8 -262144 -1 -1 2.64633 256;
#X obj 620 154 nbx 5 14 0 1e+37 0 0 empty CCInext_state next_state
0 -8 0 8 -262144 -1 -1 0 256;
#X obj 104 142 nbx 5 14 0 1e+37 0 0 empty CCIpitch_shift pitch_shift
0 -8 0 8 -262144 -1 -1 0 256;
#X obj 620 102 nbx 5 14 0 1e+37 0 0 empty CCIstate state 0 -8 0 8 -262144
-1 -1 4 256;
#X obj 194 112 nbx 5 14 0 1e+37 0 0 empty CCIrate_output rate_output
0 -8 0 8 -262144 -1 -1 1 256;
#X obj 104 112 nbx 5 14 0 1e+37 0 0 empty CCIstretch_ratio stretch_ratio
0 -8 0 8 -262144 -1 -1 1 256;
#X obj 194 142 nbx 5 14 0 1e+37 0 0 empty CCItotal_time total_time
0 -8 0 8 -262144 -1 -1 190.218 256;
#X obj 494 92 nbx 5 14 0 1e+37 0 0 empty CCIwaiting waiting 0 -8 0
8 -262144 -1 -1 0 256;
#X symbolatom 494 152 12 0 0 2 next_state - -;
#N canvas 0 0 488 522 parse_state 0;
#X obj 72 26 inlet;
#X obj 72 56 select -1 0 1 2 3 4 5 6 7 8 9 10 11 12 13 14;
#X msg 72 420 set Unknown;
#X msg 88 400 set Off;
#X msg 104 380 set WaitStart;
#X msg 120 360 set Recording;
#X msg 137 340 set WaitStop;
#X msg 153 320 set Playing;
#X msg 169 300 set Overdubbing;
#X msg 186 280 set Multiplying;
#X msg 202 260 set Inserting;
#X msg 218 240 set Replacing;
#X msg 235 220 set Delay;
#X msg 251 200 set Muted;
#X msg 267 180 set Scratching;
#X msg 284 160 set OneShot;
#X msg 300 140 set Substitute;
#X msg 316 120 set Paused;
#X msg 333 100 set Unknown2;
#X obj 384 464 outlet;
#X connect 0 0 1 0;
#X connect 1 0 2 0;
#X connect 1 1 3 0;
#X connect 1 2 4 0;
#X connect 1 3 5 0;
#X connect 1 4 6 0;
#X connect 1 5 7 0;
#X connect 1 6 8 0;
#X connect 1 7 9 0;
#X connect 1 8 10 0;
#X connect 1 9 11 0;
#X connect 1 10 12 0;
#X connect 1 11 13 0;
#X connect 1 12 14 0;
#X connect 1 13 15 0;
#X connect 1 14 16 0;
#X connect 1 15 17 0;
#X connect 1 16 18 0;
#X connect 2 0 19 0;
#X connect 3 0 19 0;
#X connect 4 0 19 0;
#X connect 5 0 19 0;
#X connect 6 0 19 0;
#X connect 7 0 19 0;
#X connect 8 0 19 0;
#X connect 9 0 19 0;
#X connect 10 0 19 0;
#X connect 11 0 19 0;
#X connect 12 0 19 0;
#X connect 13 0 19 0;
#X connect 14 0 19 0;
#X connect 15 0 19 0;
#X connect 16 0 19 0;
#X connect 17 0 19 0;
#X connect 18 0 19 0;
#X restore 620 121 pd parse_state;
#N canvas 0 0 488 522 parse_next_state 0;
#X obj 72 36 inlet;
#X obj 72 66 select -1 0 1 2 3 4 5 6 7 8 9 10 11 12 13 14;
#X msg 72 430 set Unknown;
#X msg 88 410 set Off;
#X msg 104 390 set WaitStart;
#X msg 120 370 set Recording;
#X msg 137 350 set WaitStop;
#X msg 153 330 set Playing;
#X msg 169 310 set Overdubbing;
#X msg 186 290 set Multiplying;
#X msg 202 270 set Inserting;
#X msg 218 250 set Replacing;
#X msg 235 230 set Delay;
#X msg 251 210 set Muted;
#X msg 267 190 set Scratching;
#X msg 284 170 set OneShot;
#X msg 300 150 set Substitute;
#X msg 316 130 set Paused;
#X msg 333 110 set Unknown2;
#X obj 384 474 outlet;
#X connect 0 0 1 0;
#X connect 1 0 2 0;
#X connect 1 1 3 0;
#X connect 1 2 4 0;
#X connect 1 3 5 0;
#X connect 1 4 6 0;
#X connect 1 5 7 0;
#X connect 1 6 8 0;
#X connect 1 7 9 0;
#X connect 1 8 10 0;
#X connect 1 9 11 0;
#X connect 1 10 12 0;
#X connect 1 11 13 0;
#X connect 1 12 14 0;
#X connect 1 13 15 0;
#X connect 1 14 16 0;
#X connect 1 15 17 0;
#X connect 1 16 18 0;
#X connect 2 0 19 0;
#X connect 3 0 19 0;
#X connect 4 0 19 0;
#X connect 5 0 19 0;
#X connect 6 0 19 0;
#X connect 7 0 19 0;
#X connect 8 0 19 0;
#X connect 9 0 19 0;
#X connect 10 0 19 0;
#X connect 11 0 19 0;
#X connect 12 0 19 0;
#X connect 13 0 19 0;
#X connect 14 0 19 0;
#X connect 15 0 19 0;
#X connect 16 0 19 0;
#X connect 17 0 19 0;
#X connect 18 0 19 0;
#X restore 620 173 pd parse_next_state;
#X symbolatom 494 122 12 0 0 2 state - -;
#N canvas 30 25 634 700 SLcommand_buttons 0;
#X obj 22 20 bng 20 250 50 0 empty empty RECORD 22 10 0 10 -258113
-1 -1;
#X obj 22 50 bng 20 250 50 0 empty empty OVERDUB 22 10 0 10 -258113
-1 -1;
#X obj 22 115 bng 20 250 50 0 empty empty MULTIPLY 22 10 0 10 -258113
-1 -1;
#X obj 22 80 bng 20 250 50 0 empty empty INSERT 22 10 0 10 -258113
-1 -1;
#X obj 102 20 bng 20 250 50 0 empty empty REPLACE 22 10 0 10 -258113
-1 -1;
#X obj 102 50 bng 20 250 50 0 empty empty REVERSE 22 10 0 10 -258113
-1 -1;
#X obj 122 115 bng 20 250 50 0 empty empty MUTE 22 10 0 10 -258113
-1 -1;
#X obj 302 20 bng 20 250 50 0 empty empty UNDO 22 10 0 10 -258113 -1
-1;
#X obj 302 50 bng 20 250 50 0 empty empty REDO 22 10 0 10 -258113 -1
-1;
#X obj 212 20 bng 20 250 50 0 empty empty ONESHOT 22 10 0 10 -258113
-1 -1;
#X obj 212 50 bng 20 250 50 0 empty empty TRIGGER 22 10 0 10 -258113
-1 -1;
#X obj 102 80 bng 20 250 50 0 empty empty SUBSTITUTE 22 10 0 10 -258113
-1 -1;
#X obj 362 20 bng 20 250 50 0 empty empty UNDO_ALL 22 10 0 10 -258113
-1 -1;
#X obj 362 50 bng 20 250 50 0 empty empty REDO_ALL 22 10 0 10 -258113
-1 -1;
#X obj 322 250 bng 20 250 50 0 empty empty MUTE_ON 22 10 0 10 -258113
-1 -1;
#X obj 322 280 bng 20 250 50 0 empty empty MUTE_OFF 22 10 0 10 -258113
-1 -1;
#X obj 272 115 bng 20 250 50 0 empty empty SOLO 22 10 0 10 -258113
-1 -1;
#X obj 192 115 bng 20 250 50 0 empty empty PAUSE 22 10 0 10 -258113
-1 -1;
#X obj 32 250 bng 20 250 50 0 empty empty SOLO_NEXT 22 10 0 10 -258113
-1 -1;
#X obj 142 280 bng 20 250 50 0 empty empty RECORD_SOLO_PREV 22 10 0
10 -258113 -1 -1;
#X obj 32 280 bng 20 250 50 0 empty empty SOLO_PREV 22 10 0 10 -258113
-1 -1;
#X obj 142 220 bng 20 250 50 0 empty empty RECORD_SOLO 22 10 0 10 -258113
-1 -1;
#X obj 142 250 bng 20 250 50 0 empty empty RECORD_SOLO_NEXT 22 10 0
10 -258113 -1 -1;
#X obj 22 145 bng 20 250 50 0 empty empty SET_SYNC_POS 22 10 0 10 -258113
-1 -1;
#X obj 192 145 bng 20 250 50 0 empty empty RESET_SYNC_POS 22 10 0 10
-258113 -1 -1;
#X msg 62 330 send /sl/-3/hit record;
#X msg 62 350 send /sl/-3/hit overdub;
#X msg 62 370 send /sl/-3/hit multiply;
#X msg 62 390 send /sl/-3/hit insert;
#X msg 62 410 send /sl/-3/hit solo;
#X msg 62 430 send /sl/-3/hit solo_next;
#X msg 62 450 send /sl/-3/hit solo_prev;
#X msg 262 330 send /sl/-3/hit replace;
#X msg 262 350 send /sl/-3/hit reverse;
#X msg 262 370 send /sl/-3/hit mute;
#X msg 262 390 send /sl/-3/hit undo;
#X msg 262 410 send /sl/-3/hit record_solo;
#X msg 262 430 send /sl/-3/hit record_solo_next;
#X msg 262 450 send /sl/-3/hit record_solo_prev;
#X msg 62 470 send /sl/-3/hit undo_all;
#X msg 62 490 send /sl/-3/hit redo_all;
#X msg 62 510 send /sl/-3/hit mute_on;
#X msg 62 530 send /sl/-3/hit mute_off;
#X msg 262 470 send /sl/-3/hit redo;
#X msg 262 490 send /sl/-3/hit oneshot;
#X msg 262 510 send /sl/-3/hit trigger;
#X msg 262 530 send /sl/-3/hit substitute;
#X msg 262 550 send /sl/-3/hit pause;
#X msg 262 570 send /sl/-3/hit set_sync_pos;
#X msg 262 590 send /sl/-3/hit reset_sync_pos;
#X obj 163 663 s slOSCout;
#X obj 350 114 bng 20 250 50 0 empty empty NEXT_LOOP 22 10 0 10 -258113
-1 -1;
#X obj 350 144 bng 20 250 50 0 empty empty PREV_LOOP 22 10 0 10 -258113
-1 -1;
#X obj 445 243 nbx 3 14 0 512 0 0 empty SLselected_loop_num selected_loop
0 -8 0 8 -262144 -1 -1 9 256;
#X obj 508 288 nbx 3 14 0 512 0 0 empty SLloops loops 0 -8 0 8 -262144
-1 -1 13 256;
#X msg 430 205 -1;
#X msg 535 205 1;
#X obj 430 263 +;
#X obj 430 286 select -1;
#X obj 481 309 moses;
#X msg 430 335 send /set selected_loop_num \$1;
#X connect 0 0 25 0;
#X connect 1 0 26 0;
#X connect 2 0 27 0;
#X connect 3 0 28 0;
#X connect 4 0 32 0;
#X connect 5 0 33 0;
#X connect 6 0 34 0;
#X connect 7 0 35 0;
#X connect 8 0 43 0;
#X connect 9 0 44 0;
#X connect 10 0 45 0;
#X connect 11 0 46 0;
#X connect 12 0 39 0;
#X connect 13 0 40 0;
#X connect 14 0 41 0;
#X connect 15 0 42 0;
#X connect 16 0 29 0;
#X connect 17 0 47 0;
#X connect 18 0 30 0;
#X connect 19 0 38 0;
#X connect 20 0 31 0;
#X connect 21 0 36 0;
#X connect 22 0 37 0;
#X connect 23 0 48 0;
#X connect 24 0 49 0;
#X connect 25 0 50 0;
#X connect 26 0 50 0;
#X connect 27 0 50 0;
#X connect 28 0 50 0;
#X connect 29 0 50 0;
#X connect 30 0 50 0;
#X connect 31 0 50 0;
#X connect 32 0 50 0;
#X connect 33 0 50 0;
#X connect 34 0 50 0;
#X connect 35 0 50 0;
#X connect 36 0 50 0;
#X connect 37 0 50 0;
#X connect 38 0 50 0;
#X connect 39 0 50 0;
#X connect 40 0 50 0;
#X connect 41 0 50 0;
#X connect 42 0 50 0;
#X connect 43 0 50 0;
#X connect 44 0 50 0;
#X connect 45 0 50 0;
#X connect 46 0 50 0;
#X connect 47 0 50 0;
#X connect 48 0 50 0;
#X connect 49 0 50 0;
#X connect 51 0 56 0;
#X connect 52 0 55 0;
#X connect 53 0 57 1;
#X connect 54 0 59 1;
#X connect 55 0 57 0;
#X connect 56 0 57 0;
#X connect 57 0 58 0;
#X connect 58 1 59 0;
#X connect 59 0 60 0;
#X connect 60 0 50 0;
#X coords 0 -1 1 1 450 170 2 10 10;
#X restore 24 420 pd SLcommand_buttons;
#N canvas 91 25 774 700 register_update_current 0;
#X obj 8 69 inlet;
#X obj 8 228 outlet;
#X msg 124 367 4 /sl/-3/register_auto_update use_common_ins 100 /updates/use_common_ins
;
#X msg 283 8 4 /sl/-3/register_auto_update rec_thresh 100 /updates/rec_thresh
;
#X msg 273 28 4 /sl/-3/register_auto_update feedback 100 /updates/feedback
;
#X msg 263 48 4 /sl/-3/register_auto_update use_feedback_play 100 /updates/use_feedback_play
;
#X msg 254 81 4 /sl/-3/register_auto_update dry 100 /updates/dry-3
;
#X msg 244 101 4 /sl/-3/register_auto_update wet 100 /updates/wet-3
;
#X msg 234 121 4 /sl/-3/register_auto_update input_gain 100 /updates/input_gain
;
#X msg 224 141 4 /sl/-3/register_auto_update rate 100 /updates/rate
;
#X msg 214 161 4 /sl/-3/register_auto_update scratch_pos 100 /updates/scratch_pos
;
#X msg 204 181 4 /sl/-3/register_auto_update delay_trigger 100 /updates/delay_trigger
;
#X msg 194 214 4 /sl/-3/register_auto_update quantize 100 /updates/quantize
;
#X msg 184 234 4 /sl/-3/register_auto_update fade_samples 100 /updates/fade_samples
;
#X msg 174 254 4 /sl/-3/register_auto_update round 100 /updates/round
;
#X msg 164 274 4 /sl/-3/register_auto_update sync 100 /updates/sync
;
#X msg 154 294 4 /sl/-3/register_auto_update playback_sync 100 /updates/playback_sync
;
#X msg 144 327 4 /sl/-3/register_auto_update redo_is_tap 100 /updates/redo_is_tap
;
#X msg 134 347 4 /sl/-3/register_auto_update use_rate 100 /updates/use_rate
;
#X msg 114 400 4 /sl/-3/register_auto_update use_common_outs 100 /updates/use_common_outs
;
#X msg 104 433 4 /sl/-3/register_auto_update relative_sync 100 /updates/relative_sync
;
#X msg 94 466 4 /sl/-3/register_auto_update input_latency 100 /updates/input_latency
;
#X msg 84 499 4 /sl/-3/register_auto_update output_latency 100 /updates/output_latency
;
#X msg 74 532 4 /sl/-3/register_auto_update trigger_latency 100 /updates/trigger_latency
;
#X msg 64 565 4 /sl/-3/register_auto_update autoset_latency 100 /updates/autoset_latency
;
#X msg 54 598 4 /sl/-3/register_auto_update mute_quantized 100 /updates/mute_quantized
;
#X msg 434 458 4 /sl/-3/register_auto_update pan_1 100 /updates/pan_1
;
#X msg 424 478 4 /sl/-3/register_auto_update pan_2 100 /updates/pan_2
;
#X msg 414 498 4 /sl/-3/register_auto_update pan_3 100 /updates/pan_3
;
#X msg 404 518 4 /sl/-3/register_auto_update pan_4 100 /updates/pan_4
;
#X msg 394 538 4 /sl/-3/register_auto_update tempo_stretch 100 /updates/tempo_stretch
;
#X msg 384 571 4 /sl/-3/register_auto_update round_integer_tempo 100
/updates/round_integer_tempo;
#X msg 374 604 4 /sl/-3/register_auto_update replace_quantized 100
/updates/replace_quantized;
#X msg 364 637 4 /sl/-3/register_auto_update overdub_quantized 100
/updates/overdub_quantized;
#X connect 0 0 3 0;
#X connect 0 0 4 0;
#X connect 0 0 5 0;
#X connect 0 0 6 0;
#X connect 0 0 7 0;
#X connect 0 0 8 0;
#X connect 0 0 9 0;
#X connect 0 0 10 0;
#X connect 0 0 11 0;
#X connect 0 0 12 0;
#X connect 0 0 13 0;
#X connect 0 0 14 0;
#X connect 0 0 15 0;
#X connect 0 0 16 0;
#X connect 0 0 17 0;
#X connect 0 0 18 0;
#X connect 0 0 2 0;
#X connect 0 0 19 0;
#X connect 0 0 20 0;
#X connect 0 0 21 0;
#X connect 0 0 22 0;
#X connect 0 0 23 0;
#X connect 0 0 24 0;
#X connect 0 0 25 0;
#X connect 0 0 32 0;
#X connect 0 0 33 0;
#X connect 0 0 30 0;
#X connect 0 0 31 0;
#X connect 0 0 26 0;
#X connect 0 0 27 0;
#X connect 0 0 28 0;
#X connect 0 0 29 0;
#X connect 2 0 1 0;
#X connect 3 0 1 0;
#X connect 4 0 1 0;
#X connect 5 0 1 0;
#X connect 6 0 1 0;
#X connect 7 0 1 0;
#X connect 8 0 1 0;
#X connect 9 0 1 0;
#X connect 10 0 1 0;
#X connect 11 0 1 0;
#X connect 12 0 1 0;
#X connect 13 0 1 0;
#X connect 14 0 1 0;
#X connect 15 0 1 0;
#X connect 16 0 1 0;
#X connect 17 0 1 0;
#X connect 18 0 1 0;
#X connect 19 0 1 0;
#X connect 20 0 1 0;
#X connect 21 0 1 0;
#X connect 22 0 1 0;
#X connect 23 0 1 0;
#X connect 24 0 1 0;
#X connect 25 0 1 0;
#X connect 26 0 1 0;
#X connect 27 0 1 0;
#X connect 28 0 1 0;
#X connect 29 0 1 0;
#X connect 30 0 1 0;
#X connect 31 0 1 0;
#X connect 32 0 1 0;
#X connect 33 0 1 0;
#X restore 640 473 pd register_update_current;
#N canvas 594 25 684 678 get_update_current 0;
#X obj 5 69 inlet;
#X obj -55 288 outlet;
#X msg 280 8 3 /sl/-3/get rec_thresh /updates/rec_thresh;
#X msg 270 28 3 /sl/-3/get feedback /updates/feedback;
#X msg 260 48 3 /sl/-3/get use_feedback_play /updates/use_feedback_play
;
#X msg 251 68 3 /sl/-3/get dry /updates/dry-3;
#X msg 241 88 3 /sl/-3/get wet /updates/wet-3;
#X msg 231 108 3 /sl/-3/get input_gain /updates/input_gain;
#X msg 221 128 3 /sl/-3/get rate /updates/rate;
#X msg 211 148 3 /sl/-3/get scratch_pos /updates/scratch_pos;
#X msg 201 168 3 /sl/-3/get delay_trigger /updates/delay_trigger;
#X msg 191 188 3 /sl/-3/get quantize /updates/quantize;
#X msg 181 208 3 /sl/-3/get fade_samples /updates/fade_samples;
#X msg 171 228 3 /sl/-3/get round /updates/round;
#X msg 161 248 3 /sl/-3/get sync /updates/sync;
#X msg 151 268 3 /sl/-3/get playback_sync /updates/playback_sync;
#X msg 141 288 3 /sl/-3/get redo_is_tap /updates/redo_is_tap;
#X msg 131 309 3 /sl/-3/get use_rate /updates/use_rate;
#X msg 121 329 3 /sl/-3/get use_common_ins /updates/use_common_ins
;
#X msg 111 349 3 /sl/-3/get use_common_outs /updates/use_common_outs
;
#X msg 101 369 3 /sl/-3/get relative_sync /updates/relative_sync;
#X msg 91 389 3 /sl/-3/get input_latency /updates/input_latency;
#X msg 81 409 3 /sl/-3/get output_latency /updates/output_latency;
#X msg 71 429 3 /sl/-3/get trigger_latency /updates/trigger_latency
;
#X msg 61 449 3 /sl/-3/get autoset_latency /updates/autoset_latency
;
#X msg 51 469 3 /sl/-3/get mute_quantized /updates/mute_quantized;
#X msg 41 488 3 /sl/-3/get pan_1 /updates/pan_1;
#X msg 31 508 3 /sl/-3/get pan_2 /updates/pan_2;
#X msg 21 528 3 /sl/-3/get pan_3 /updates/pan_3;
#X msg 11 548 3 /sl/-3/get pan_4 /updates/pan_4;
#X msg 1 568 3 /sl/-3/get tempo_stretch /updates/tempo_stretch;
#X msg -9 588 3 /sl/-3/get round_integer_tempo /updates/round_integer_tempo
;
#X msg -19 621 3 /sl/-3/get replace_quantized /updates/replace_quantized
;
#X msg -29 641 3 /sl/-3/get overdub_quantized /updates/overdub_quantized
;
#X connect 0 0 2 0;
#X connect 0 0 3 0;
#X connect 0 0 4 0;
#X connect 0 0 5 0;
#X connect 0 0 6 0;
#X connect 0 0 7 0;
#X connect 0 0 8 0;
#X connect 0 0 9 0;
#X connect 0 0 10 0;
#X connect 0 0 11 0;
#X connect 0 0 12 0;
#X connect 0 0 13 0;
#X connect 0 0 14 0;
#X connect 0 0 15 0;
#X connect 0 0 16 0;
#X connect 0 0 17 0;
#X connect 0 0 18 0;
#X connect 0 0 19 0;
#X connect 0 0 20 0;
#X connect 0 0 21 0;
#X connect 0 0 22 0;
#X connect 0 0 23 0;
#X connect 0 0 24 0;
#X connect 0 0 25 0;
#X connect 0 0 32 0;
#X connect 0 0 33 0;
#X connect 0 0 30 0;
#X connect 0 0 31 0;
#X connect 0 0 26 0;
#X connect 0 0 27 0;
#X connect 0 0 28 0;
#X connect 0 0 29 0;
#X connect 2 0 1 0;
#X connect 3 0 1 0;
#X connect 4 0 1 0;
#X connect 5 0 1 0;
#X connect 6 0 1 0;
#X connect 7 0 1 0;
#X connect 8 0 1 0;
#X connect 9 0 1 0;
#X connect 10 0 1 0;
#X connect 11 0 1 0;
#X connect 12 0 1 0;
#X connect 13 0 1 0;
#X connect 14 0 1 0;
#X connect 15 0 1 0;
#X connect 16 0 1 0;
#X connect 17 0 1 0;
#X connect 18 0 1 0;
#X connect 19 0 1 0;
#X connect 20 0 1 0;
#X connect 21 0 1 0;
#X connect 22 0 1 0;
#X connect 23 0 1 0;
#X connect 24 0 1 0;
#X connect 25 0 1 0;
#X connect 26 0 1 0;
#X connect 27 0 1 0;
#X connect 28 0 1 0;
#X connect 29 0 1 0;
#X connect 30 0 1 0;
#X connect 31 0 1 0;
#X connect 32 0 1 0;
#X connect 33 0 1 0;
#X restore 650 453 pd get_update_current;
#N canvas 91 25 765 700 unregister_update_current 0;
#X obj 8 69 inlet;
#X obj 8 228 outlet;
#X msg 124 380 3 /sl/-3/unregister_auto_update use_common_ins /updates/use_common_ins
;
#X msg 283 8 3 /sl/-3/unregister_auto_update rec_thresh /updates/rec_thresh
;
#X msg 273 28 3 /sl/-3/unregister_auto_update feedback /updates/feedback
;
#X msg 263 48 3 /sl/-3/unregister_auto_update use_feedback_play /updates/use_feedback_play
;
#X msg 254 81 3 /sl/-3/unregister_auto_update dry /updates/dry-3;
#X msg 244 101 3 /sl/-3/unregister_auto_update wet /updates/wet-3;
#X msg 234 121 3 /sl/-3/unregister_auto_update input_gain /updates/input_gain
;
#X msg 224 141 3 /sl/-3/unregister_auto_update rate /updates/rate;
#X msg 214 161 3 /sl/-3/unregister_auto_update scratch_pos /updates/scratch_pos
;
#X msg 204 181 3 /sl/-3/unregister_auto_update delay_trigger /updates/delay_trigger
;
#X msg 194 214 3 /sl/-3/unregister_auto_update quantize /updates/quantize
;
#X msg 184 234 3 /sl/-3/unregister_auto_update fade_samples /updates/fade_samples
;
#X msg 174 267 3 /sl/-3/unregister_auto_update round /updates/round
;
#X msg 164 287 3 /sl/-3/unregister_auto_update sync /updates/sync;
#X msg 154 307 3 /sl/-3/unregister_auto_update playback_sync /updates/playback_sync
;
#X msg 144 340 3 /sl/-3/unregister_auto_update redo_is_tap /updates/redo_is_tap
;
#X msg 134 360 3 /sl/-3/unregister_auto_update use_rate /updates/use_rate
;
#X msg 114 413 3 /sl/-3/unregister_auto_update use_common_outs /updates/use_common_outs
;
#X msg 104 446 3 /sl/-3/unregister_auto_update relative_sync /updates/relative_sync
;
#X msg 94 479 3 /sl/-3/unregister_auto_update input_latency /updates/input_latency
;
#X msg 84 512 3 /sl/-3/unregister_auto_update output_latency /updates/output_latency
;
#X msg 74 545 3 /sl/-3/unregister_auto_update trigger_latency /updates/trigger_latency
;
#X msg 64 578 3 /sl/-3/unregister_auto_update autoset_latency /updates/autoset_latency
;
#X msg 54 611 3 /sl/-3/unregister_auto_update mute_quantized /updates/mute_quantized
;
#X msg 434 458 3 /sl/-3/unregister_auto_update pan_1 /updates/pan_1
;
#X msg 424 478 3 /sl/-3/unregister_auto_update pan_2 /updates/pan_2
;
#X msg 414 498 3 /sl/-3/unregister_auto_update pan_3 /updates/pan_3
;
#X msg 404 518 3 /sl/-3/unregister_auto_update pan_4 /updates/pan_4
;
#X msg 394 538 3 /sl/-3/unregister_auto_update tempo_stretch /updates/tempo_stretch
;
#X msg 384 571 3 /sl/-3/unregister_auto_update round_integer_tempo
/updates/round_integer_tempo;
#X msg 374 604 3 /sl/-3/unregister_auto_update replace_quantized /updates/replace_quantized
;
#X msg 364 637 3 /sl/-3/unregister_auto_update overdub_quantized /updates/overdub_quantized
;
#X connect 0 0 3 0;
#X connect 0 0 4 0;
#X connect 0 0 5 0;
#X connect 0 0 6 0;
#X connect 0 0 7 0;
#X connect 0 0 8 0;
#X connect 0 0 9 0;
#X connect 0 0 10 0;
#X connect 0 0 11 0;
#X connect 0 0 12 0;
#X connect 0 0 13 0;
#X connect 0 0 14 0;
#X connect 0 0 15 0;
#X connect 0 0 16 0;
#X connect 0 0 17 0;
#X connect 0 0 18 0;
#X connect 0 0 2 0;
#X connect 0 0 19 0;
#X connect 0 0 20 0;
#X connect 0 0 21 0;
#X connect 0 0 22 0;
#X connect 0 0 23 0;
#X connect 0 0 24 0;
#X connect 0 0 25 0;
#X connect 0 0 32 0;
#X connect 0 0 33 0;
#X connect 0 0 30 0;
#X connect 0 0 31 0;
#X connect 0 0 26 0;
#X connect 0 0 27 0;
#X connect 0 0 28 0;
#X connect 0 0 29 0;
#X connect 2 0 1 0;
#X connect 3 0 1 0;
#X connect 4 0 1 0;
#X connect 5 0 1 0;
#X connect 6 0 1 0;
#X connect 7 0 1 0;
#X connect 8 0 1 0;
#X connect 9 0 1 0;
#X connect 10 0 1 0;
#X connect 11 0 1 0;
#X connect 12 0 1 0;
#X connect 13 0 1 0;
#X connect 14 0 1 0;
#X connect 15 0 1 0;
#X connect 16 0 1 0;
#X connect 17 0 1 0;
#X connect 18 0 1 0;
#X connect 19 0 1 0;
#X connect 20 0 1 0;
#X connect 21 0 1 0;
#X connect 22 0 1 0;
#X connect 23 0 1 0;
#X connect 24 0 1 0;
#X connect 25 0 1 0;
#X connect 26 0 1 0;
#X connect 27 0 1 0;
#X connect 28 0 1 0;
#X connect 29 0 1 0;
#X connect 30 0 1 0;
#X connect 31 0 1 0;
#X connect 32 0 1 0;
#X connect 33 0 1 0;
#X restore 630 396 pd unregister_update_current;
#N canvas 341 25 937 697 display_update_current 0;
#X obj -95 239 nbx 5 14 0 1e+37 0 0 empty CCIrec_thresh rec_thresh
0 -8 0 8 -262144 -1 -1 0 256;
#X obj -95 269 nbx 5 14 0 1e+37 0 0 empty CCIfeedback feedback 0 -8
0 8 -262144 -1 -1 1 256;
#X obj 155 89 nbx 5 14 0 1e+37 0 0 empty CCIuse_feedback_play use_feedback_play
0 -8 0 8 -262144 -1 -1 0 256;
#X obj 5 239 nbx 5 14 0 1e+37 0 0 empty CCIdry-3 dry 0 -8 0 8 -262144
-1 -1 0 256;
#X obj 5 269 nbx 5 14 0 1e+37 0 0 empty CCIwet-3 wet 0 -8 0 8 -262144
-1 -1 1 256;
#X obj 5 299 nbx 5 14 0 1e+37 0 0 empty CCIinput_gain input_gain 0
-8 0 8 -262144 -1 -1 0 256;
#X obj 81 299 nbx 5 14 0 1e+37 0 0 empty CCIrate rate 0 -8 0 8 -262144
-1 -1 1 256;
#X obj -95 299 nbx 5 14 0 1e+37 0 0 empty CCIscratch_pos scratch_pos
0 -8 0 8 -262144 -1 -1 0 256;
#X obj 585 -1 nbx 5 14 0 1e+37 0 0 empty CCIdelay_trigger delay_trigger
0 -8 0 8 -262144 -1 -1 0 256;
#X obj 572 488 nbx 5 14 0 1e+37 0 0 empty CCIquantize quantize 0 -8
0 8 -262144 -1 -1 1 256;
#X obj 585 29 nbx 5 14 0 1e+37 0 0 empty CCIfade_samples fade_samples
0 -8 0 8 -262144 -1 -1 64 256;
#X obj -105 61 nbx 5 14 0 1e+37 0 0 empty CCIround round 0 -8 0 8 -262144
-1 -1 0 256;
#X obj -105 91 nbx 5 14 0 1e+37 0 0 empty CCIsync sync 0 -8 0 8 -262144
-1 -1 1 256;
#X obj 35 -1 nbx 5 14 0 1e+37 0 0 empty CCIplayback_sync playback_sync
0 -8 0 8 -262144 -1 -1 0 256;
#X obj 35 29 nbx 5 14 0 1e+37 0 0 empty CCIredo_is_tap redo_is_tap
0 -8 0 8 -262144 -1 -1 0 256;
#X obj 35 59 nbx 5 14 0 1e+37 0 0 empty CCIuse_rate use_rate 0 -8 0
8 -262144 -1 -1 0 256;
#X obj -105 1 nbx 5 14 0 1e+37 0 0 empty CCIuse_common_ins use_common_ins
0 -8 0 8 -262144 -1 -1 0 256;
#X obj -105 31 nbx 5 14 0 1e+37 0 0 empty CCIuse_common_outs use_common_outs
0 -8 0 8 -262144 -1 -1 1 256;
#X obj 35 89 nbx 5 14 0 1e+37 0 0 empty CCIrelative_sync relative_sync
0 -8 0 8 -262144 -1 -1 0 256;
#X obj 321 143 nbx 5 14 0 1e+37 0 0 empty CCIinput_latency input_latency
0 -8 0 8 -262144 -1 -1 128 256;
#X obj 321 173 nbx 5 14 0 1e+37 0 0 empty CCIoutput_latency output_latency
0 -8 0 8 -262144 -1 -1 256 256;
#X obj 321 203 nbx 5 14 0 1e+37 0 0 empty CCItrigger_latency trigger_latency
0 -8 0 8 -262144 -1 -1 128 256;
#X obj 321 93 nbx 5 14 0 1e+37 0 0 empty CCIautoset_latency autoset_latency
0 -8 0 8 -262144 -1 -1 1 256;
#X obj 155 -1 nbx 5 14 0 1e+37 0 0 empty CCImute_quantized mute_quantized
0 -8 0 8 -262144 -1 -1 0 256;
#X obj 635 246 nbx 5 14 0 1e+37 0 0 empty CCIpan_1 pan_1 0 -8 0 8 -262144
-1 -1 0.5 256;
#X obj 635 276 nbx 5 14 0 1e+37 0 0 empty CCIpan_2 pan_2 0 -8 0 8 -262144
-1 -1 0 256;
#X obj 635 306 nbx 5 14 0 1e+37 0 0 empty CCIpan_3 pan_3 0 -8 0 8 -262144
-1 -1 0 256;
#X obj 635 336 nbx 5 14 0 1e+37 0 0 empty CCIpan_4 pan_4 0 -8 0 8 -262144
-1 -1 0 256;
#X obj 585 59 nbx 5 14 0 1e+37 0 0 empty CCItempo_stretch tempo_stretch
0 -8 0 8 -262144 -1 -1 0 256;
#X obj 585 89 nbx 5 14 0 1e+37 0 0 empty CCIround_integer_tempo round_integer_tempo
0 -8 0 8 -262144 -1 -1 0 256;
#X obj 155 29 nbx 5 14 0 1e+37 0 0 empty CCIreplace_quantized replace_quantized
0 -8 0 8 -262144 -1 -1 1 256;
#X obj 155 59 nbx 5 14 0 1e+37 0 0 empty CCIoverdub_quantized overdub_quantized
0 -8 0 8 -262144 -1 -1 0 256;
#X obj -83 133 tgl 15 0 empty empty use_common_ins 17 7 0 8 -262144
-1 -1 0 1;
#X obj -83 153 tgl 15 0 empty empty use_common_outs 17 7 0 8 -262144
-1 -1 1 1;
#X obj -99 133 bng 15 250 50 0 empty empty empty 17 7 0 10 -258113
-1 -1;
#X obj -99 153 bng 15 250 50 0 empty empty empty 17 7 0 10 -258113
-1 -1;
#X obj -83 173 tgl 15 0 empty empty round 17 7 0 8 -262144 -1 -1 0
1;
#X obj -99 173 bng 15 250 50 0 empty empty empty 17 7 0 10 -258113
-1 -1;
#X obj 177 193 tgl 15 0 empty empty sync 17 7 0 8 -262144 -1 -1 1 1
;
#X obj 161 193 bng 15 250 50 0 empty empty empty 17 7 0 10 -258113
-1 -1;
#X msg -86 451 send /sl/-3/set use_common_ins \$1;
#X obj -86 429 bitflipper;
#X obj -86 479 bitflipper;
#X msg -86 501 send /sl/-3/set use_common_outs \$1;
#X obj -86 529 bitflipper;
#X msg -86 551 send /sl/-3/set round \$1;
#X obj 342 579 bitflipper;
#X msg 342 601 send /sl/-3/set sync \$1;
#X obj 57 133 tgl 15 0 empty empty playback_sync 17 7 0 8 -262144 -1
-1 0 1;
#X obj 57 153 tgl 15 0 empty empty redo_is_tap 17 7 0 8 -262144 -1
-1 0 1;
#X obj 41 133 bng 15 250 50 0 empty empty empty 17 7 0 10 -258113 -1
-1;
#X obj 41 153 bng 15 250 50 0 empty empty empty 17 7 0 10 -258113 -1
-1;
#X obj 57 173 tgl 15 0 empty empty use_rate 17 7 0 8 -262144 -1 -1
0 1;
#X obj 41 173 bng 15 250 50 0 empty empty empty 17 7 0 10 -258113 -1
-1;
#X obj 57 193 tgl 15 0 empty empty relative_sync 17 7 0 8 -262144 -1
-1 0 1;
#X obj 41 193 bng 15 250 50 0 empty empty empty 17 7 0 10 -258113 -1
-1;
#X obj 134 429 bitflipper;
#X obj 134 479 bitflipper;
#X obj 134 529 bitflipper;
#X obj 134 579 bitflipper;
#X obj 177 133 tgl 15 0 empty empty mute_quantized 17 7 0 8 -262144
-1 -1 0 1;
#X obj 177 153 tgl 15 0 empty empty replace_quantized 17 7 0 8 -262144
-1 -1 1 1;
#X obj 161 133 bng 15 250 50 0 empty empty empty 17 7 0 10 -258113
-1 -1;
#X obj 161 153 bng 15 250 50 0 empty empty empty 17 7 0 10 -258113
-1 -1;
#X obj 177 173 tgl 15 0 empty empty overdub_quantized 17 7 0 8 -262144
-1 -1 0 1;
#X obj 161 173 bng 15 250 50 0 empty empty empty 17 7 0 10 -258113
-1 -1;
#X obj -83 193 tgl 15 0 empty empty use_feedback_play 17 7 0 8 -262144
-1 -1 0 1;
#X obj -99 193 bng 15 250 50 0 empty empty empty 17 7 0 10 -258113
-1 -1;
#X obj 342 429 bitflipper;
#X obj 342 479 bitflipper;
#X obj 342 529 bitflipper;
#X obj -99 579 bitflipper;
#X msg 134 451 send /sl/-3/set playback_sync \$1;
#X msg 134 501 send /sl/-3/set redo_is_tap \$1;
#X msg 134 551 send /sl/-3/set use_rate \$1;
#X msg 134 601 send /sl/-3/set relative_sync \$1;
#X msg 342 451 send /sl/-3/set mute_quantized \$1;
#X msg 342 501 send /sl/-3/set replace_quantized \$1;
#X msg 342 551 send /sl/-3/set overdub_quantized \$1;
#X msg -99 601 send /sl/-3/set use_feedback_play \$1;
#X obj 337 223 tgl 15 0 empty empty autoset_latency 17 7 0 8 -262144
-1 -1 1 1;
#X obj 321 223 bng 15 250 50 0 empty empty empty 17 7 0 10 -258113
-1 -1;
#X obj 572 429 bitflipper;
#X msg 572 451 send /sl/-3/set autoset_latency \$1;
#N canvas 725 99 488 261 parse_quantize 0;
#X obj 72 36 inlet;
#X obj 254 224 outlet;
#X obj 72 66 select 0 1 2 3;
#X msg 72 180 set Off;
#X msg 92 160 set Cycle;
#X msg 112 140 set 8th;
#X msg 132 120 set Loop;
#X msg 153 100 set ERR;
#X connect 0 0 2 0;
#X connect 2 0 3 0;
#X connect 2 1 4 0;
#X connect 2 2 5 0;
#X connect 2 3 6 0;
#X connect 2 4 7 0;
#X connect 3 0 1 0;
#X connect 4 0 1 0;
#X connect 5 0 1 0;
#X connect 6 0 1 0;
#X connect 7 0 1 0;
#X restore 572 505 pd parse_quantize;
#X symbolatom 178 229 10 0 0 2 quantize - -;
#X obj 160 230 bng 15 250 50 0 empty empty empty 17 7 0 10 -258113
-1 -1;
#N canvas 79 366 450 300 send_set_quantize 0;
#X obj 56 61 inlet;
#X obj 141 61 inlet;
#X obj 56 89 f;
#X msg 56 147 1;
#X obj 56 230 outlet;
#X obj 56 118 select 0 1 2 3;
#X msg 140 147 0;
#X msg 84 147 2;
#X msg 112 147 3;
#X msg 56 207 send /sl/-3/set quantize \$1;
#X connect 0 0 2 0;
#X connect 1 0 2 1;
#X connect 2 0 5 0;
#X connect 3 0 9 0;
#X connect 5 0 3 0;
#X connect 5 1 7 0;
#X connect 5 2 8 0;
#X connect 5 3 6 0;
#X connect 6 0 9 0;
#X connect 7 0 9 0;
#X connect 8 0 9 0;
#X connect 9 0 4 0;
#X restore 572 526 pd send_set_quantize;
#X obj 324 263 hsl 50 10 0 1 0 0 empty CCIpan_1 pan_1 8 -8 0 8 -262144
-1 -1 2450 1;
#X obj 324 276 hsl 50 10 0 1 0 0 empty empty empty 8 -8 0 8 -258113
-1 -1 0 1;
#X obj 384 263 hsl 50 10 0 1 0 0 empty CCIpan_2 pan_2 8 -8 0 8 -262144
-1 -1 0 1;
#X obj 384 276 hsl 50 10 0 1 0 0 empty empty empty 8 -8 0 8 -258113
-1 -1 0 1;
#X obj 324 303 hsl 50 10 0 1 0 0 empty CCIpan_3 pan_3 8 -8 0 8 -262144
-1 -1 0 1;
#X obj 324 316 hsl 50 10 0 1 0 0 empty empty empty 8 -8 0 8 -258113
-1 -1 0 1;
#X obj 384 303 hsl 50 10 0 1 0 0 empty CCIpan_4 pan_4 8 -8 0 8 -262144
-1 -1 0 1;
#X obj 384 316 hsl 50 10 0 1 0 0 empty empty empty 8 -8 0 8 -258113
-1 -1 0 1;
#X msg 466 262 send /sl/-3/set pan_1 \$1;
#X msg 466 282 send /sl/-3/set pan_2 \$1;
#X msg 466 302 send /sl/-3/set pan_3 \$1;
#X msg 466 322 send /sl/-3/set pan_4 \$1;
#X obj -105 641 s slOSCout;
#X obj 58 241 hsl 50 10 0 1 0 0 empty empty empty 8 -8 0 8 -258113
-1 -1 0 1;
#X msg -4 352 send /sl/-3/set dry \$1;
#X obj 58 271 hsl 50 10 0 1 0 0 empty empty empty 8 -8 0 8 -258113
-1 -1 0 1;
#X msg -4 382 send /sl/-3/set wet \$1;
#X connect 2 0 66 0;
#X connect 9 0 84 0;
#X connect 9 0 87 1;
#X connect 11 0 36 0;
#X connect 12 0 38 0;
#X connect 13 0 48 0;
#X connect 14 0 49 0;
#X connect 15 0 52 0;
#X connect 16 0 32 0;
#X connect 17 0 33 0;
#X connect 18 0 54 0;
#X connect 22 0 80 0;
#X connect 23 0 60 0;
#X connect 30 0 61 0;
#X connect 31 0 64 0;
#X connect 32 0 41 1;
#X connect 33 0 42 1;
#X connect 34 0 41 0;
#X connect 35 0 42 0;
#X connect 36 0 44 1;
#X connect 37 0 44 0;
#X connect 38 0 46 1;
#X connect 39 0 46 0;
#X connect 40 0 100 0;
#X connect 41 0 40 0;
#X connect 42 0 43 0;
#X connect 43 0 100 0;
#X connect 44 0 45 0;
#X connect 45 0 100 0;
#X connect 46 0 47 0;
#X connect 47 0 100 0;
#X connect 48 0 56 1;
#X connect 49 0 57 1;
#X connect 50 0 56 0;
#X connect 51 0 57 0;
#X connect 52 0 58 1;
#X connect 53 0 58 0;
#X connect 54 0 59 1;
#X connect 55 0 59 0;
#X connect 56 0 72 0;
#X connect 57 0 73 0;
#X connect 58 0 74 0;
#X connect 59 0 75 0;
#X connect 60 0 68 1;
#X connect 61 0 69 1;
#X connect 62 0 68 0;
#X connect 63 0 69 0;
#X connect 64 0 70 1;
#X connect 65 0 70 0;
#X connect 66 0 71 1;
#X connect 67 0 71 0;
#X connect 68 0 76 0;
#X connect 69 0 77 0;
#X connect 70 0 78 0;
#X connect 71 0 79 0;
#X connect 72 0 100 0;
#X connect 73 0 100 0;
#X connect 74 0 100 0;
#X connect 75 0 100 0;
#X connect 76 0 100 0;
#X connect 77 0 100 0;
#X connect 78 0 100 0;
#X connect 79 0 100 0;
#X connect 80 0 82 1;
#X connect 81 0 82 0;
#X connect 82 0 83 0;
#X connect 83 0 100 0;
#X connect 84 0 85 0;
#X connect 86 0 87 0;
#X connect 87 0 100 0;
#X connect 89 0 96 0;
#X connect 91 0 97 0;
#X connect 93 0 98 0;
#X connect 95 0 99 0;
#X connect 96 0 100 0;
#X connect 97 0 100 0;
#X connect 98 0 100 0;
#X connect 99 0 100 0;
#X connect 101 0 102 0;
#X connect 102 0 100 0;
#X connect 103 0 104 0;
#X connect 104 0 100 0;
#X coords 0 -1 1 1 560 220 2 -110 120;
#X restore 24 198 pd display_update_current;
#X connect 1 0 8 0;
#X connect 2 0 1 0;
#X connect 3 0 4 0;
#X connect 4 0 2 0;
#X connect 4 0 27 0;
#X connect 4 0 26 0;
#X connect 4 1 5 0;
#X connect 4 1 28 0;
#X connect 5 0 1 0;
#X connect 6 0 7 0;
#X connect 7 0 3 0;
#X connect 14 0 23 0;
#X connect 16 0 22 0;
#X connect 22 0 24 0;
#X connect 23 0 21 0;
#X connect 26 0 1 0;
#X connect 27 0 1 0;
#X connect 28 0 1 0;
#X coords 0 -1 1 1 580 530 2 15 65;
#X restore 5 6 pd current_loop_interface;
#X restore -13 311 pd loop_interfaces;
#N canvas 942 410 331 286 clearFootControllerDisplay 1;
#N canvas 264 106 931 434 footControllerSerial 0;
#X floatatom 304 341 10 0 0 1 baud - -;
#X floatatom 556 214 3 0 0 3 parity - -;
#X floatatom 581 214 3 0 0 2 stop - -;
#X floatatom 606 213 3 0 0 3 data - -;
#X floatatom 452 341 3 0 0 1 port - -;
#X obj 631 179 tgl 15 0 empty empty rts/cts -10 20 1 11 -24198 -258699
-1 0 1;
#X obj 657 195 tgl 15 0 empty empty xon/xoff -14 20 1 11 -24198 -258699
-1 0 1;
#X text 420 213 serial packet format:;
#X text 572 163 handshaking:;
#X text 378 245 flow control inputs:;
#X obj 506 245 tgl 15 0 empty empty dsr 0 20 1 11 -24198 -258699 -1
0 1;
#X obj 531 245 tgl 15 0 empty empty cts 0 20 1 11 -24198 -258699 -1
0 1;
#X obj 403 341 tgl 15 0 empty empty open 17 7 1 11 -24198 -258699 -1
1 1;
#X obj 732 210 print port_list;
#X obj 846 166 print other;
#X obj 757 173 tgl 15 0 empty empty hupcl -6 20 1 11 -24198 -258699
-1 1 1;
#X floatatom 429 304 10 0 0 1 rxerrors - -;
#X obj 481 136 route baud dsr cts parity stop data rtscts xonxoff port
open ports hupcl rxerrors;
#X obj 394 114 comport 4 57600;
#X msg 408 41 close;
#X obj 58 137 select 13 10 33;
#X obj 146 200 list prepend;
#X obj 145 168 makefilename %c;
#X obj 239 201 t l;
#X obj 58 169 bng 15 50 10 0 empty empty empty 0 -6 0 10 -262144 -1
-1;
#X obj 58 234 list append;
#X symbolatom 304 304 20 0 0 0 - - -;
#X obj 58 264 list2symbol;
#X symbolatom 145 250 10 0 0 0 - - -;
#X obj 64 365 symbol2list;
#X msg 145 227 symbol;
#X text 157 137 <-- end character end line select one!;
#X text 246 167 // change int to ascii;
#X text 270 201 // stores string;
#X text 217 248 // remove unwanted spaces;
#X text 143 368 // make list (message) out of it;
#X obj 197 227 loadbang;
#X msg 449 41 info;
#X obj 581 322 bng 15 250 50 0 empty empty close -28 7 0 8 -258113
-1 -1;
#X obj 581 302 bng 15 250 50 0 empty empty connect -39 7 0 8 -258113
-1 -1;
#X obj 581 342 bng 15 250 50 0 empty empty update -34 7 0 8 -258113
-1 -1;
#X obj 64 386 list trim;
#X obj 64 408 s footControllerOSCin;
#X msg 485 41 devicename /dev/ttyUSB0;
#X connect 17 0 0 0;
#X connect 17 1 10 0;
#X connect 17 2 11 0;
#X connect 17 3 1 0;
#X connect 17 4 2 0;
#X connect 17 5 3 0;
#X connect 17 6 5 0;
#X connect 17 7 6 0;
#X connect 17 8 4 0;
#X connect 17 9 12 0;
#X connect 17 10 13 0;
#X connect 17 11 15 0;
#X connect 17 12 16 0;
#X connect 17 13 14 0;
#X connect 18 0 20 0;
#X connect 18 1 17 0;
#X connect 19 0 18 0;
#X connect 20 1 24 0;
#X connect 20 3 22 0;
#X connect 21 0 23 0;
#X connect 21 0 25 1;
#X connect 22 0 21 0;
#X connect 23 0 21 1;
#X connect 24 0 21 1;
#X connect 24 0 25 0;
#X connect 25 0 27 0;
#X connect 26 0 29 0;
#X connect 27 0 26 0;
#X connect 28 0 27 1;
#X connect 29 0 41 0;
#X connect 30 0 28 0;
#X connect 36 0 30 0;
#X connect 37 0 18 0;
#X connect 38 0 19 0;
#X connect 39 0 43 0;
#X connect 40 0 37 0;
#X connect 41 0 42 0;
#X connect 43 0 18 0;
#X coords 0 -1 1 1 300 60 2 300 300;
#X restore 2 12 pd footControllerSerial;
#N canvas 54 56 1210 656 footControllerVisual 0;
#X obj 18 46 routeOSC /AM;
#X obj 151 75 print OTHER;
#X obj 18 75 routeOSC /F /S;
#X obj 18 128 routeOSC /0 /1 /2 /3 /4 /5 /6;
#X obj 198 128 routeOSC /0 /1 /2 /3 /4;
#X text 29 110 Foot Switches Hit;
#X text 213 110 Slider Values;
#X obj 18 23 r footControllerOSCin;
#X obj 373 177 bng 15 250 50 0 empty empty dub -2 22 0 8 -258113 -1
-1;
#X obj 418 177 bng 15 250 50 0 empty empty rec -2 22 0 8 -258113 -1
-1;
#X obj 463 177 bng 15 250 50 0 empty empty undo -4 22 0 8 -258113 -1
-1;
#X obj 508 177 bng 15 250 50 0 empty empty mute -4 22 0 8 -258113 -1
-1;
#X obj 598 177 bng 15 250 50 0 empty empty prev -4 22 0 8 -258113 -1
-1;
#X obj 643 177 bng 15 250 50 0 empty empty next -4 22 0 8 -258113 -1
-1;
#X obj 389 38 vsl 10 100 0 1023 0 0 empty empty empty 0 -9 0 10 -262144
-1 -1 0 1;
#X obj 409 38 vsl 10 100 0 1023 0 0 empty empty empty 0 -9 0 10 -262144
-1 -1 0 1;
#X obj 429 38 vsl 10 100 0 1023 0 0 empty empty empty 0 -9 0 10 -262144
-1 -1 0 1;
#X obj 449 38 vsl 10 100 0 1023 0 0 empty empty empty 0 -9 0 10 -262144
-1 -1 0 1;
#X obj 469 38 vsl 10 100 0 1023 0 0 empty empty empty 0 -9 0 10 -262144
-1 -1 0 1;
#X obj 947 234 bng 20 250 50 0 empty empty NEXT_LOOP 22 10 0 10 -258113
-1 -1;
#X obj 842 234 bng 20 250 50 0 empty empty PREV_LOOP 22 10 0 10 -258113
-1 -1;
#X obj 553 234 bng 20 250 50 0 empty empty MUTE 22 10 0 10 -258113
-1 -1;
#X msg 553 260 send /sl/-3/hit mute;
#X obj 250 234 bng 20 250 50 0 empty empty REC 22 10 0 10 -258113 -1
-1;
#X obj 400 234 bng 20 250 50 0 empty empty UNDO 22 10 0 10 -258113
-1 -1;
#X obj 284 452 send slOSCout;
#X obj 857 298 nbx 3 14 0 512 0 0 empty SLselected_loop_num selected_loop
0 -8 0 8 -262144 -1 -1 9 256;
#X msg 842 260 -1;
#X msg 947 260 1;
#X obj 842 318 +;
#X msg 842 390 send /set selected_loop_num \$1;
#X obj 842 341 moses 7;
#X obj 881 364 moses 13;
#X obj 558 177 tgl 15 0 empty empty reverse -15 22 0 8 -258113 -1 -1
0 1;
#X msg 682 254 send /sl/-3/down reverse;
#X msg 682 276 send /sl/-3/up reverse;
#X obj 682 232 select 1 0;
#X msg 400 260 send /sl/-3/hit undo;
#X msg 250 260 send /sl/-3/hit record;
#X obj 91 234 bng 20 250 50 0 empty empty OVERDUB 22 10 0 10 -258113
-1 -1;
#X msg 91 260 send /sl/-3/hit overdub;
#X connect 0 0 2 0;
#X connect 0 1 1 0;
#X connect 2 0 3 0;
#X connect 2 1 4 0;
#X connect 3 0 8 0;
#X connect 3 1 9 0;
#X connect 3 2 10 0;
#X connect 3 3 11 0;
#X connect 3 5 12 0;
#X connect 3 6 13 0;
#X connect 4 0 14 0;
#X connect 4 1 15 0;
#X connect 4 2 16 0;
#X connect 4 3 17 0;
#X connect 4 4 18 0;
#X connect 7 0 0 0;
#X connect 8 0 39 0;
#X connect 9 0 23 0;
#X connect 10 0 24 0;
#X connect 11 0 21 0;
#X connect 12 0 20 0;
#X connect 13 0 19 0;
#X connect 19 0 28 0;
#X connect 20 0 27 0;
#X connect 21 0 22 0;
#X connect 22 0 25 0;
#X connect 23 0 38 0;
#X connect 24 0 37 0;
#X connect 26 0 29 1;
#X connect 27 0 29 0;
#X connect 28 0 29 0;
#X connect 29 0 31 0;
#X connect 30 0 25 0;
#X connect 31 1 32 0;
#X connect 32 0 30 0;
#X connect 33 0 36 0;
#X connect 35 0 25 0;
#X connect 36 0 34 0;
#X connect 36 1 35 0;
#X connect 37 0 25 0;
#X connect 38 0 25 0;
#X connect 39 0 40 0;
#X connect 40 0 25 0;
#X coords 0 -1 1 1 320 200 2 360 10;
#X restore 2 74 pd footControllerVisual;
#X restore -13 290 pd clearFootControllerDisplay;
#N canvas 287 136 515 577 save_page 0;
#X obj -72 514 slOSCsender2;
#X obj -72 490 spigot;
#X obj -39 471 tgl 15 0 empty empty empty 17 7 0 10 -262144 -1 -1 0
1;
#X text -14 472 set your filenames \, turn on the spigot. click on
messages one by one to send them.;
#X obj 19 369 cnv 15 400 100 empty empty empty 20 12 0 14 -233017 -66577
0;
#X obj -72 538 s slOSCout;
#X msg 11 329 3 /sl/0/load_loop greenmilk.wav /errors/load_loop;
#X msg -72 20 5 /sl/-3/save_loop blah.wav format endian /errors/save_loop
;
#X msg -52 70 5 /sl/1/save_loop blnk1.wav format endian /errors/save_loop
;
#X msg -42 90 5 /sl/2/save_loop blnk2.wav format endian /errors/save_loop
;
#X msg -32 110 5 /sl/3/save_loop blnk3.wav format endian /errors/save_loop
;
#X msg -22 130 5 /sl/4/save_loop blnk4.wav format endian /errors/save_loop
;
#X msg -12 150 5 /sl/5/save_loop blnk5.wav format endian /errors/save_loop
;
#X msg -2 170 5 /sl/6/save_loop blnk6.wav format endian /errors/save_loop
;
#X msg 48 270 5 /sl/11/save_loop blnk11.wav format endian /errors/save_loop
;
#X msg 58 290 5 /sl/12/save_loop blnk12.wav format endian /errors/save_loop
;
#X msg 11 348 3 /save_session blank.sl /errors/save_session;
#X msg 24 374 3 /load_session blank.sl /errors/load_session;
#X msg 8 190 5 /sl/7/save_loop uke2-7.wav format endian /errors/save_loop
;
#X msg 18 210 5 /sl/8/save_loop uke2-8.wav format endian /errors/save_loop
;
#X msg -62 50 5 /sl/0/save_loop uke2-0.wav format endian /errors/save_loop
;
#X msg 28 230 5 /sl/9/save_loop uke2-9.wav format endian /errors/save_loop
;
#X msg 38 250 5 /sl/10/save_loop uke2-10.wav format endian /errors/save_loop
;
#X connect 0 0 5 0;
#X connect 1 0 0 0;
#X connect 2 0 1 1;
#X connect 6 0 1 0;
#X connect 7 0 1 0;
#X connect 8 0 1 0;
#X connect 9 0 1 0;
#X connect 10 0 1 0;
#X connect 11 0 1 0;
#X connect 12 0 1 0;
#X connect 13 0 1 0;
#X connect 14 0 1 0;
#X connect 15 0 1 0;
#X connect 16 0 1 0;
#X connect 17 0 1 0;
#X connect 18 0 1 0;
#X connect 19 0 1 0;
#X connect 20 0 1 0;
#X connect 21 0 1 0;
#X connect 22 0 1 0;
#X restore 223 290 pd save_page;
#N canvas 0 0 349 236 in-out-levels 0;
#N canvas 21 56 498 514 global_monitors-\$0 0;
#X obj 108 118 nbx 5 14 0 1e+37 0 0 empty SLtempo tempo_bpm 0 -8 0
8 -262144 -1 -1 237.869 256;
#X obj 228 118 nbx 3 14 0 512 0 0 empty SLselected_loop_num selected_loop
0 -8 0 8 -262144 -1 -1 9 256;
#X obj 289 260 nbx 5 14 0 1e+37 0 0 empty SLout_peak_meter out_peak
0 22 0 8 -262144 -1 -1 0.0253391 256;
#X obj 108 259 nbx 3 14 0 1 0 0 empty SLwet wet 0 22 0 8 -262144 -1
-1 1 256;
#X obj 148 259 nbx 3 14 0 1 0 0 empty SLdry dry 0 22 0 8 -262144 -1
-1 0 256;
#X obj 344 260 nbx 5 14 0 1e+37 0 0 empty SLin_peak_meter in_peak 0
22 0 8 -262144 -1 -1 0.000343323 256;
#X obj 188 118 nbx 3 14 0 512 0 0 empty SLloops loops 0 -8 0 8 -262144
-1 -1 13 256;
#X obj 345 132 vu 15 120 empty empty -1 -8 0 8 -66577 -1 1 0;
#X obj 423 161 * 111;
#X obj 424 185 - 99;
#X obj 290 132 vu 15 120 empty empty -1 -8 0 8 -66577 -1 1 0;
#X obj 428 221 * 111;
#X obj 429 245 - 99;
#X obj 188 259 nbx 3 14 0 1e+37 0 0 empty SLinput_gain input_gain 0
22 0 8 -262144 -1 -1 1 256;
#X obj 188 153 vsl 25 100 0 1 0 0 empty empty empty 0 -9 0 10 -262144
-1 -1 0 1;
#X obj 148 153 vsl 25 100 0 1 0 0 empty empty empty 0 -9 0 10 -262144
-1 -1 0 1;
#X obj 108 153 vsl 25 100 0 1 0 0 empty empty empty 0 -9 0 10 -262144
-1 -1 0 1;
#X connect 2 0 11 0;
#X connect 5 0 8 0;
#X connect 8 0 9 0;
#X connect 9 0 7 0;
#X connect 11 0 12 0;
#X connect 12 0 10 0;
#X coords 0 -1 1 1 300 200 2 100 100;
#X restore 8 23 pd global_monitors-\$0;
#X restore 167 312 pd in-out-levels;
