#N canvas 945 25 333 560 10;
#N canvas 617 71 570 325 OSCin 0;
#X text 103 34 SERVER;
#X obj -5 47 unpackOSC;
#X floatatom 52 84 10 0 0 1 millisecond_delay - -;
#X obj -5 84 pipelist;
#X obj -5 17 udpreceive 9950;
#X msg 96 51 127.0.0.1;
#X msg 96 17 set \$1.\$2.\$3.\$4;
#X text 205 22 OSC IN;
#X obj 94 136 print incomingOSC;
#X obj -5 109 routeOSC /updates;
#N canvas 353 270 838 395 processUpdates 0;
#X obj 5 14 inlet;
#X obj 5 131 routeOSC /eighth_per_cycle /smart_eighths;
#X obj 339 44 routeOSC /auto_disable_latency /output_midi_clock /use_midi_start
/use_midi_stop /send_midi_start_on_trigger;
#X obj 5 51 routeOSC /tempo /sync_source /selected_loop_num;
#X obj 5 211 routeOSC /input_gain /in_peak_meter;
#X obj 5 100 s SLtempo;
#X obj 5 76 unpack f s f;
#X obj 84 76 unpack f s f;
#X obj 84 100 s SLsync_source;
#X obj 181 76 unpack f s f;
#X obj 181 100 s SLselected_loop_num;
#X obj 5 323 unpack f s f;
#X obj 120 323 unpack f s f;
#X obj 200 323 unpack f s f;
#X obj 5 347 s SLout_peak_meter;
#X obj 200 347 s SLdry;
#X obj 120 347 s SLwet;
#X obj 5 238 unpack f s f;
#X obj 105 238 unpack f s f;
#X obj 5 262 s SLinput_gain;
#X obj 105 262 s SLin_peak_meter;
#X obj 5 158 unpack f s f;
#X obj 135 158 unpack f s f;
#X obj 5 182 s SLeighth_per_cycle;
#X obj 135 182 s SLsmart_eighths;
#X obj 339 146 print UNKNOWN_UPDATE;
#X obj 5 291 routeOSC /out_peak_meter /wet /dry /loops;
#X obj 280 347 s SLloops;
#X obj 280 323 unpack s s f;
#N canvas 585 25 450 300 current_channel_interface_messages 0;
#X obj 16 22 inlet;
#X obj 13 274 outlet;
#X obj 39 46 routeOSC /cycle_len /free_time /is_soloed /loop_len;
#X obj 41 124 routeOSC /loop_pos /next_state /pitch_shift /state;
#X obj 41 198 routeOSC /rate_output /stretch_ratio /total_time /waiting
;
#X obj 39 70 unpack f s f;
#X obj 39 94 s CCIcycle_len;
#X obj 129 70 unpack f s f;
#X obj 129 94 s CCIfree_time;
#X obj 219 70 unpack f s f;
#X obj 219 94 s CCIis_soloed;
#X obj 309 70 unpack f s f;
#X obj 309 94 s CCIloop_len;
#X obj 39 150 unpack f s f;
#X obj 129 150 unpack f s f;
#X obj 219 150 unpack f s f;
#X obj 309 150 unpack f s f;
#X obj 39 174 s CCIloop_pos;
#X obj 123 174 s CCInext_state;
#X obj 219 174 s CCIpitch_shift;
#X obj 322 174 s CCIstate;
#X obj 39 220 unpack f s f;
#X obj 129 220 unpack f s f;
#X obj 219 220 unpack f s f;
#X obj 309 220 unpack f s f;
#X obj 39 244 s CCIrate_output;
#X obj 140 244 s CCIstretch_ratio;
#X obj 253 244 s CCItotal_time;
#X obj 348 244 s CCIwaiting;
#X connect 0 0 2 0;
#X connect 2 0 5 0;
#X connect 2 1 7 0;
#X connect 2 2 9 0;
#X connect 2 3 11 0;
#X connect 2 4 3 0;
#X connect 3 0 13 0;
#X connect 3 1 14 0;
#X connect 3 2 15 0;
#X connect 3 3 16 0;
#X connect 3 4 4 0;
#X connect 4 0 21 0;
#X connect 4 1 22 0;
#X connect 4 2 23 0;
#X connect 4 3 24 0;
#X connect 4 4 1 0;
#X connect 5 2 6 0;
#X connect 7 2 8 0;
#X connect 9 2 10 0;
#X connect 11 2 12 0;
#X connect 13 2 17 0;
#X connect 14 2 18 0;
#X connect 15 2 19 0;
#X connect 16 2 20 0;
#X connect 21 2 25 0;
#X connect 22 2 26 0;
#X connect 23 2 27 0;
#X connect 24 2 28 0;
#X restore 339 120 pd current_channel_interface_messages;
#X connect 0 0 3 0;
#X connect 1 0 21 0;
#X connect 1 1 22 0;
#X connect 1 2 4 0;
#X connect 2 5 29 0;
#X connect 3 0 6 0;
#X connect 3 1 7 0;
#X connect 3 2 9 0;
#X connect 3 3 1 0;
#X connect 4 0 17 0;
#X connect 4 1 18 0;
#X connect 4 2 26 0;
#X connect 6 2 5 0;
#X connect 7 2 8 0;
#X connect 9 2 10 0;
#X connect 11 2 14 0;
#X connect 12 2 16 0;
#X connect 13 2 15 0;
#X connect 17 2 19 0;
#X connect 18 2 20 0;
#X connect 21 2 23 0;
#X connect 22 2 24 0;
#X connect 26 0 11 0;
#X connect 26 1 12 0;
#X connect 26 2 13 0;
#X connect 26 3 28 0;
#X connect 26 4 2 0;
#X connect 28 2 27 0;
#X connect 29 0 25 0;
#X restore -5 166 pd processUpdates;
#X connect 1 0 3 0;
#X connect 1 1 2 0;
#X connect 1 1 3 1;
#X connect 3 0 9 0;
#X connect 4 0 1 0;
#X connect 4 1 6 0;
#X connect 6 0 5 0;
#X connect 9 0 10 0;
#X connect 9 1 8 0;
#X coords 0 -1 1 1 125 25 2 200 20;
#X restore 166 338 pd OSCin;
#N canvas 20 286 381 270 OSCout 0;
#X obj 131 10 inlet;
#X obj 131 35 packOSC;
#X floatatom 170 58 5 0 0 0 - - -;
#X text 204 59 bundle depth;
#X obj 48 151 bng 15 250 50 0 empty empty connect 20 7 0 8 -258113
-1 -1;
#X obj 47 120 tgl 15 0 empty empty connected 20 7 0 8 -4034 -45076
-1 1 1;
#X obj 48 169 bng 15 250 50 0 empty empty disconnect 20 7 0 8 -258113
-1 -1;
#X text 44 100 OSC OUT;
#X obj 131 220 udpsend;
#X obj 80 73 select 1;
#X obj 35 35 print OSCOUT;
#N canvas 66 60 332 451 do_after_connect 0;
#X obj 7 8 inlet;
#X obj 7 338 slOSCsender2;
#X obj 7 361 outlet;
#N canvas 452 34 702 583 global_register_update 0;
#X obj 17 18 inlet;
#X msg 233 70 3 /register_update tempo /updates/tempo;
#X msg 243 90 3 /register_update sync_source /updates/sync_source;
#X msg 263 143 3 /register_update tap_tempo /updates/tap_tempo;
#X msg 273 163 3 /register_update wet /updates/wet;
#X msg 283 183 3 /register_update dry /updates/dry;
#X msg 293 203 3 /register_update input_gain /updates/input_gain;
#X msg 303 223 3 /register_update auto_disable_latency /updates/auto_disable_latency
;
#X msg 313 256 3 /register_update output_midi_clock /updates/output_midi_clock
;
#X msg 323 289 3 /register_update use_midi_stop /updates/use_midi_stop
;
#X msg 333 309 3 /register_update use_midi_start /updates/use_midi_start
;
#X msg 343 329 3 /register_update send_midi_start_on_trigger /updates/send_midi_start_on_trigger
;
#X msg 353 362 3 /register_update smart_eighths /updates/smart_eighths
;
#X msg 253 110 3 /register_update eighth_per_cycle /updates/eighth_per_cycle
;
#X msg 383 448 3 /register_auto_update out_peak_meter /updates/out_peak_meter
;
#X msg 393 481 2 /register /updates/loops;
#X msg 363 382 4 /register_update selected_loop_num 100 /updates/selected_loop_num
;
#X msg 373 415 4 /register_auto_update in_peak_meter 100 /updates/in_peak_meter
;
#X obj 23 538 outlet;
#X connect 0 0 1 0;
#X connect 0 0 2 0;
#X connect 0 0 17 0;
#X connect 0 0 14 0;
#X connect 0 0 16 0;
#X connect 0 0 15 0;
#X connect 0 0 12 0;
#X connect 0 0 11 0;
#X connect 0 0 10 0;
#X connect 0 0 9 0;
#X connect 0 0 8 0;
#X connect 0 0 7 0;
#X connect 0 0 6 0;
#X connect 0 0 5 0;
#X connect 0 0 4 0;
#X connect 0 0 3 0;
#X connect 0 0 13 0;
#X connect 1 0 18 0;
#X connect 2 0 18 0;
#X connect 3 0 18 0;
#X connect 4 0 18 0;
#X connect 5 0 18 0;
#X connect 6 0 18 0;
#X connect 7 0 18 0;
#X connect 8 0 18 0;
#X connect 9 0 18 0;
#X connect 10 0 18 0;
#X connect 11 0 18 0;
#X connect 12 0 18 0;
#X connect 13 0 18 0;
#X connect 14 0 18 0;
#X connect 15 0 18 0;
#X connect 16 0 18 0;
#X connect 17 0 18 0;
#X restore 7 90 pd global_register_update;
#N canvas 13 47 755 577 global_get_update 0;
#X obj 17 18 inlet;
#X msg 373 100 3 /get tempo /updates/tempo;
#X msg 373 120 3 /get sync_source /updates/sync_source;
#X msg 373 140 3 /get eighth_per_cycle /updates/eighth_per_cycle;
#X msg 373 160 3 /get wet /updates/wet;
#X msg 373 180 3 /get dry /updates/dry;
#X msg 373 200 3 /get input_gain /updates/input_gain;
#X msg 373 220 3 /get auto_disable_latency /updates/auto_disable_latency
;
#X msg 373 240 3 /get output_midi_clock /updates/output_midi_clock
;
#X msg 373 260 3 /get use_midi_stop /updates/use_midi_stop;
#X msg 373 280 3 /get use_midi_start /updates/use_midi_start;
#X msg 373 300 3 /get send_midi_start_on_trigger /updates/send_midi_start_on_trigger
;
#X msg 373 333 3 /get smart_eighths /updates/smart_eighths;
#X msg 373 353 3 /get selected_loop_num /updates/selected_loop_num
;
#X msg 373 373 3 /get in_peak_meter /updates/in_peak_meter;
#X msg 373 393 3 /get out_peak_meter /updates/out_peak_meter;
#X obj 18 538 outlet;
#X connect 0 0 1 0;
#X connect 0 0 2 0;
#X connect 0 0 3 0;
#X connect 0 0 4 0;
#X connect 0 0 5 0;
#X connect 0 0 6 0;
#X connect 0 0 7 0;
#X connect 0 0 8 0;
#X connect 0 0 9 0;
#X connect 0 0 10 0;
#X connect 0 0 11 0;
#X connect 0 0 12 0;
#X connect 0 0 13 0;
#X connect 0 0 14 0;
#X connect 0 0 15 0;
#X connect 1 0 16 0;
#X connect 2 0 16 0;
#X connect 3 0 16 0;
#X connect 4 0 16 0;
#X connect 5 0 16 0;
#X connect 6 0 16 0;
#X connect 7 0 16 0;
#X connect 8 0 16 0;
#X connect 9 0 16 0;
#X connect 10 0 16 0;
#X connect 11 0 16 0;
#X connect 12 0 16 0;
#X connect 13 0 16 0;
#X connect 14 0 16 0;
#X connect 15 0 16 0;
#X restore 29 114 pd global_get_update;
#X connect 0 0 3 0;
#X connect 0 0 4 0;
#X connect 1 0 2 0;
#X connect 3 0 1 0;
#X connect 4 0 1 0;
#X restore 225 120 pd do_after_connect;
#N canvas 0 0 450 300 do_after_disconnect 0;
#X obj 3 5 inlet;
#X restore 225 159 pd do_after_disconnect;
#N canvas 0 0 450 300 do_before_connect 0;
#X obj 15 15 inlet;
#X obj 15 276 outlet;
#X msg 15 143 connect 127.0.0.1 9951;
#X connect 0 0 2 0;
#X connect 2 0 1 0;
#X restore 225 100 pd do_before_connect;
#N canvas 383 311 528 387 do_before_disconnect 0;
#X obj 57 244 outlet;
#X msg 57 194 disconnect;
#X obj 158 244 outlet;
#X obj 158 21 inlet;
#X obj 158 219 slOSCsender2;
#N canvas 0 0 730 575 global_unregister_update 0;
#X obj 18 16 inlet;
#X msg 234 68 3 /unregister_update tempo /updates/tempo;
#X msg 244 88 3 /unregister_update sync_source /updates/sync_source
;
#X msg 254 108 3 /unregister_update eighth_per_cycle /updates/eighth_per_cycle
;
#X msg 264 141 3 /unregister_update tap_tempo /updates/tap_tempo;
#X msg 274 161 3 /unregister_update wet /updates/wet;
#X msg 284 181 3 /unregister_update dry /updates/dry;
#X msg 294 201 3 /unregister_update input_gain /updates/input_gain
;
#X msg 304 221 3 /unregister_update auto_disable_latency /updates/auto_disable_latency
;
#X msg 314 254 3 /unregister_update output_midi_clock /updates/output_midi_clock
;
#X msg 324 287 3 /unregister_update use_midi_stop /updates/use_midi_stop
;
#X msg 334 307 3 /unregister_update use_midi_start /updates/use_midi_start
;
#X msg 344 327 3 /unregister_update send_midi_start_on_trigger /updates/send_midi_start_on_trigger
;
#X msg 354 360 3 /unregister_update smart_eighths /updates/smart_eighths
;
#X msg 364 380 3 /unregister_update selected_loop_num /updates/selected_loop_num
;
#X msg 374 413 3 /unregister_auto_update in_peak_meter /updates/in_peak_meter
;
#X msg 384 446 3 /unregister_auto_update out_peak_meter /updates/out_peak_meter
;
#X obj 24 536 outlet;
#X connect 0 0 1 0;
#X connect 0 0 2 0;
#X connect 0 0 15 0;
#X connect 0 0 16 0;
#X connect 0 0 14 0;
#X connect 0 0 13 0;
#X connect 0 0 12 0;
#X connect 0 0 11 0;
#X connect 0 0 10 0;
#X connect 0 0 9 0;
#X connect 0 0 8 0;
#X connect 0 0 7 0;
#X connect 0 0 6 0;
#X connect 0 0 5 0;
#X connect 0 0 4 0;
#X connect 0 0 3 0;
#X connect 1 0 17 0;
#X connect 2 0 17 0;
#X connect 3 0 17 0;
#X connect 4 0 17 0;
#X connect 5 0 17 0;
#X connect 6 0 17 0;
#X connect 7 0 17 0;
#X connect 8 0 17 0;
#X connect 9 0 17 0;
#X connect 10 0 17 0;
#X connect 11 0 17 0;
#X connect 12 0 17 0;
#X connect 13 0 17 0;
#X connect 14 0 17 0;
#X connect 15 0 17 0;
#X connect 16 0 17 0;
#X restore 158 194 pd global_unregister_update;
#X obj 170 45 s disable_monitors_current;
#X connect 1 0 0 0;
#X connect 3 0 1 0;
#X connect 3 0 5 0;
#X connect 3 0 6 0;
#X connect 4 0 2 0;
#X connect 5 0 4 0;
#X restore 225 140 pd do_before_disconnect;
#X obj 169 10 r slOSCout;
#X connect 0 0 1 0;
#X connect 1 0 8 0;
#X connect 1 1 2 0;
#X connect 4 0 13 0;
#X connect 5 0 9 0;
#X connect 6 0 14 0;
#X connect 8 0 5 0;
#X connect 9 0 11 0;
#X connect 9 1 12 0;
#X connect 11 0 1 0;
#X connect 13 0 8 0;
#X connect 14 0 8 0;
#X connect 14 1 1 0;
#X connect 15 0 1 0;
#X coords 0 -1 1 1 125 90 2 40 100;
#X restore 166 241 pd OSCout;
#N canvas 719 464 461 198 add_del_loop-\$0 0;
#X msg 229 63 send /loop_del -1;
#X obj 28 80 bng 15 250 50 0 empty empty remove_last_loop 17 7 0 8
-258113 -1 -1;
#X obj 28 45 bng 15 250 50 0 empty empty add_mono_loop 17 7 0 8 -258113
-1 -1;
#X obj 28 25 bng 15 250 50 0 empty empty add_stereo_loop 17 7 0 8 -258113
-1 -1;
#X obj 148 25 nbx 3 14 4 360 0 1 empty empty secs 34 8 0 8 -258113
-1 -1 60 256;
#X msg 249 22 send /loop_add 2 \$1;
#X obj 148 45 nbx 3 14 4 360 0 1 empty empty secs 34 8 0 8 -258113
-1 -1 60 256;
#X msg 239 42 send /loop_add 1 \$1;
#X obj 277 103 s slOSCout;
#X obj 156 81 nbx 5 14 0 1e+37 0 0 empty SLloops loops 0 -8 0 8 -262144
-1 -1 2 256;
#X obj 91 -11 f;
#X obj 91 114 f;
#X connect 0 0 8 0;
#X connect 1 0 0 0;
#X connect 2 0 11 0;
#X connect 3 0 10 0;
#X connect 4 0 10 1;
#X connect 5 0 8 0;
#X connect 6 0 11 1;
#X connect 7 0 8 0;
#X connect 10 0 5 0;
#X connect 11 0 7 0;
#X coords 0 -1 1 1 200 80 2 20 20;
#X restore 51 371 pd add_del_loop-\$0;
#N canvas 21 56 498 514 global_monitors-\$0 0;
#X obj 108 118 nbx 5 14 0 1e+37 0 0 empty SLtempo tempo_bpm 0 -8 0
8 -262144 -1 -1 110 256;
#X obj 228 118 nbx 3 14 0 512 0 0 empty SLselected_loop_num selected_loop
0 -8 0 8 -262144 -1 -1 0 256;
#X obj 289 260 nbx 5 14 0 1e+37 0 0 empty SLout_peak_meter out_peak
0 22 0 8 -262144 -1 -1 0 256;
#X obj 108 259 nbx 3 14 0 1 0 0 empty SLwet wet 0 22 0 8 -262144 -1
-1 1 256;
#X obj 148 259 nbx 3 14 0 1 0 0 empty SLdry dry 0 22 0 8 -262144 -1
-1 0 256;
#X obj 344 260 nbx 5 14 0 1e+37 0 0 empty SLin_peak_meter in_peak 0
22 0 8 -262144 -1 -1 0.00107384 256;
#X obj 188 118 nbx 3 14 0 512 0 0 empty SLloops loops 0 -8 0 8 -262144
-1 -1 2 256;
#X obj 345 132 vu 15 120 empty empty -1 -8 0 8 -66577 -1 1 0;
#X obj 423 161 * 111;
#X obj 424 185 - 99;
#X obj 290 132 vu 15 120 empty empty -1 -8 0 8 -66577 -1 1 0;
#X obj 428 221 * 111;
#X obj 429 245 - 99;
#X obj 188 259 nbx 3 14 0 1e+37 0 0 empty SLinput_gain input_gain 0
22 0 8 -262144 -1 -1 1 256;
#X obj 188 153 vsl 25 100 0 1 0 0 empty empty empty 0 -9 0 10 -262144
-1 -1 0 1;
#X obj 148 153 vsl 25 100 0 1 0 0 empty empty empty 0 -9 0 10 -262144
-1 -1 0 1;
#X obj 108 153 vsl 25 100 0 1 0 0 empty empty empty 0 -9 0 10 -262144
-1 -1 0 1;
#X connect 2 0 11 0;
#X connect 5 0 8 0;
#X connect 8 0 9 0;
#X connect 9 0 7 0;
#X connect 11 0 12 0;
#X connect 12 0 10 0;
#X coords 0 -1 1 1 300 200 2 100 100;
#X restore -9 31 pd global_monitors-\$0;
#N canvas 221 240 415 321 sync_interface 0;
#N canvas 704 25 574 562 sync_source_interface 0;
#X obj 111 63 nbx 2 14 -3 128 0 0 empty SLsync_source sync_source 0
-8 0 8 -262144 -1 -1 0 256;
#X obj 203 63 bng 15 250 50 0 empty empty empty -46 7 0 8 -258113 -1
-1;
#X symbolatom 138 62 10 0 0 0 - SLsync_source_message -;
#X obj 241 85 + 1;
#X obj 203 85 f;
#X obj 241 107 moses 1;
#X obj 280 85 + 1;
#X obj 280 129 bng 15 250 50 0 empty empty empty 17 7 0 10 -262144
-1 -1;
#X msg 280 148 -4;
#X msg 241 171 send /set sync_source \$1;
#X obj -112 101 select -3 -2 -1 0 1 2 3 4 5 6 7 8 9 10 11 12;
#X msg -112 465 set Internal;
#X msg -96 445 set Midi;
#X msg -80 425 set Jack;
#X msg -64 405 set None;
#X msg -31 365 set Loop2;
#X msg -47 385 set Loop1;
#X msg -15 345 set Loop3;
#X msg 2 325 set Loop4;
#X msg 18 305 set Loop5;
#X msg 34 285 set Loop6;
#X msg 51 265 set Loop7;
#X msg 67 245 set Loop8;
#X msg 83 225 set Loop9;
#X msg 100 205 set Loop10;
#X msg 116 185 set Loop11;
#X msg 132 165 set Loop12;
#X msg 149 145 set MOARLOOPS;
#X obj 200 509 s SLsync_source_message;
#X obj 241 194 s slOSCout;
#X obj 280 67 nbx 5 14 0 1e+37 0 0 empty SLloops loops 0 -8 0 8 -262144
-1 -1 2 256;
#X connect 0 0 10 0;
#X connect 1 0 4 0;
#X connect 3 0 4 1;
#X connect 3 0 5 0;
#X connect 4 0 3 0;
#X connect 5 0 9 0;
#X connect 5 1 7 0;
#X connect 6 0 5 1;
#X connect 7 0 8 0;
#X connect 8 0 4 0;
#X connect 9 0 29 0;
#X connect 10 0 11 0;
#X connect 10 1 12 0;
#X connect 10 2 13 0;
#X connect 10 3 14 0;
#X connect 10 4 16 0;
#X connect 10 5 15 0;
#X connect 10 6 17 0;
#X connect 10 7 18 0;
#X connect 10 8 19 0;
#X connect 10 9 20 0;
#X connect 10 10 21 0;
#X connect 10 11 22 0;
#X connect 10 12 23 0;
#X connect 10 13 24 0;
#X connect 10 14 25 0;
#X connect 10 15 26 0;
#X connect 10 16 27 0;
#X connect 11 0 28 0;
#X connect 12 0 28 0;
#X connect 13 0 28 0;
#X connect 14 0 28 0;
#X connect 15 0 28 0;
#X connect 16 0 28 0;
#X connect 17 0 28 0;
#X connect 18 0 28 0;
#X connect 19 0 28 0;
#X connect 20 0 28 0;
#X connect 21 0 28 0;
#X connect 22 0 28 0;
#X connect 23 0 28 0;
#X connect 24 0 28 0;
#X connect 25 0 28 0;
#X connect 26 0 28 0;
#X connect 27 0 28 0;
#X connect 30 0 6 0;
#X coords 0 -1 1 1 125 30 2 100 50;
#X restore 25 101 pd sync_source_interface;
#X obj 55 51 nbx 3 14 0 1e+37 0 0 empty SLeighths_per_cycle 8th/cycle
0 -8 0 8 -262144 -1 -1 0 256;
#X obj 45 76 tgl 15 0 empty SLsmart_eighths auto_8th 17 7 0 8 -262144
-1 -1 1 1;
#X obj 331 285 s slOSCout;
#X msg 151 197 send /set smart_eighths \$1;
#X obj 115 76 bng 15 250 50 0 empty empty empty -46 7 0 8 -258113 -1
-1;
#X obj 151 154 + 1;
#X obj 113 154 float;
#X obj 151 176 mod 2;
#X obj 91 51 nbx 3 14 0 64 0 0 empty empty empty 0 -8 0 8 -258113 -1
-1 0 256;
#X msg 189 15 4;
#X msg 219 15 8;
#X msg 249 15 16;
#X msg 279 15 32;
#X msg 184 80 send /set eighth_per_cycle \$1;
#X obj 33 14 bng 20 250 50 0 empty empty 4 7 11 0 8 -258113 -1 -1;
#X obj 63 14 bng 20 250 50 0 empty empty 8 7 11 0 8 -258113 -1 -1;
#X obj 93 14 bng 20 250 50 0 empty empty 16 4 11 0 8 -258113 -1 -1
;
#X obj 123 14 bng 20 250 50 0 empty empty 32 4 11 0 8 -258113 -1 -1
;
#X connect 4 0 3 0;
#X connect 5 0 7 0;
#X connect 6 0 7 1;
#X connect 6 0 8 0;
#X connect 7 0 6 0;
#X connect 8 0 4 0;
#X connect 9 0 14 0;
#X connect 10 0 9 0;
#X connect 11 0 9 0;
#X connect 12 0 9 0;
#X connect 13 0 9 0;
#X connect 14 0 3 0;
#X connect 15 0 10 0;
#X connect 16 0 11 0;
#X connect 17 0 12 0;
#X connect 18 0 13 0;
#X coords 0 -1 1 1 135 125 2 20 10;
#X restore -9 241 pd sync_interface;
#X obj -16 459 cnv 15 320 60 empty empty empty 20 12 0 14 -257985 -66577
0;
#X text -9 462 emOSCulator - puredata sooperlooper interface;
#X text -10 482 controls are in red - changing other items can have
unexpected results;
#N canvas 314 25 610 615 current_loop_interface 1;
#X obj 158 124 nbx 3 14 0 512 0 0 empty SLselected_loop_num selected_loop
33 7 0 8 -262144 -1 -1 0 256;
#X obj 99 550 slOSCsender2;
#N canvas 31 40 1108 473 register_auto_update_current 0;
#X obj 8 69 inlet;
#X obj 8 228 outlet;
#X msg 273 48 4 /sl/-3/register_auto_update next_state 100 /updates/next_state
;
#X msg 263 81 4 /sl/-3/register_auto_update loop_pos 100 /updates/loop_pos
;
#X msg 244 122 4 /sl/-3/register_auto_update cycle_len 100 /updates/cycle_len
;
#X msg 234 155 4 /sl/-3/register_auto_update free_time 100 /updates/free_time
;
#X msg 214 221 4 /sl/-3/register_auto_update waiting 100 /updates/waiting
;
#X msg 204 241 4 /sl/-3/register_auto_update rate_output 100 /updates/rate_output
;
#X msg 194 275 4 /sl/-3/register_auto_update in_peak_meter 100 /updates/in_peak_meter
;
#X msg 184 308 4 /sl/-3/register_auto_update out_peak_meter 100 /updates/out_peak_meter
;
#X msg 164 374 4 /sl/-3/register_auto_update stretch_ratio 100 /updates/stretch_ratio
;
#X msg 154 407 4 /sl/-3/register_auto_update pitch_shift 100 /updates/pitch_shift
;
#X msg 174 341 4 /sl/-3/register_auto_update is_soloed 100 /updates/is_soloed
;
#X msg 224 188 4 /sl/-3/register_auto_update total_time 100 /updates/total_time
;
#X msg 254 102 4 /sl/-3/register_auto_update loop_len 100 /updates/loop_len
;
#X msg 283 28 4 /sl/-3/register_auto_update state 100 /updates/state
;
#X msg 813 158 3 /sl/-3/get state /updates/state;
#X msg 803 178 3 /sl/-3/get next_state /updates/next_state;
#X msg 793 197 3 /sl/-3/get loop_pos /updates/loop_pos;
#X msg 784 218 3 /sl/-3/get loop_len /updates/loop_len;
#X msg 774 238 3 /sl/-3/get cycle_len /updates/cycle_len;
#X msg 764 257 3 /sl/-3/get free_time /updates/free_time;
#X msg 754 276 3 /sl/-3/get total_time /updates/total_time;
#X msg 744 295 3 /sl/-3/get waiting /updates/waiting;
#X msg 734 315 3 /sl/-3/get rate_output /updates/rate_output;
#X msg 724 335 3 /sl/-3/get in_peak_meter /updates/in_peak_meter;
#X msg 714 355 3 /sl/-3/get out_peak_meter /updates/out_peak_meter
;
#X msg 704 375 3 /sl/-3/get is_soloed /updates/is_soloed;
#X msg 694 395 3 /sl/-3/get stretch_ratio /updates/stretch_ratio;
#X msg 684 415 3 /sl/-3/get pitch_shift /updates/pitch_shift;
#X connect 0 0 15 0;
#X connect 0 0 2 0;
#X connect 0 0 3 0;
#X connect 0 0 14 0;
#X connect 0 0 4 0;
#X connect 0 0 5 0;
#X connect 0 0 13 0;
#X connect 0 0 6 0;
#X connect 0 0 7 0;
#X connect 0 0 8 0;
#X connect 0 0 9 0;
#X connect 0 0 12 0;
#X connect 0 0 10 0;
#X connect 0 0 11 0;
#X connect 0 0 16 0;
#X connect 0 0 17 0;
#X connect 0 0 18 0;
#X connect 0 0 19 0;
#X connect 0 0 20 0;
#X connect 0 0 21 0;
#X connect 0 0 22 0;
#X connect 0 0 23 0;
#X connect 0 0 24 0;
#X connect 0 0 25 0;
#X connect 0 0 26 0;
#X connect 0 0 27 0;
#X connect 0 0 28 0;
#X connect 0 0 29 0;
#X connect 2 0 1 0;
#X connect 3 0 1 0;
#X connect 4 0 1 0;
#X connect 5 0 1 0;
#X connect 6 0 1 0;
#X connect 7 0 1 0;
#X connect 8 0 1 0;
#X connect 9 0 1 0;
#X connect 10 0 1 0;
#X connect 11 0 1 0;
#X connect 12 0 1 0;
#X connect 13 0 1 0;
#X connect 14 0 1 0;
#X connect 15 0 1 0;
#X connect 16 0 1 0;
#X connect 17 0 1 0;
#X connect 18 0 1 0;
#X connect 19 0 1 0;
#X connect 20 0 1 0;
#X connect 21 0 1 0;
#X connect 22 0 1 0;
#X connect 23 0 1 0;
#X connect 24 0 1 0;
#X connect 25 0 1 0;
#X connect 26 0 1 0;
#X connect 27 0 1 0;
#X connect 28 0 1 0;
#X connect 29 0 1 0;
#X restore 19 516 pd register_auto_update_current;
#X obj 29 123 tgl 15 0 empty empty enable_monitors 17 7 0 8 -258113
-1 -1 0 1;
#X obj 99 482 select 1;
#N canvas 533 40 685 503 unregister_auto_update_current 0;
#X obj 8 69 inlet;
#X obj 8 228 outlet;
#X msg 273 108 3 /sl/-3/unregister_auto_update next_state /updates/next_state
;
#X msg 263 141 3 /sl/-3/unregister_auto_update loop_pos /updates/loop_pos
;
#X msg 244 182 3 /sl/-3/unregister_auto_update cycle_len /updates/cycle_len
;
#X msg 234 202 3 /sl/-3/unregister_auto_update free_time /updates/free_time
;
#X msg 214 255 3 /sl/-3/unregister_auto_update waiting /updates/waiting
;
#X msg 204 275 3 /sl/-3/unregister_auto_update rate_output /updates/rate_output
;
#X msg 194 309 3 /sl/-3/unregister_auto_update in_peak_meter /updates/in_peak_meter
;
#X msg 184 342 3 /sl/-3/unregister_auto_update out_peak_meter /updates/out_peak_meter
;
#X msg 164 395 3 /sl/-3/unregister_auto_update stretch_ratio /updates/stretch_ratio
;
#X msg 154 428 3 /sl/-3/unregister_auto_update pitch_shift /updates/pitch_shift
;
#X msg 283 88 3 /sl/-3/unregister_auto_update state /updates/state
;
#X msg 254 162 3 /sl/-3/unregister_auto_update loop_len /updates/loop_len
;
#X msg 224 222 3 /sl/-3/unregister_auto_update total_time /updates/total_time
;
#X msg 174 375 3 /sl/-3/unregister_auto_update is_soloed /updates/is_soloed
;
#X connect 0 0 12 0;
#X connect 0 0 2 0;
#X connect 0 0 3 0;
#X connect 0 0 13 0;
#X connect 0 0 4 0;
#X connect 0 0 5 0;
#X connect 0 0 14 0;
#X connect 0 0 6 0;
#X connect 0 0 7 0;
#X connect 0 0 8 0;
#X connect 0 0 9 0;
#X connect 0 0 15 0;
#X connect 0 0 10 0;
#X connect 0 0 11 0;
#X connect 2 0 1 0;
#X connect 3 0 1 0;
#X connect 4 0 1 0;
#X connect 5 0 1 0;
#X connect 6 0 1 0;
#X connect 7 0 1 0;
#X connect 8 0 1 0;
#X connect 9 0 1 0;
#X connect 10 0 1 0;
#X connect 11 0 1 0;
#X connect 12 0 1 0;
#X connect 13 0 1 0;
#X connect 14 0 1 0;
#X connect 15 0 1 0;
#X restore 219 516 pd unregister_auto_update_current;
#X obj 19 16 r disable_monitors_current;
#X msg 19 36 set 0;
#X obj 19 589 s slOSCout;
#X obj 29 162 nbx 5 14 0 1e+37 0 0 empty CCIcycle_len cycle_len 0 -8
0 8 -262144 -1 -1 0 256;
#X obj 29 192 nbx 5 14 0 1e+37 0 0 empty CCIfree_time free_time 0 -8
0 8 -262144 -1 -1 95.1089 256;
#X obj 279 222 nbx 5 14 0 1e+37 0 0 empty CCIis_soloed is_soloed 0
-8 0 8 -262144 -1 -1 0 256;
#X obj 279 162 nbx 5 14 0 1e+37 0 0 empty CCIloop_len loop_len 0 -8
0 8 -262144 -1 -1 0 256;
#X obj 279 192 nbx 5 14 0 1e+37 0 0 empty CCIloop_pos loop_pos 0 -8
0 8 -262144 -1 -1 0 256;
#X obj 479 224 nbx 5 14 0 1e+37 0 0 empty CCInext_state next_state
0 -8 0 8 -262144 -1 -1 0 256;
#X obj 109 192 nbx 5 14 0 1e+37 0 0 empty CCIpitch_shift pitch_shift
0 -8 0 8 -262144 -1 -1 0 256;
#X obj 479 172 nbx 5 14 0 1e+37 0 0 empty CCIstate state 0 -8 0 8 -262144
-1 -1 0 256;
#X obj 199 162 nbx 5 14 0 1e+37 0 0 empty CCIrate_output rate_output
0 -8 0 8 -262144 -1 -1 1 256;
#X obj 109 162 nbx 5 14 0 1e+37 0 0 empty CCIstretch_ratio stretch_ratio
0 -8 0 8 -262144 -1 -1 1 256;
#X obj 199 192 nbx 5 14 0 1e+37 0 0 empty CCItotal_time total_time
0 -8 0 8 -262144 -1 -1 95.1089 256;
#X obj 379 162 nbx 5 14 0 1e+37 0 0 empty CCIwaiting waiting 0 -8 0
8 -262144 -1 -1 0 256;
#X symbolatom 379 222 12 0 0 2 next_state - -;
#N canvas 0 0 488 522 parse_state 0;
#X obj 72 26 inlet;
#X obj 72 56 select -1 0 1 2 3 4 5 6 7 8 9 10 11 12 13 14;
#X msg 72 420 set Unknown;
#X msg 88 400 set Off;
#X msg 104 380 set WaitStart;
#X msg 120 360 set Recording;
#X msg 137 340 set WaitStop;
#X msg 153 320 set Playing;
#X msg 169 300 set Overdubbing;
#X msg 186 280 set Multiplying;
#X msg 202 260 set Inserting;
#X msg 218 240 set Replacing;
#X msg 235 220 set Delay;
#X msg 251 200 set Muted;
#X msg 267 180 set Scratching;
#X msg 284 160 set OneShot;
#X msg 300 140 set Substitute;
#X msg 316 120 set Paused;
#X msg 333 100 set Unknown2;
#X obj 384 464 outlet;
#X connect 0 0 1 0;
#X connect 1 0 2 0;
#X connect 1 1 3 0;
#X connect 1 2 4 0;
#X connect 1 3 5 0;
#X connect 1 4 6 0;
#X connect 1 5 7 0;
#X connect 1 6 8 0;
#X connect 1 7 9 0;
#X connect 1 8 10 0;
#X connect 1 9 11 0;
#X connect 1 10 12 0;
#X connect 1 11 13 0;
#X connect 1 12 14 0;
#X connect 1 13 15 0;
#X connect 1 14 16 0;
#X connect 1 15 17 0;
#X connect 1 16 18 0;
#X connect 2 0 19 0;
#X connect 3 0 19 0;
#X connect 4 0 19 0;
#X connect 5 0 19 0;
#X connect 6 0 19 0;
#X connect 7 0 19 0;
#X connect 8 0 19 0;
#X connect 9 0 19 0;
#X connect 10 0 19 0;
#X connect 11 0 19 0;
#X connect 12 0 19 0;
#X connect 13 0 19 0;
#X connect 14 0 19 0;
#X connect 15 0 19 0;
#X connect 16 0 19 0;
#X connect 17 0 19 0;
#X connect 18 0 19 0;
#X restore 479 191 pd parse_state;
#N canvas 0 0 488 522 parse_next_state 0;
#X obj 72 36 inlet;
#X obj 72 66 select -1 0 1 2 3 4 5 6 7 8 9 10 11 12 13 14;
#X msg 72 430 set Unknown;
#X msg 88 410 set Off;
#X msg 104 390 set WaitStart;
#X msg 120 370 set Recording;
#X msg 137 350 set WaitStop;
#X msg 153 330 set Playing;
#X msg 169 310 set Overdubbing;
#X msg 186 290 set Multiplying;
#X msg 202 270 set Inserting;
#X msg 218 250 set Replacing;
#X msg 235 230 set Delay;
#X msg 251 210 set Muted;
#X msg 267 190 set Scratching;
#X msg 284 170 set OneShot;
#X msg 300 150 set Substitute;
#X msg 316 130 set Paused;
#X msg 333 110 set Unknown2;
#X obj 384 474 outlet;
#X connect 0 0 1 0;
#X connect 1 0 2 0;
#X connect 1 1 3 0;
#X connect 1 2 4 0;
#X connect 1 3 5 0;
#X connect 1 4 6 0;
#X connect 1 5 7 0;
#X connect 1 6 8 0;
#X connect 1 7 9 0;
#X connect 1 8 10 0;
#X connect 1 9 11 0;
#X connect 1 10 12 0;
#X connect 1 11 13 0;
#X connect 1 12 14 0;
#X connect 1 13 15 0;
#X connect 1 14 16 0;
#X connect 1 15 17 0;
#X connect 1 16 18 0;
#X connect 2 0 19 0;
#X connect 3 0 19 0;
#X connect 4 0 19 0;
#X connect 5 0 19 0;
#X connect 6 0 19 0;
#X connect 7 0 19 0;
#X connect 8 0 19 0;
#X connect 9 0 19 0;
#X connect 10 0 19 0;
#X connect 11 0 19 0;
#X connect 12 0 19 0;
#X connect 13 0 19 0;
#X connect 14 0 19 0;
#X connect 15 0 19 0;
#X connect 16 0 19 0;
#X connect 17 0 19 0;
#X connect 18 0 19 0;
#X restore 479 243 pd parse_next_state;
#X symbolatom 379 192 12 0 0 2 state - -;
#N canvas 473 25 470 697 SLcommand_buttons 0;
#X obj 22 20 bng 20 250 50 0 empty empty RECORD 22 10 0 10 -258113
-1 -1;
#X obj 22 50 bng 20 250 50 0 empty empty OVERDUB 22 10 0 10 -258113
-1 -1;
#X obj 22 120 bng 20 250 50 0 empty empty MULTIPLY 22 10 0 10 -258113
-1 -1;
#X obj 22 80 bng 20 250 50 0 empty empty INSERT 22 10 0 10 -258113
-1 -1;
#X obj 122 20 bng 20 250 50 0 empty empty REPLACE 22 10 0 10 -258113
-1 -1;
#X obj 122 50 bng 20 250 50 0 empty empty REVERSE 22 10 0 10 -258113
-1 -1;
#X obj 122 120 bng 20 250 50 0 empty empty MUTE 22 10 0 10 -258113
-1 -1;
#X obj 362 20 bng 20 250 50 0 empty empty UNDO 22 10 0 10 -258113 -1
-1;
#X obj 362 50 bng 20 250 50 0 empty empty REDO 22 10 0 10 -258113 -1
-1;
#X obj 242 20 bng 20 250 50 0 empty empty ONESHOT 22 10 0 10 -258113
-1 -1;
#X obj 242 50 bng 20 250 50 0 empty empty TRIGGER 22 10 0 10 -258113
-1 -1;
#X obj 122 80 bng 20 250 50 0 empty empty SUBSTITUTE 22 10 0 10 -258113
-1 -1;
#X obj 362 80 bng 20 250 50 0 empty empty UNDO_ALL 22 10 0 10 -258113
-1 -1;
#X obj 362 110 bng 20 250 50 0 empty empty REDO_ALL 22 10 0 10 -258113
-1 -1;
#X obj 322 250 bng 20 250 50 0 empty empty MUTE_ON 22 10 0 10 -258113
-1 -1;
#X obj 322 280 bng 20 250 50 0 empty empty MUTE_OFF 22 10 0 10 -258113
-1 -1;
#X obj 272 120 bng 20 250 50 0 empty empty SOLO 22 10 0 10 -258113
-1 -1;
#X obj 192 120 bng 20 250 50 0 empty empty PAUSE 22 10 0 10 -258113
-1 -1;
#X obj 32 250 bng 20 250 50 0 empty empty SOLO_NEXT 22 10 0 10 -258113
-1 -1;
#X obj 142 280 bng 20 250 50 0 empty empty RECORD_SOLO_PREV 22 10 0
10 -258113 -1 -1;
#X obj 32 280 bng 20 250 50 0 empty empty SOLO_PREV 22 10 0 10 -258113
-1 -1;
#X obj 142 220 bng 20 250 50 0 empty empty RECORD_SOLO 22 10 0 10 -258113
-1 -1;
#X obj 142 250 bng 20 250 50 0 empty empty RECORD_SOLO_NEXT 22 10 0
10 -258113 -1 -1;
#X obj 22 150 bng 20 250 50 0 empty empty SET_SYNC_POS 22 10 0 10 -258113
-1 -1;
#X obj 192 150 bng 20 250 50 0 empty empty RESET_SYNC_POS 22 10 0 10
-258113 -1 -1;
#X msg 62 330 send /sl/-3/hit record;
#X msg 62 350 send /sl/-3/hit overdub;
#X msg 62 370 send /sl/-3/hit multiply;
#X msg 62 390 send /sl/-3/hit insert;
#X msg 62 410 send /sl/-3/hit solo;
#X msg 62 430 send /sl/-3/hit solo_next;
#X msg 62 450 send /sl/-3/hit solo_prev;
#X msg 262 330 send /sl/-3/hit replace;
#X msg 262 350 send /sl/-3/hit reverse;
#X msg 262 370 send /sl/-3/hit mute;
#X msg 262 390 send /sl/-3/hit undo;
#X msg 262 410 send /sl/-3/hit record_solo;
#X msg 262 430 send /sl/-3/hit record_solo_next;
#X msg 262 450 send /sl/-3/hit record_solo_prev;
#X msg 62 470 send /sl/-3/hit undo_all;
#X msg 62 490 send /sl/-3/hit redo_all;
#X msg 62 510 send /sl/-3/hit mute_on;
#X msg 62 530 send /sl/-3/hit mute_off;
#X msg 262 470 send /sl/-3/hit redo;
#X msg 262 490 send /sl/-3/hit oneshot;
#X msg 262 510 send /sl/-3/hit trigger;
#X msg 262 530 send /sl/-3/hit substitute;
#X msg 262 550 send /sl/-3/hit pause;
#X msg 262 570 send /sl/-3/hit set_sync_pos;
#X msg 262 590 send /sl/-3/hit reset_sync_pos;
#X obj 163 663 print SLoscout;
#X connect 0 0 25 0;
#X connect 1 0 26 0;
#X connect 2 0 27 0;
#X connect 3 0 28 0;
#X connect 4 0 32 0;
#X connect 5 0 33 0;
#X connect 6 0 34 0;
#X connect 7 0 35 0;
#X connect 8 0 43 0;
#X connect 9 0 44 0;
#X connect 10 0 45 0;
#X connect 11 0 46 0;
#X connect 12 0 39 0;
#X connect 13 0 40 0;
#X connect 14 0 41 0;
#X connect 15 0 42 0;
#X connect 16 0 29 0;
#X connect 17 0 47 0;
#X connect 18 0 30 0;
#X connect 19 0 38 0;
#X connect 20 0 31 0;
#X connect 21 0 36 0;
#X connect 22 0 37 0;
#X connect 23 0 48 0;
#X connect 24 0 49 0;
#X connect 25 0 50 0;
#X connect 26 0 50 0;
#X connect 27 0 50 0;
#X connect 28 0 50 0;
#X connect 29 0 50 0;
#X connect 30 0 50 0;
#X connect 31 0 50 0;
#X connect 32 0 50 0;
#X connect 33 0 50 0;
#X connect 34 0 50 0;
#X connect 35 0 50 0;
#X connect 36 0 50 0;
#X connect 37 0 50 0;
#X connect 38 0 50 0;
#X connect 39 0 50 0;
#X connect 40 0 50 0;
#X connect 41 0 50 0;
#X connect 42 0 50 0;
#X connect 43 0 50 0;
#X connect 44 0 50 0;
#X connect 45 0 50 0;
#X connect 46 0 50 0;
#X connect 47 0 50 0;
#X connect 48 0 50 0;
#X connect 49 0 50 0;
#X coords 0 -1 1 1 450 170 2 10 10;
#X restore 19 247 pd SLcommand_buttons;
#X connect 1 0 8 0;
#X connect 2 0 1 0;
#X connect 3 0 4 0;
#X connect 4 0 2 0;
#X connect 4 1 5 0;
#X connect 5 0 1 0;
#X connect 6 0 7 0;
#X connect 7 0 3 0;
#X connect 14 0 23 0;
#X connect 16 0 22 0;
#X connect 22 0 24 0;
#X connect 23 0 21 0;
#X restore 64 527 pd current_loop_interface;
