#N canvas 881 25 397 560 10;
#N canvas 617 71 570 325 OSCin 0;
#X text 103 34 SERVER;
#X obj -5 47 unpackOSC;
#X floatatom 52 84 10 0 0 1 millisecond_delay - -;
#X obj -5 84 pipelist;
#X obj -5 17 udpreceive 9950;
#X msg 96 51 127.0.0.1;
#X msg 96 17 set \$1.\$2.\$3.\$4;
#X text 205 22 OSC IN;
#X obj 94 136 print incomingOSC;
#X obj -5 109 routeOSC /updates;
#N canvas 0 287 838 395 processUpdates 0;
#X obj 5 14 inlet;
#X obj 5 131 routeOSC /eighth_per_cycle /smart_eighths;
#X obj 339 44 routeOSC /auto_disable_latency /output_midi_clock /use_midi_start
/use_midi_stop /send_midi_start_on_trigger;
#X obj 5 51 routeOSC /tempo /sync_source /selected_loop_num;
#X obj 5 211 routeOSC /input_gain /in_peak_meter;
#X obj 5 100 s SLtempo;
#X obj 5 76 unpack f s f;
#X obj 84 76 unpack f s f;
#X obj 84 100 s SLsync_source;
#X obj 181 76 unpack f s f;
#X obj 181 100 s SLselected_loop_num;
#X obj 5 323 unpack f s f;
#X obj 120 323 unpack f s f;
#X obj 200 323 unpack f s f;
#X obj 5 347 s SLout_peak_meter;
#X obj 200 347 s SLdry;
#X obj 120 347 s SLwet;
#X obj 5 238 unpack f s f;
#X obj 105 238 unpack f s f;
#X obj 5 262 s SLinput_gain;
#X obj 105 262 s SLin_peak_meter;
#X obj 5 158 unpack f s f;
#X obj 135 158 unpack f s f;
#X obj 5 182 s SLeighth_per_cycle;
#X obj 135 182 s SLsmart_eighths;
#X obj 663 106 print UNKNOWN_UPDATE;
#X obj 5 291 routeOSC /out_peak_meter /wet /dry /loops;
#X obj 280 347 s SLloops;
#X obj 280 323 unpack s s f;
#X connect 0 0 3 0;
#X connect 1 0 21 0;
#X connect 1 1 22 0;
#X connect 1 2 4 0;
#X connect 2 5 25 0;
#X connect 3 0 6 0;
#X connect 3 1 7 0;
#X connect 3 2 9 0;
#X connect 3 3 1 0;
#X connect 4 0 17 0;
#X connect 4 1 18 0;
#X connect 4 2 26 0;
#X connect 6 2 5 0;
#X connect 7 2 8 0;
#X connect 9 2 10 0;
#X connect 11 2 14 0;
#X connect 12 2 16 0;
#X connect 13 2 15 0;
#X connect 17 2 19 0;
#X connect 18 2 20 0;
#X connect 21 2 23 0;
#X connect 22 2 24 0;
#X connect 26 0 11 0;
#X connect 26 1 12 0;
#X connect 26 2 13 0;
#X connect 26 3 28 0;
#X connect 26 4 2 0;
#X connect 28 2 27 0;
#X restore -5 166 pd processUpdates;
#X connect 1 0 3 0;
#X connect 1 1 2 0;
#X connect 1 1 3 1;
#X connect 3 0 9 0;
#X connect 4 0 1 0;
#X connect 4 1 6 0;
#X connect 6 0 5 0;
#X connect 9 0 10 0;
#X connect 9 1 8 0;
#X coords 0 -1 1 1 125 25 2 200 20;
#X restore 166 338 pd OSCin;
#N canvas 465 51 381 270 OSCout 0;
#X obj 131 10 inlet;
#X obj 131 35 packOSC;
#X floatatom 170 58 5 0 0 0 - - -;
#X text 204 59 bundle depth;
#X obj 48 151 bng 15 250 50 0 empty empty connect 20 7 0 8 -258113
-1 -1;
#X obj 47 120 tgl 15 0 empty empty connected 20 7 0 8 -4034 -45076
-1 1 1;
#X obj 48 169 bng 15 250 50 0 empty empty disconnect 20 7 0 8 -258113
-1 -1;
#X text 44 100 OSC OUT;
#X obj 131 220 udpsend;
#X obj 80 73 select 1;
#X obj 35 35 print OSCOUT;
#N canvas 66 60 332 451 do_after_connect 0;
#X obj 7 8 inlet;
#X obj 7 338 slOSCsender2;
#X obj 7 361 outlet;
#N canvas 452 34 702 583 global_register_update 0;
#X obj 17 18 inlet;
#X msg 233 70 3 /register_update tempo /updates/tempo;
#X msg 243 90 3 /register_update sync_source /updates/sync_source;
#X msg 263 143 3 /register_update tap_tempo /updates/tap_tempo;
#X msg 273 163 3 /register_update wet /updates/wet;
#X msg 283 183 3 /register_update dry /updates/dry;
#X msg 293 203 3 /register_update input_gain /updates/input_gain;
#X msg 303 223 3 /register_update auto_disable_latency /updates/auto_disable_latency
;
#X msg 313 256 3 /register_update output_midi_clock /updates/output_midi_clock
;
#X msg 323 289 3 /register_update use_midi_stop /updates/use_midi_stop
;
#X msg 333 309 3 /register_update use_midi_start /updates/use_midi_start
;
#X msg 343 329 3 /register_update send_midi_start_on_trigger /updates/send_midi_start_on_trigger
;
#X msg 353 362 3 /register_update smart_eighths /updates/smart_eighths
;
#X msg 253 110 3 /register_update eighth_per_cycle /updates/eighth_per_cycle
;
#X msg 383 448 3 /register_auto_update out_peak_meter /updates/out_peak_meter
;
#X msg 393 481 2 /register /updates/loops;
#X msg 363 382 4 /register_update selected_loop_num 100 /updates/selected_loop_num
;
#X msg 373 415 4 /register_auto_update in_peak_meter 100 /updates/in_peak_meter
;
#X obj 23 538 outlet;
#X connect 0 0 1 0;
#X connect 0 0 2 0;
#X connect 0 0 17 0;
#X connect 0 0 14 0;
#X connect 0 0 16 0;
#X connect 0 0 15 0;
#X connect 0 0 12 0;
#X connect 0 0 11 0;
#X connect 0 0 10 0;
#X connect 0 0 9 0;
#X connect 0 0 8 0;
#X connect 0 0 7 0;
#X connect 0 0 6 0;
#X connect 0 0 5 0;
#X connect 0 0 4 0;
#X connect 0 0 3 0;
#X connect 0 0 13 0;
#X connect 1 0 18 0;
#X connect 2 0 18 0;
#X connect 3 0 18 0;
#X connect 4 0 18 0;
#X connect 5 0 18 0;
#X connect 6 0 18 0;
#X connect 7 0 18 0;
#X connect 8 0 18 0;
#X connect 9 0 18 0;
#X connect 10 0 18 0;
#X connect 11 0 18 0;
#X connect 12 0 18 0;
#X connect 13 0 18 0;
#X connect 14 0 18 0;
#X connect 15 0 18 0;
#X connect 16 0 18 0;
#X connect 17 0 18 0;
#X restore 7 90 pd global_register_update;
#N canvas 13 47 755 577 global_get_update 0;
#X obj 17 18 inlet;
#X msg 373 100 3 /get tempo /updates/tempo;
#X msg 373 120 3 /get sync_source /updates/sync_source;
#X msg 373 140 3 /get eighth_per_cycle /updates/eighth_per_cycle;
#X msg 373 160 3 /get wet /updates/wet;
#X msg 373 180 3 /get dry /updates/dry;
#X msg 373 200 3 /get input_gain /updates/input_gain;
#X msg 373 220 3 /get auto_disable_latency /updates/auto_disable_latency
;
#X msg 373 240 3 /get output_midi_clock /updates/output_midi_clock
;
#X msg 373 260 3 /get use_midi_stop /updates/use_midi_stop;
#X msg 373 280 3 /get use_midi_start /updates/use_midi_start;
#X msg 373 300 3 /get send_midi_start_on_trigger /updates/send_midi_start_on_trigger
;
#X msg 373 333 3 /get smart_eighths /updates/smart_eighths;
#X msg 373 353 3 /get selected_loop_num /updates/selected_loop_num
;
#X msg 373 373 3 /get in_peak_meter /updates/in_peak_meter;
#X msg 373 393 3 /get out_peak_meter /updates/out_peak_meter;
#X obj 18 538 outlet;
#X connect 0 0 1 0;
#X connect 0 0 2 0;
#X connect 0 0 3 0;
#X connect 0 0 4 0;
#X connect 0 0 5 0;
#X connect 0 0 6 0;
#X connect 0 0 7 0;
#X connect 0 0 8 0;
#X connect 0 0 9 0;
#X connect 0 0 10 0;
#X connect 0 0 11 0;
#X connect 0 0 12 0;
#X connect 0 0 13 0;
#X connect 0 0 14 0;
#X connect 0 0 15 0;
#X connect 1 0 16 0;
#X connect 2 0 16 0;
#X connect 3 0 16 0;
#X connect 4 0 16 0;
#X connect 5 0 16 0;
#X connect 6 0 16 0;
#X connect 7 0 16 0;
#X connect 8 0 16 0;
#X connect 9 0 16 0;
#X connect 10 0 16 0;
#X connect 11 0 16 0;
#X connect 12 0 16 0;
#X connect 13 0 16 0;
#X connect 14 0 16 0;
#X connect 15 0 16 0;
#X restore 29 114 pd global_get_update;
#X connect 0 0 3 0;
#X connect 0 0 4 0;
#X connect 1 0 2 0;
#X connect 3 0 1 0;
#X connect 4 0 1 0;
#X restore 225 120 pd do_after_connect;
#N canvas 0 0 450 300 do_after_disconnect 0;
#X obj 3 5 inlet;
#X restore 225 159 pd do_after_disconnect;
#N canvas 0 0 450 300 do_before_connect 0;
#X obj 15 15 inlet;
#X obj 15 276 outlet;
#X msg 15 143 connect 127.0.0.1 9951;
#X connect 0 0 2 0;
#X connect 2 0 1 0;
#X restore 225 100 pd do_before_connect;
#N canvas 336 25 415 347 do_before_disconnect 0;
#X obj 57 244 outlet;
#X msg 57 157 disconnect;
#X obj 158 244 outlet;
#X obj 158 21 inlet;
#X obj 158 121 slOSCsender2;
#N canvas 0 0 730 575 global_unregister_update 0;
#X obj 18 16 inlet;
#X msg 234 68 3 /unregister_update tempo /updates/tempo;
#X msg 244 88 3 /unregister_update sync_source /updates/sync_source
;
#X msg 254 108 3 /unregister_update eighth_per_cycle /updates/eighth_per_cycle
;
#X msg 264 141 3 /unregister_update tap_tempo /updates/tap_tempo;
#X msg 274 161 3 /unregister_update wet /updates/wet;
#X msg 284 181 3 /unregister_update dry /updates/dry;
#X msg 294 201 3 /unregister_update input_gain /updates/input_gain
;
#X msg 304 221 3 /unregister_update auto_disable_latency /updates/auto_disable_latency
;
#X msg 314 254 3 /unregister_update output_midi_clock /updates/output_midi_clock
;
#X msg 324 287 3 /unregister_update use_midi_stop /updates/use_midi_stop
;
#X msg 334 307 3 /unregister_update use_midi_start /updates/use_midi_start
;
#X msg 344 327 3 /unregister_update send_midi_start_on_trigger /updates/send_midi_start_on_trigger
;
#X msg 354 360 3 /unregister_update smart_eighths /updates/smart_eighths
;
#X msg 364 380 3 /unregister_update selected_loop_num /updates/selected_loop_num
;
#X msg 374 413 3 /unregister_auto_update in_peak_meter /updates/in_peak_meter
;
#X msg 384 446 3 /unregister_auto_update out_peak_meter /updates/out_peak_meter
;
#X obj 24 536 outlet;
#X connect 0 0 1 0;
#X connect 0 0 2 0;
#X connect 0 0 15 0;
#X connect 0 0 16 0;
#X connect 0 0 14 0;
#X connect 0 0 13 0;
#X connect 0 0 12 0;
#X connect 0 0 11 0;
#X connect 0 0 10 0;
#X connect 0 0 9 0;
#X connect 0 0 8 0;
#X connect 0 0 7 0;
#X connect 0 0 6 0;
#X connect 0 0 5 0;
#X connect 0 0 4 0;
#X connect 0 0 3 0;
#X connect 1 0 17 0;
#X connect 2 0 17 0;
#X connect 3 0 17 0;
#X connect 4 0 17 0;
#X connect 5 0 17 0;
#X connect 6 0 17 0;
#X connect 7 0 17 0;
#X connect 8 0 17 0;
#X connect 9 0 17 0;
#X connect 10 0 17 0;
#X connect 11 0 17 0;
#X connect 12 0 17 0;
#X connect 13 0 17 0;
#X connect 14 0 17 0;
#X connect 15 0 17 0;
#X connect 16 0 17 0;
#X restore 158 56 pd global_unregister_update;
#X connect 1 0 0 0;
#X connect 3 0 1 0;
#X connect 3 0 5 0;
#X connect 4 0 2 0;
#X connect 5 0 4 0;
#X restore 225 140 pd do_before_disconnect;
#X obj 169 10 r slOSCout;
#X connect 0 0 1 0;
#X connect 1 0 8 0;
#X connect 1 1 2 0;
#X connect 4 0 13 0;
#X connect 5 0 9 0;
#X connect 6 0 14 0;
#X connect 8 0 5 0;
#X connect 9 0 11 0;
#X connect 9 1 12 0;
#X connect 11 0 1 0;
#X connect 13 0 8 0;
#X connect 14 0 8 0;
#X connect 14 1 1 0;
#X connect 15 0 1 0;
#X coords 0 -1 1 1 125 90 2 40 100;
#X restore 166 241 pd OSCout;
#N canvas 719 464 461 198 add_del_loop-\$0 0;
#X msg 229 63 send /loop_del -1;
#X obj 28 80 bng 15 250 50 0 empty empty remove_last_loop 17 7 0 8
-258113 -1 -1;
#X obj 28 45 bng 15 250 50 0 empty empty add_mono_loop 17 7 0 8 -258113
-1 -1;
#X obj 28 25 bng 15 250 50 0 empty empty add_stereo_loop 17 7 0 8 -258113
-1 -1;
#X obj 148 25 nbx 3 14 4 360 0 1 empty empty secs 34 8 0 8 -258113
-1 -1 60 256;
#X msg 249 22 send /loop_add 2 \$1;
#X obj 148 45 nbx 3 14 4 360 0 1 empty empty secs 34 8 0 8 -258113
-1 -1 60 256;
#X msg 239 42 send /loop_add 1 \$1;
#X obj 277 103 s slOSCout;
#X obj 156 81 nbx 5 14 0 1e+37 0 0 empty SLloops loops 0 -8 0 8 -262144
-1 -1 10 256;
#X obj 91 -11 f;
#X obj 91 114 f;
#X connect 0 0 8 0;
#X connect 1 0 0 0;
#X connect 2 0 11 0;
#X connect 3 0 10 0;
#X connect 4 0 10 1;
#X connect 5 0 8 0;
#X connect 6 0 11 1;
#X connect 7 0 8 0;
#X connect 10 0 5 0;
#X connect 11 0 7 0;
#X coords 0 -1 1 1 200 80 2 20 20;
#X restore 51 371 pd add_del_loop-\$0;
#N canvas 21 56 498 514 global_monitors-\$0 0;
#X obj 108 118 nbx 5 14 0 1e+37 0 0 empty SLtempo tempo_bpm 0 -8 0
8 -262144 -1 -1 0 256;
#X obj 228 118 nbx 3 14 0 512 0 0 empty SLselected_loop_num selected_loop
0 -8 0 8 -262144 -1 -1 0 256;
#X obj 289 260 nbx 5 14 0 1e+37 0 0 empty SLout_peak_meter out_peak
0 22 0 8 -262144 -1 -1 0 256;
#X obj 108 259 nbx 3 14 0 1 0 0 empty SLwet wet 0 22 0 8 -262144 -1
-1 1 256;
#X obj 148 259 nbx 3 14 0 1 0 0 empty SLdry dry 0 22 0 8 -262144 -1
-1 0 256;
#X obj 344 260 nbx 5 14 0 1e+37 0 0 empty SLin_peak_meter in_peak 0
22 0 8 -262144 -1 -1 0 256;
#X obj 188 118 nbx 3 14 0 512 0 0 empty SLloops loops 0 -8 0 8 -262144
-1 -1 10 256;
#X obj 345 132 vu 15 120 empty empty -1 -8 0 8 -66577 -1 1 0;
#X obj 423 161 * 111;
#X obj 424 185 - 99;
#X obj 290 132 vu 15 120 empty empty -1 -8 0 8 -66577 -1 1 0;
#X obj 428 221 * 111;
#X obj 429 245 - 99;
#X obj 188 259 nbx 3 14 0 1e+37 0 0 empty SLinput_gain input_gain 0
22 0 8 -262144 -1 -1 1 256;
#X obj 188 153 vsl 25 100 0 1 0 0 empty empty empty 0 -9 0 10 -262144
-1 -1 0 1;
#X obj 148 153 vsl 25 100 0 1 0 0 empty empty empty 0 -9 0 10 -262144
-1 -1 0 1;
#X obj 108 153 vsl 25 100 0 1 0 0 empty empty empty 0 -9 0 10 -262144
-1 -1 0 1;
#X connect 2 0 11 0;
#X connect 5 0 8 0;
#X connect 8 0 9 0;
#X connect 9 0 7 0;
#X connect 11 0 12 0;
#X connect 12 0 10 0;
#X coords 0 -1 1 1 300 200 2 100 100;
#X restore -9 31 pd global_monitors-\$0;
#N canvas 221 240 415 321 sync_interface 0;
#N canvas 448 37 574 562 sync_source_interface 0;
#X obj 111 63 nbx 2 14 -3 128 0 0 empty SLsync_source sync_source 0
-8 0 8 -262144 -1 -1 1 256;
#X obj 203 63 bng 15 250 50 0 empty empty empty -46 7 0 8 -258113 -1
-1;
#X symbolatom 138 62 10 0 0 0 - SLsync_source_message -;
#X obj 241 85 + 1;
#X obj 203 85 f;
#X obj 241 107 moses 1;
#X obj 280 85 + 1;
#X obj 280 129 bng 15 250 50 0 empty empty empty 17 7 0 10 -262144
-1 -1;
#X msg 280 148 -4;
#X msg 241 171 send /set sync_source \$1;
#X obj -112 101 select -3 -2 -1 0 1 2 3 4 5 6 7 8 9 10 11 12;
#X msg -112 465 set Internal;
#X msg -96 445 set Midi;
#X msg -80 425 set Jack;
#X msg -64 405 set None;
#X msg -31 365 set Loop2;
#X msg -47 385 set Loop1;
#X msg -15 345 set Loop3;
#X msg 2 325 set Loop4;
#X msg 18 305 set Loop5;
#X msg 34 285 set Loop6;
#X msg 51 265 set Loop7;
#X msg 67 245 set Loop8;
#X msg 83 225 set Loop9;
#X msg 100 205 set Loop10;
#X msg 116 185 set Loop11;
#X msg 132 165 set Loop12;
#X msg 149 145 set MOARLOOPS;
#X obj 200 509 s SLsync_source_message;
#X obj 241 194 s slOSCout;
#X obj 280 67 nbx 5 14 0 1e+37 0 0 empty SLloops loops 0 -8 0 8 -262144
-1 -1 10 256;
#X connect 0 0 10 0;
#X connect 1 0 4 0;
#X connect 3 0 4 1;
#X connect 3 0 5 0;
#X connect 4 0 3 0;
#X connect 5 0 9 0;
#X connect 5 1 7 0;
#X connect 6 0 5 1;
#X connect 7 0 8 0;
#X connect 8 0 4 0;
#X connect 9 0 29 0;
#X connect 10 0 11 0;
#X connect 10 1 12 0;
#X connect 10 2 13 0;
#X connect 10 3 14 0;
#X connect 10 4 16 0;
#X connect 10 5 15 0;
#X connect 10 6 17 0;
#X connect 10 7 18 0;
#X connect 10 8 19 0;
#X connect 10 9 20 0;
#X connect 10 10 21 0;
#X connect 10 11 22 0;
#X connect 10 12 23 0;
#X connect 10 13 24 0;
#X connect 10 14 25 0;
#X connect 10 15 26 0;
#X connect 10 16 27 0;
#X connect 11 0 28 0;
#X connect 12 0 28 0;
#X connect 13 0 28 0;
#X connect 14 0 28 0;
#X connect 15 0 28 0;
#X connect 16 0 28 0;
#X connect 17 0 28 0;
#X connect 18 0 28 0;
#X connect 19 0 28 0;
#X connect 20 0 28 0;
#X connect 21 0 28 0;
#X connect 22 0 28 0;
#X connect 23 0 28 0;
#X connect 24 0 28 0;
#X connect 25 0 28 0;
#X connect 26 0 28 0;
#X connect 27 0 28 0;
#X connect 30 0 6 0;
#X coords 0 -1 1 1 125 30 2 100 50;
#X restore 25 101 pd sync_source_interface;
#X obj 55 51 nbx 3 14 0 1e+37 0 0 empty SLeighths_per_cycle 8th/cycle
0 -8 0 8 -262144 -1 -1 0 256;
#X obj 45 76 tgl 15 0 empty SLsmart_eighths auto_8th 17 7 0 8 -262144
-1 -1 1 1;
#X obj 331 285 s slOSCout;
#X msg 151 197 send /set smart_eighths \$1;
#X obj 115 76 bng 15 250 50 0 empty empty empty -46 7 0 8 -258113 -1
-1;
#X obj 151 154 + 1;
#X obj 113 154 float;
#X obj 151 176 mod 2;
#X obj 91 51 nbx 3 14 0 64 0 0 empty empty empty 0 -8 0 8 -258113 -1
-1 0 256;
#X msg 189 15 4;
#X msg 219 15 8;
#X msg 249 15 16;
#X msg 279 15 32;
#X msg 184 80 send /set eighth_per_cycle \$1;
#X obj 33 14 bng 20 250 50 0 empty empty 4 7 11 0 8 -258113 -1 -1;
#X obj 63 14 bng 20 250 50 0 empty empty 8 7 11 0 8 -258113 -1 -1;
#X obj 93 14 bng 20 250 50 0 empty empty 16 4 11 0 8 -258113 -1 -1
;
#X obj 123 14 bng 20 250 50 0 empty empty 32 4 11 0 8 -258113 -1 -1
;
#X connect 4 0 3 0;
#X connect 5 0 7 0;
#X connect 6 0 7 1;
#X connect 6 0 8 0;
#X connect 7 0 6 0;
#X connect 8 0 4 0;
#X connect 9 0 14 0;
#X connect 10 0 9 0;
#X connect 11 0 9 0;
#X connect 12 0 9 0;
#X connect 13 0 9 0;
#X connect 14 0 3 0;
#X connect 15 0 10 0;
#X connect 16 0 11 0;
#X connect 17 0 12 0;
#X connect 18 0 13 0;
#X coords 0 -1 1 1 135 125 2 20 10;
#X restore -9 241 pd sync_interface;
#X obj -16 459 cnv 15 320 60 empty empty empty 20 12 0 14 -257985 -66577
0;
#X text -9 462 emOSCulator - puredata sooperlooper interface;
#X text -10 482 controls are in red - changing other items can have
unexpected results;
#N canvas 0 0 921 475 current_loop_interface 0;
#X obj 29 49 nbx 3 14 0 512 0 0 empty SLselected_loop_num selected_loop
0 -8 0 8 -262144 -1 -1 0 256;
#X floatatom 29 71 3 0 0 0 - - -;
#X floatatom 478 104 5 0 0 1 last_loop - -;
#X obj 29 118 delay 5;
#X obj 433 104 bng 15 250 50 0 empty empty empty 17 7 0 10 -262144
-1 -1;
#X obj 433 149 unpack f f;
#X obj 433 126 pack 0 0;
#X obj 29 369 outlet;
#X floatatom 74 148 5 0 0 1 next_loop - -;
#X obj 29 148 bng 15 250 50 0 empty empty empty 17 7 0 10 -262144 -1
-1;
#X obj 29 203 unpack f f;
#X obj 29 170 pack 0 0;
#X obj 29 300 slOSCsender2;
#X obj 504 384 spigot;
#X obj 504 411 print loopStatusTS;
#X obj 537 363 tgl 15 0 empty empty turn_on_for_debug 17 7 0 8 -262144
-1 -1 0 1;
#N canvas 533 40 685 542 register_auto_update_current 0;
#X obj 8 49 inlet;
#X obj 8 208 outlet;
#X msg 313 -5 4 /sl/-3/register_auto_update state 100 /updates/-3/state
;
#X msg 303 15 4 /sl/-3/register_auto_update next_state 100 /updates/next_state
;
#X msg 293 48 4 /sl/-3/register_auto_update loop_pos 100 /updates/loop_pos
;
#X msg 283 68 4 /sl/-3/register_auto_update state 100 /updates/-3/state
;
#X msg 273 88 4 /sl/-3/register_auto_update next_state 100 /updates/next_state
;
#X msg 263 121 4 /sl/-3/register_auto_update loop_pos 100 /updates/loop_pos
;
#X msg 254 142 4 /sl/-3/register_auto_update loop_len 100 /updates/-3/loop_len
;
#X msg 244 175 4 /sl/-3/register_auto_update cycle_len 100 /updates/cycle_len
;
#X msg 234 208 4 /sl/-3/register_auto_update free_time 100 /updates/free_time
;
#X msg 224 241 4 /sl/-3/register_auto_update total_time 100 /updates/-3/total_time
;
#X msg 214 274 4 /sl/-3/register_auto_update waiting 100 /updates/waiting
;
#X msg 204 294 4 /sl/-3/register_auto_update rate_output 100 /updates/rate_output
;
#X msg 194 328 4 /sl/-3/register_auto_update in_peak_meter 100 /updates/in_peak_meter
;
#X msg 184 361 4 /sl/-3/register_auto_update out_peak_meter 100 /updates/out_peak_meter
;
#X msg 174 394 4 /sl/-3/register_auto_update is_soloed 100 /updates/-3/is_soloed
;
#X msg 164 427 4 /sl/-3/register_auto_update stretch_ratio 100 /updates/stretch_ratio
;
#X msg 154 460 4 /sl/-3/register_auto_update pitch_shift 100 /updates/pitch_shift
;
#X connect 0 0 2 0;
#X connect 0 0 3 0;
#X connect 0 0 4 0;
#X connect 0 0 5 0;
#X connect 0 0 6 0;
#X connect 0 0 7 0;
#X connect 0 0 8 0;
#X connect 0 0 9 0;
#X connect 0 0 10 0;
#X connect 0 0 11 0;
#X connect 0 0 12 0;
#X connect 0 0 13 0;
#X connect 0 0 14 0;
#X connect 0 0 15 0;
#X connect 0 0 16 0;
#X connect 0 0 17 0;
#X connect 0 0 18 0;
#X connect 2 0 1 0;
#X connect 3 0 1 0;
#X connect 4 0 1 0;
#X connect 5 0 1 0;
#X connect 6 0 1 0;
#X connect 7 0 1 0;
#X connect 8 0 1 0;
#X connect 9 0 1 0;
#X connect 10 0 1 0;
#X connect 11 0 1 0;
#X connect 12 0 1 0;
#X connect 13 0 1 0;
#X connect 14 0 1 0;
#X connect 15 0 1 0;
#X connect 16 0 1 0;
#X connect 17 0 1 0;
#X connect 18 0 1 0;
#X restore 203 193 pd register_auto_update_current;
#X msg 49 237 4 /sl/-3/register_auto_update loop_pos 100 /updates/loop_pos
;
#X msg 39 257 4 /sl/-3/register_auto_update loop_len 100 /updates/loop_len
;
#X msg 29 277 4 /sl/-3/register_auto_update state 100 /updates/state
;
#X connect 0 0 1 0;
#X connect 1 0 4 0;
#X connect 1 0 3 0;
#X connect 1 0 8 0;
#X connect 1 0 2 0;
#X connect 2 0 6 1;
#X connect 3 0 9 0;
#X connect 4 0 6 0;
#X connect 6 0 5 0;
#X connect 8 0 11 1;
#X connect 9 0 11 0;
#X connect 10 1 19 0;
#X connect 10 1 18 0;
#X connect 10 1 17 0;
#X connect 11 0 10 0;
#X connect 12 0 7 0;
#X connect 12 0 13 0;
#X connect 13 0 14 0;
#X connect 15 0 13 1;
#X connect 17 0 12 0;
#X connect 18 0 12 0;
#X connect 19 0 12 0;
#X restore 64 527 pd current_loop_interface;
