#N canvas 40 201 450 300 10;
#N canvas 21 56 1145 570 global_monitors-\$0 0;
#X obj 108 118 nbx 5 14 0 1e+37 0 0 empty SLtempo tempo_bpm 0 -8 0
8 -262144 -1 -1 0 256;
#X obj 228 118 nbx 3 14 0 512 0 0 empty SLselected_loop_num selected_loop
0 -8 0 8 -262144 -1 -1 0 256;
#X obj 289 260 nbx 5 14 0 1e+37 0 0 empty SLout_peak_meter out_peak
0 22 0 8 -262144 -1 -1 0 256;
#X obj 108 259 nbx 3 14 0 1 0 0 empty SLwet wet 0 22 0 8 -262144 -1
-1 0 256;
#X obj 148 259 nbx 3 14 0 1 0 0 empty SLdry dry 0 22 0 8 -262144 -1
-1 0 256;
#X obj 344 260 nbx 5 14 0 1e+37 0 0 empty SLin_peak_meter in_peak 0
22 0 8 -262144 -1 -1 9.53674e-05 256;
#X obj 188 118 nbx 3 14 0 512 0 0 empty SLloops loops 0 -8 0 8 -262144
-1 -1 0 256;
#X obj 345 132 vu 15 120 empty empty -1 -8 0 8 -66577 -1 1 0;
#X obj 423 161 * 111;
#X obj 424 185 - 99;
#X obj 290 132 vu 15 120 empty empty -1 -8 0 8 -66577 -1 1 0;
#X obj 428 221 * 111;
#X obj 429 245 - 99;
#X obj 188 259 nbx 3 14 0 1e+37 0 0 empty SLinput_gain input_gain 0
22 0 8 -262144 -1 -1 0 256;
#X obj 188 153 vsl 25 100 0 1 0 0 empty empty empty 0 -9 0 10 -262144
-1 -1 0 1;
#X obj 148 153 vsl 25 100 0 1 0 0 empty empty empty 0 -9 0 10 -262144
-1 -1 0 1;
#X obj 108 153 vsl 25 100 0 1 0 0 empty empty empty 0 -9 0 10 -262144
-1 -1 0 1;
#X msg 683 51 3 /register_update tempo /updates/tempo;
#X msg 693 74 3 /register_update wet /updates/wet;
#X msg 703 94 3 /register_update dry /updates/dry;
#X msg 713 114 3 /register_update input_gain /updates/input_gain;
#X msg 753 233 2 /register /updates/loops;
#X msg 733 167 4 /register_auto_update in_peak_meter 100 /updates/in_peak_meter
;
#X msg 743 200 4 /register_auto_update out_peak_meter 100 /updates/out_peak_meter
;
#X msg 614 288 3 /unregister_update tempo /updates/tempo;
#X msg 624 308 3 /unregister_update wet /updates/wet;
#X msg 634 328 3 /unregister_update dry /updates/dry;
#X msg 644 348 3 /unregister_update input_gain /updates/input_gain
;
#X msg 203 340 3 /get tempo /updates/tempo;
#X msg 203 360 3 /get wet /updates/wet;
#X msg 203 380 3 /get dry /updates/dry;
#X msg 203 400 3 /get input_gain /updates/input_gain;
#X msg 203 440 3 /get in_peak_meter /updates/in_peak_meter;
#X msg 203 460 3 /get out_peak_meter /updates/out_peak_meter;
#X obj 571 492 slOSCsender2;
#X obj 571 519 s slOSCout;
#X obj 423 34 r otherIncomingOSC;
#X obj 410 68 routeOSC /input_gain /in_peak_meter;
#X obj 410 95 unpack f s f;
#X obj 510 95 unpack f s f;
#X obj 410 119 s SLinput_gain;
#X obj 510 119 s SLin_peak_meter;
#X msg 664 403 3 /sl/-3/unregister_auto_update in_peak_meter /updates/in_peak_meter
;
#X msg 674 436 3 /sl/-3/unregister_auto_update out_peak_meter /updates/out_peak_meter
;
#X text 11 9 This needs to be heavily modified. very broken right now.
Change return address \, process that OSC data from here \, when it
gets skipped by emOSCulator and sent via otherIncomingOSC;
#X connect 2 0 11 0;
#X connect 5 0 8 0;
#X connect 8 0 9 0;
#X connect 9 0 7 0;
#X connect 11 0 12 0;
#X connect 12 0 10 0;
#X connect 34 0 35 0;
#X connect 37 0 38 0;
#X connect 37 1 39 0;
#X connect 38 2 40 0;
#X connect 39 2 41 0;
#X connect 42 0 34 0;
#X connect 43 0 34 0;
#X coords 0 -1 1 1 300 200 2 100 100;
#X restore 18 33 pd global_monitors-\$0;
