#N canvas 347 345 593 352 10;
#N canvas 134 25 1128 687 current_loop_interface 0;
#X obj 235 72 nbx 3 14 0 512 0 0 empty SLselected_loop_num selected_loop
33 7 0 8 -262144 -1 -1 7 256;
#N canvas 31 40 1108 473 register_auto_update_current 0;
#X obj 8 69 inlet;
#X obj 8 228 outlet;
#X msg 273 48 4 /sl/-3/register_auto_update next_state 100 /updates/next_state
;
#X msg 263 81 4 /sl/-3/register_auto_update loop_pos 100 /updates/loop_pos
;
#X msg 244 122 4 /sl/-3/register_auto_update cycle_len 100 /updates/cycle_len
;
#X msg 234 155 4 /sl/-3/register_auto_update free_time 100 /updates/free_time
;
#X msg 214 221 4 /sl/-3/register_auto_update waiting 100 /updates/waiting
;
#X msg 204 241 4 /sl/-3/register_auto_update rate_output 100 /updates/rate_output
;
#X msg 194 275 4 /sl/-3/register_auto_update in_peak_meter 100 /updates/in_peak_meter
;
#X msg 184 308 4 /sl/-3/register_auto_update out_peak_meter 100 /updates/out_peak_meter
;
#X msg 164 374 4 /sl/-3/register_auto_update stretch_ratio 100 /updates/stretch_ratio
;
#X msg 154 407 4 /sl/-3/register_auto_update pitch_shift 100 /updates/pitch_shift
;
#X msg 174 341 4 /sl/-3/register_auto_update is_soloed 100 /updates/is_soloed
;
#X msg 224 188 4 /sl/-3/register_auto_update total_time 100 /updates/total_time
;
#X msg 254 102 4 /sl/-3/register_auto_update loop_len 100 /updates/loop_len
;
#X msg 283 28 4 /sl/-3/register_auto_update state 100 /updates/state
;
#X msg 813 158 3 /sl/-3/get state /updates/state;
#X msg 803 178 3 /sl/-3/get next_state /updates/next_state;
#X msg 793 197 3 /sl/-3/get loop_pos /updates/loop_pos;
#X msg 784 218 3 /sl/-3/get loop_len /updates/loop_len;
#X msg 774 238 3 /sl/-3/get cycle_len /updates/cycle_len;
#X msg 764 257 3 /sl/-3/get free_time /updates/free_time;
#X msg 754 276 3 /sl/-3/get total_time /updates/total_time;
#X msg 744 295 3 /sl/-3/get waiting /updates/waiting;
#X msg 734 315 3 /sl/-3/get rate_output /updates/rate_output;
#X msg 724 335 3 /sl/-3/get in_peak_meter /updates/in_peak_meter;
#X msg 714 355 3 /sl/-3/get out_peak_meter /updates/out_peak_meter
;
#X msg 704 375 3 /sl/-3/get is_soloed /updates/is_soloed;
#X msg 694 395 3 /sl/-3/get stretch_ratio /updates/stretch_ratio;
#X msg 684 415 3 /sl/-3/get pitch_shift /updates/pitch_shift;
#X connect 0 0 15 0;
#X connect 0 0 2 0;
#X connect 0 0 3 0;
#X connect 0 0 14 0;
#X connect 0 0 4 0;
#X connect 0 0 5 0;
#X connect 0 0 13 0;
#X connect 0 0 6 0;
#X connect 0 0 7 0;
#X connect 0 0 8 0;
#X connect 0 0 9 0;
#X connect 0 0 12 0;
#X connect 0 0 10 0;
#X connect 0 0 11 0;
#X connect 0 0 16 0;
#X connect 0 0 17 0;
#X connect 0 0 18 0;
#X connect 0 0 19 0;
#X connect 0 0 20 0;
#X connect 0 0 21 0;
#X connect 0 0 22 0;
#X connect 0 0 23 0;
#X connect 0 0 24 0;
#X connect 0 0 25 0;
#X connect 0 0 26 0;
#X connect 0 0 27 0;
#X connect 0 0 28 0;
#X connect 0 0 29 0;
#X connect 2 0 1 0;
#X connect 3 0 1 0;
#X connect 4 0 1 0;
#X connect 5 0 1 0;
#X connect 6 0 1 0;
#X connect 7 0 1 0;
#X connect 8 0 1 0;
#X connect 9 0 1 0;
#X connect 10 0 1 0;
#X connect 11 0 1 0;
#X connect 12 0 1 0;
#X connect 13 0 1 0;
#X connect 14 0 1 0;
#X connect 15 0 1 0;
#X connect 16 0 1 0;
#X connect 17 0 1 0;
#X connect 18 0 1 0;
#X connect 19 0 1 0;
#X connect 20 0 1 0;
#X connect 21 0 1 0;
#X connect 22 0 1 0;
#X connect 23 0 1 0;
#X connect 24 0 1 0;
#X connect 25 0 1 0;
#X connect 26 0 1 0;
#X connect 27 0 1 0;
#X connect 28 0 1 0;
#X connect 29 0 1 0;
#X restore -190 213 pd register_auto_update_current;
#X obj 24 73 tgl 15 0 empty empty enable_monitors 17 7 0 8 -258113
-1 -1 1 1;
#X obj -190 95 select 1;
#N canvas 533 40 685 503 unregister_auto_update_current 0;
#X obj 8 69 inlet;
#X obj 8 228 outlet;
#X msg 273 108 3 /sl/-3/unregister_auto_update next_state /updates/next_state
;
#X msg 263 141 3 /sl/-3/unregister_auto_update loop_pos /updates/loop_pos
;
#X msg 244 182 3 /sl/-3/unregister_auto_update cycle_len /updates/cycle_len
;
#X msg 234 202 3 /sl/-3/unregister_auto_update free_time /updates/free_time
;
#X msg 214 255 3 /sl/-3/unregister_auto_update waiting /updates/waiting
;
#X msg 204 275 3 /sl/-3/unregister_auto_update rate_output /updates/rate_output
;
#X msg 194 309 3 /sl/-3/unregister_auto_update in_peak_meter /updates/in_peak_meter
;
#X msg 184 342 3 /sl/-3/unregister_auto_update out_peak_meter /updates/out_peak_meter
;
#X msg 164 395 3 /sl/-3/unregister_auto_update stretch_ratio /updates/stretch_ratio
;
#X msg 154 428 3 /sl/-3/unregister_auto_update pitch_shift /updates/pitch_shift
;
#X msg 283 88 3 /sl/-3/unregister_auto_update state /updates/state
;
#X msg 254 162 3 /sl/-3/unregister_auto_update loop_len /updates/loop_len
;
#X msg 224 222 3 /sl/-3/unregister_auto_update total_time /updates/total_time
;
#X msg 174 375 3 /sl/-3/unregister_auto_update is_soloed /updates/is_soloed
;
#X connect 0 0 12 0;
#X connect 0 0 2 0;
#X connect 0 0 3 0;
#X connect 0 0 13 0;
#X connect 0 0 4 0;
#X connect 0 0 5 0;
#X connect 0 0 14 0;
#X connect 0 0 6 0;
#X connect 0 0 7 0;
#X connect 0 0 8 0;
#X connect 0 0 9 0;
#X connect 0 0 15 0;
#X connect 0 0 10 0;
#X connect 0 0 11 0;
#X connect 2 0 1 0;
#X connect 3 0 1 0;
#X connect 4 0 1 0;
#X connect 5 0 1 0;
#X connect 6 0 1 0;
#X connect 7 0 1 0;
#X connect 8 0 1 0;
#X connect 9 0 1 0;
#X connect 10 0 1 0;
#X connect 11 0 1 0;
#X connect 12 0 1 0;
#X connect 13 0 1 0;
#X connect 14 0 1 0;
#X connect 15 0 1 0;
#X restore -190 146 pd unregister_auto_update_current;
#X obj 10 16 r disable_monitors_current;
#X msg 10 36 set 0;
#X obj -110 269 s slOSCout;
#X obj 214 -31 nbx 5 14 0 1e+37 0 0 empty CCIcycle_len cycle_len 0
-8 0 8 -262144 -1 -1 12.3649 256;
#X obj 364 42 nbx 5 14 0 1e+37 0 0 empty CCIis_soloed is_soloed 0 -8
0 8 -262144 -1 -1 0 256;
#X obj 274 -31 nbx 5 14 0 1e+37 0 0 empty CCIloop_len loop_len 0 -8
0 8 -262144 -1 -1 12.3649 256;
#X obj 214 20 nbx 5 14 0 1e+37 0 0 empty CCIloop_pos loop_pos 0 -8
0 8 -262144 -1 -1 8.02717 256;
#X obj 604 160 nbx 5 14 0 1e+37 0 0 empty CCInext_state next_state
0 -8 0 8 -262144 -1 -1 16 256;
#X obj 604 108 nbx 5 14 0 1e+37 0 0 empty CCIstate state 0 -8 0 8 -262144
-1 -1 4 256;
#X obj 274 26 nbx 5 14 0 1e+37 0 0 empty CCItotal_time total_time 0
-8 0 8 -262144 -1 -1 190.218 256;
#X obj 604 75 nbx 5 14 0 1e+37 0 0 empty CCIwaiting waiting 0 -8 0
8 -262144 -1 -1 0 256;
#X symbolatom 514 134 12 0 0 2 next_state - -;
#N canvas 0 0 488 522 parse_state 0;
#X obj 72 26 inlet;
#X obj 72 56 select -1 0 1 2 3 4 5 6 7 8 9 10 11 12 13 14;
#X msg 72 420 set Unknown;
#X msg 88 400 set Off;
#X msg 104 380 set WaitStart;
#X msg 120 360 set Recording;
#X msg 137 340 set WaitStop;
#X msg 153 320 set Playing;
#X msg 169 300 set Overdubbing;
#X msg 186 280 set Multiplying;
#X msg 202 260 set Inserting;
#X msg 218 240 set Replacing;
#X msg 235 220 set Delay;
#X msg 251 200 set Muted;
#X msg 267 180 set Scratching;
#X msg 284 160 set OneShot;
#X msg 300 140 set Substitute;
#X msg 316 120 set Paused;
#X msg 333 100 set Unknown2;
#X obj 384 464 outlet;
#X connect 0 0 1 0;
#X connect 1 0 2 0;
#X connect 1 1 3 0;
#X connect 1 2 4 0;
#X connect 1 3 5 0;
#X connect 1 4 6 0;
#X connect 1 5 7 0;
#X connect 1 6 8 0;
#X connect 1 7 9 0;
#X connect 1 8 10 0;
#X connect 1 9 11 0;
#X connect 1 10 12 0;
#X connect 1 11 13 0;
#X connect 1 12 14 0;
#X connect 1 13 15 0;
#X connect 1 14 16 0;
#X connect 1 15 17 0;
#X connect 1 16 18 0;
#X connect 2 0 19 0;
#X connect 3 0 19 0;
#X connect 4 0 19 0;
#X connect 5 0 19 0;
#X connect 6 0 19 0;
#X connect 7 0 19 0;
#X connect 8 0 19 0;
#X connect 9 0 19 0;
#X connect 10 0 19 0;
#X connect 11 0 19 0;
#X connect 12 0 19 0;
#X connect 13 0 19 0;
#X connect 14 0 19 0;
#X connect 15 0 19 0;
#X connect 16 0 19 0;
#X connect 17 0 19 0;
#X connect 18 0 19 0;
#X restore 604 127 pd parse_state;
#N canvas 0 0 488 522 parse_next_state 0;
#X obj 72 36 inlet;
#X obj 72 66 select -1 0 1 2 3 4 5 6 7 8 9 10 11 12 13 14;
#X msg 72 430 set Unknown;
#X msg 88 410 set Off;
#X msg 104 390 set WaitStart;
#X msg 120 370 set Recording;
#X msg 137 350 set WaitStop;
#X msg 153 330 set Playing;
#X msg 169 310 set Overdubbing;
#X msg 186 290 set Multiplying;
#X msg 202 270 set Inserting;
#X msg 218 250 set Replacing;
#X msg 235 230 set Delay;
#X msg 251 210 set Muted;
#X msg 267 190 set Scratching;
#X msg 284 170 set OneShot;
#X msg 300 150 set Substitute;
#X msg 316 130 set Paused;
#X msg 333 110 set Unknown2;
#X obj 384 474 outlet;
#X connect 0 0 1 0;
#X connect 1 0 2 0;
#X connect 1 1 3 0;
#X connect 1 2 4 0;
#X connect 1 3 5 0;
#X connect 1 4 6 0;
#X connect 1 5 7 0;
#X connect 1 6 8 0;
#X connect 1 7 9 0;
#X connect 1 8 10 0;
#X connect 1 9 11 0;
#X connect 1 10 12 0;
#X connect 1 11 13 0;
#X connect 1 12 14 0;
#X connect 1 13 15 0;
#X connect 1 14 16 0;
#X connect 1 15 17 0;
#X connect 1 16 18 0;
#X connect 2 0 19 0;
#X connect 3 0 19 0;
#X connect 4 0 19 0;
#X connect 5 0 19 0;
#X connect 6 0 19 0;
#X connect 7 0 19 0;
#X connect 8 0 19 0;
#X connect 9 0 19 0;
#X connect 10 0 19 0;
#X connect 11 0 19 0;
#X connect 12 0 19 0;
#X connect 13 0 19 0;
#X connect 14 0 19 0;
#X connect 15 0 19 0;
#X connect 16 0 19 0;
#X connect 17 0 19 0;
#X connect 18 0 19 0;
#X restore 604 179 pd parse_next_state;
#X symbolatom 514 104 12 0 0 2 state - -;
#N canvas 91 25 774 700 register_update_current 0;
#X obj 8 69 inlet;
#X obj 8 228 outlet;
#X msg 124 367 4 /sl/-3/register_auto_update use_common_ins 100 /updates/use_common_ins
;
#X msg 283 8 4 /sl/-3/register_auto_update rec_thresh 100 /updates/rec_thresh
;
#X msg 273 28 4 /sl/-3/register_auto_update feedback 100 /updates/feedback
;
#X msg 263 48 4 /sl/-3/register_auto_update use_feedback_play 100 /updates/use_feedback_play
;
#X msg 254 81 4 /sl/-3/register_auto_update dry 100 /updates/dry-3
;
#X msg 244 101 4 /sl/-3/register_auto_update wet 100 /updates/wet-3
;
#X msg 234 121 4 /sl/-3/register_auto_update input_gain 100 /updates/input_gain
;
#X msg 224 141 4 /sl/-3/register_auto_update rate 100 /updates/rate
;
#X msg 214 161 4 /sl/-3/register_auto_update scratch_pos 100 /updates/scratch_pos
;
#X msg 204 181 4 /sl/-3/register_auto_update delay_trigger 100 /updates/delay_trigger
;
#X msg 194 214 4 /sl/-3/register_auto_update quantize 100 /updates/quantize
;
#X msg 184 234 4 /sl/-3/register_auto_update fade_samples 100 /updates/fade_samples
;
#X msg 174 254 4 /sl/-3/register_auto_update round 100 /updates/round
;
#X msg 164 274 4 /sl/-3/register_auto_update sync 100 /updates/sync
;
#X msg 154 294 4 /sl/-3/register_auto_update playback_sync 100 /updates/playback_sync
;
#X msg 144 327 4 /sl/-3/register_auto_update redo_is_tap 100 /updates/redo_is_tap
;
#X msg 134 347 4 /sl/-3/register_auto_update use_rate 100 /updates/use_rate
;
#X msg 114 400 4 /sl/-3/register_auto_update use_common_outs 100 /updates/use_common_outs
;
#X msg 104 433 4 /sl/-3/register_auto_update relative_sync 100 /updates/relative_sync
;
#X msg 94 466 4 /sl/-3/register_auto_update input_latency 100 /updates/input_latency
;
#X msg 84 499 4 /sl/-3/register_auto_update output_latency 100 /updates/output_latency
;
#X msg 74 532 4 /sl/-3/register_auto_update trigger_latency 100 /updates/trigger_latency
;
#X msg 64 565 4 /sl/-3/register_auto_update autoset_latency 100 /updates/autoset_latency
;
#X msg 54 598 4 /sl/-3/register_auto_update mute_quantized 100 /updates/mute_quantized
;
#X msg 434 458 4 /sl/-3/register_auto_update pan_1 100 /updates/pan_1
;
#X msg 424 478 4 /sl/-3/register_auto_update pan_2 100 /updates/pan_2
;
#X msg 414 498 4 /sl/-3/register_auto_update pan_3 100 /updates/pan_3
;
#X msg 404 518 4 /sl/-3/register_auto_update pan_4 100 /updates/pan_4
;
#X msg 394 538 4 /sl/-3/register_auto_update tempo_stretch 100 /updates/tempo_stretch
;
#X msg 384 571 4 /sl/-3/register_auto_update round_integer_tempo 100
/updates/round_integer_tempo;
#X msg 374 604 4 /sl/-3/register_auto_update replace_quantized 100
/updates/replace_quantized;
#X msg 364 637 4 /sl/-3/register_auto_update overdub_quantized 100
/updates/overdub_quantized;
#X connect 0 0 3 0;
#X connect 0 0 4 0;
#X connect 0 0 5 0;
#X connect 0 0 6 0;
#X connect 0 0 7 0;
#X connect 0 0 8 0;
#X connect 0 0 9 0;
#X connect 0 0 10 0;
#X connect 0 0 11 0;
#X connect 0 0 12 0;
#X connect 0 0 13 0;
#X connect 0 0 14 0;
#X connect 0 0 15 0;
#X connect 0 0 16 0;
#X connect 0 0 17 0;
#X connect 0 0 18 0;
#X connect 0 0 2 0;
#X connect 0 0 19 0;
#X connect 0 0 20 0;
#X connect 0 0 21 0;
#X connect 0 0 22 0;
#X connect 0 0 23 0;
#X connect 0 0 24 0;
#X connect 0 0 25 0;
#X connect 0 0 32 0;
#X connect 0 0 33 0;
#X connect 0 0 30 0;
#X connect 0 0 31 0;
#X connect 0 0 26 0;
#X connect 0 0 27 0;
#X connect 0 0 28 0;
#X connect 0 0 29 0;
#X connect 2 0 1 0;
#X connect 3 0 1 0;
#X connect 4 0 1 0;
#X connect 5 0 1 0;
#X connect 6 0 1 0;
#X connect 7 0 1 0;
#X connect 8 0 1 0;
#X connect 9 0 1 0;
#X connect 10 0 1 0;
#X connect 11 0 1 0;
#X connect 12 0 1 0;
#X connect 13 0 1 0;
#X connect 14 0 1 0;
#X connect 15 0 1 0;
#X connect 16 0 1 0;
#X connect 17 0 1 0;
#X connect 18 0 1 0;
#X connect 19 0 1 0;
#X connect 20 0 1 0;
#X connect 21 0 1 0;
#X connect 22 0 1 0;
#X connect 23 0 1 0;
#X connect 24 0 1 0;
#X connect 25 0 1 0;
#X connect 26 0 1 0;
#X connect 27 0 1 0;
#X connect 28 0 1 0;
#X connect 29 0 1 0;
#X connect 30 0 1 0;
#X connect 31 0 1 0;
#X connect 32 0 1 0;
#X connect 33 0 1 0;
#X restore -180 193 pd register_update_current;
#N canvas 594 25 684 678 get_update_current 0;
#X obj 5 69 inlet;
#X obj -55 288 outlet;
#X msg 280 8 3 /sl/-3/get rec_thresh /updates/rec_thresh;
#X msg 270 28 3 /sl/-3/get feedback /updates/feedback;
#X msg 260 48 3 /sl/-3/get use_feedback_play /updates/use_feedback_play
;
#X msg 251 68 3 /sl/-3/get dry /updates/dry-3;
#X msg 241 88 3 /sl/-3/get wet /updates/wet-3;
#X msg 231 108 3 /sl/-3/get input_gain /updates/input_gain;
#X msg 221 128 3 /sl/-3/get rate /updates/rate;
#X msg 211 148 3 /sl/-3/get scratch_pos /updates/scratch_pos;
#X msg 201 168 3 /sl/-3/get delay_trigger /updates/delay_trigger;
#X msg 191 188 3 /sl/-3/get quantize /updates/quantize;
#X msg 181 208 3 /sl/-3/get fade_samples /updates/fade_samples;
#X msg 171 228 3 /sl/-3/get round /updates/round;
#X msg 161 248 3 /sl/-3/get sync /updates/sync;
#X msg 151 268 3 /sl/-3/get playback_sync /updates/playback_sync;
#X msg 141 288 3 /sl/-3/get redo_is_tap /updates/redo_is_tap;
#X msg 131 309 3 /sl/-3/get use_rate /updates/use_rate;
#X msg 121 329 3 /sl/-3/get use_common_ins /updates/use_common_ins
;
#X msg 111 349 3 /sl/-3/get use_common_outs /updates/use_common_outs
;
#X msg 101 369 3 /sl/-3/get relative_sync /updates/relative_sync;
#X msg 91 389 3 /sl/-3/get input_latency /updates/input_latency;
#X msg 81 409 3 /sl/-3/get output_latency /updates/output_latency;
#X msg 71 429 3 /sl/-3/get trigger_latency /updates/trigger_latency
;
#X msg 61 449 3 /sl/-3/get autoset_latency /updates/autoset_latency
;
#X msg 51 469 3 /sl/-3/get mute_quantized /updates/mute_quantized;
#X msg 41 488 3 /sl/-3/get pan_1 /updates/pan_1;
#X msg 31 508 3 /sl/-3/get pan_2 /updates/pan_2;
#X msg 21 528 3 /sl/-3/get pan_3 /updates/pan_3;
#X msg 11 548 3 /sl/-3/get pan_4 /updates/pan_4;
#X msg 1 568 3 /sl/-3/get tempo_stretch /updates/tempo_stretch;
#X msg -9 588 3 /sl/-3/get round_integer_tempo /updates/round_integer_tempo
;
#X msg -19 621 3 /sl/-3/get replace_quantized /updates/replace_quantized
;
#X msg -29 641 3 /sl/-3/get overdub_quantized /updates/overdub_quantized
;
#X connect 0 0 2 0;
#X connect 0 0 3 0;
#X connect 0 0 4 0;
#X connect 0 0 5 0;
#X connect 0 0 6 0;
#X connect 0 0 7 0;
#X connect 0 0 8 0;
#X connect 0 0 9 0;
#X connect 0 0 10 0;
#X connect 0 0 11 0;
#X connect 0 0 12 0;
#X connect 0 0 13 0;
#X connect 0 0 14 0;
#X connect 0 0 15 0;
#X connect 0 0 16 0;
#X connect 0 0 17 0;
#X connect 0 0 18 0;
#X connect 0 0 19 0;
#X connect 0 0 20 0;
#X connect 0 0 21 0;
#X connect 0 0 22 0;
#X connect 0 0 23 0;
#X connect 0 0 24 0;
#X connect 0 0 25 0;
#X connect 0 0 32 0;
#X connect 0 0 33 0;
#X connect 0 0 30 0;
#X connect 0 0 31 0;
#X connect 0 0 26 0;
#X connect 0 0 27 0;
#X connect 0 0 28 0;
#X connect 0 0 29 0;
#X connect 2 0 1 0;
#X connect 3 0 1 0;
#X connect 4 0 1 0;
#X connect 5 0 1 0;
#X connect 6 0 1 0;
#X connect 7 0 1 0;
#X connect 8 0 1 0;
#X connect 9 0 1 0;
#X connect 10 0 1 0;
#X connect 11 0 1 0;
#X connect 12 0 1 0;
#X connect 13 0 1 0;
#X connect 14 0 1 0;
#X connect 15 0 1 0;
#X connect 16 0 1 0;
#X connect 17 0 1 0;
#X connect 18 0 1 0;
#X connect 19 0 1 0;
#X connect 20 0 1 0;
#X connect 21 0 1 0;
#X connect 22 0 1 0;
#X connect 23 0 1 0;
#X connect 24 0 1 0;
#X connect 25 0 1 0;
#X connect 26 0 1 0;
#X connect 27 0 1 0;
#X connect 28 0 1 0;
#X connect 29 0 1 0;
#X connect 30 0 1 0;
#X connect 31 0 1 0;
#X connect 32 0 1 0;
#X connect 33 0 1 0;
#X restore -170 173 pd get_update_current;
#N canvas 402 25 765 700 unregister_update_current 0;
#X obj 8 69 inlet;
#X obj 8 228 outlet;
#X msg 124 380 3 /sl/-3/unregister_auto_update use_common_ins /updates/use_common_ins
;
#X msg 283 8 3 /sl/-3/unregister_auto_update rec_thresh /updates/rec_thresh
;
#X msg 273 28 3 /sl/-3/unregister_auto_update feedback /updates/feedback
;
#X msg 263 48 3 /sl/-3/unregister_auto_update use_feedback_play /updates/use_feedback_play
;
#X msg 254 81 3 /sl/-3/unregister_auto_update dry /updates/dry-3;
#X msg 244 101 3 /sl/-3/unregister_auto_update wet /updates/wet-3;
#X msg 234 121 3 /sl/-3/unregister_auto_update input_gain /updates/input_gain
;
#X msg 224 141 3 /sl/-3/unregister_auto_update rate /updates/rate;
#X msg 214 161 3 /sl/-3/unregister_auto_update scratch_pos /updates/scratch_pos
;
#X msg 204 181 3 /sl/-3/unregister_auto_update delay_trigger /updates/delay_trigger
;
#X msg 194 214 3 /sl/-3/unregister_auto_update quantize /updates/quantize
;
#X msg 184 234 3 /sl/-3/unregister_auto_update fade_samples /updates/fade_samples
;
#X msg 174 267 3 /sl/-3/unregister_auto_update round /updates/round
;
#X msg 164 287 3 /sl/-3/unregister_auto_update sync /updates/sync;
#X msg 154 307 3 /sl/-3/unregister_auto_update playback_sync /updates/playback_sync
;
#X msg 144 340 3 /sl/-3/unregister_auto_update redo_is_tap /updates/redo_is_tap
;
#X msg 134 360 3 /sl/-3/unregister_auto_update use_rate /updates/use_rate
;
#X msg 114 413 3 /sl/-3/unregister_auto_update use_common_outs /updates/use_common_outs
;
#X msg 104 446 3 /sl/-3/unregister_auto_update relative_sync /updates/relative_sync
;
#X msg 94 479 3 /sl/-3/unregister_auto_update input_latency /updates/input_latency
;
#X msg 84 512 3 /sl/-3/unregister_auto_update output_latency /updates/output_latency
;
#X msg 74 545 3 /sl/-3/unregister_auto_update trigger_latency /updates/trigger_latency
;
#X msg 64 578 3 /sl/-3/unregister_auto_update autoset_latency /updates/autoset_latency
;
#X msg 54 611 3 /sl/-3/unregister_auto_update mute_quantized /updates/mute_quantized
;
#X msg 434 458 3 /sl/-3/unregister_auto_update pan_1 /updates/pan_1
;
#X msg 424 478 3 /sl/-3/unregister_auto_update pan_2 /updates/pan_2
;
#X msg 414 498 3 /sl/-3/unregister_auto_update pan_3 /updates/pan_3
;
#X msg 404 518 3 /sl/-3/unregister_auto_update pan_4 /updates/pan_4
;
#X msg 394 538 3 /sl/-3/unregister_auto_update tempo_stretch /updates/tempo_stretch
;
#X msg 384 571 3 /sl/-3/unregister_auto_update round_integer_tempo
/updates/round_integer_tempo;
#X msg 374 604 3 /sl/-3/unregister_auto_update replace_quantized /updates/replace_quantized
;
#X msg 364 637 3 /sl/-3/unregister_auto_update overdub_quantized /updates/overdub_quantized
;
#X connect 0 0 3 0;
#X connect 0 0 4 0;
#X connect 0 0 5 0;
#X connect 0 0 6 0;
#X connect 0 0 7 0;
#X connect 0 0 8 0;
#X connect 0 0 9 0;
#X connect 0 0 10 0;
#X connect 0 0 11 0;
#X connect 0 0 12 0;
#X connect 0 0 13 0;
#X connect 0 0 14 0;
#X connect 0 0 15 0;
#X connect 0 0 16 0;
#X connect 0 0 17 0;
#X connect 0 0 18 0;
#X connect 0 0 2 0;
#X connect 0 0 19 0;
#X connect 0 0 20 0;
#X connect 0 0 21 0;
#X connect 0 0 22 0;
#X connect 0 0 23 0;
#X connect 0 0 24 0;
#X connect 0 0 25 0;
#X connect 0 0 32 0;
#X connect 0 0 33 0;
#X connect 0 0 30 0;
#X connect 0 0 31 0;
#X connect 0 0 26 0;
#X connect 0 0 27 0;
#X connect 0 0 28 0;
#X connect 0 0 29 0;
#X connect 2 0 1 0;
#X connect 3 0 1 0;
#X connect 4 0 1 0;
#X connect 5 0 1 0;
#X connect 6 0 1 0;
#X connect 7 0 1 0;
#X connect 8 0 1 0;
#X connect 9 0 1 0;
#X connect 10 0 1 0;
#X connect 11 0 1 0;
#X connect 12 0 1 0;
#X connect 13 0 1 0;
#X connect 14 0 1 0;
#X connect 15 0 1 0;
#X connect 16 0 1 0;
#X connect 17 0 1 0;
#X connect 18 0 1 0;
#X connect 19 0 1 0;
#X connect 20 0 1 0;
#X connect 21 0 1 0;
#X connect 22 0 1 0;
#X connect 23 0 1 0;
#X connect 24 0 1 0;
#X connect 25 0 1 0;
#X connect 26 0 1 0;
#X connect 27 0 1 0;
#X connect 28 0 1 0;
#X connect 29 0 1 0;
#X connect 30 0 1 0;
#X connect 31 0 1 0;
#X connect 32 0 1 0;
#X connect 33 0 1 0;
#X restore -190 126 pd unregister_update_current;
#X obj 92 96 hsl 105 8 0 1 0 0 empty empty total_time -66 4 0 8 -1
-1 -1 0 1;
#X obj 92 126 hsl 105 8 0 1 0 0 empty empty loop_pos -54 4 0 8 -262144
-1 -1 439 1;
#X obj 92 111 hsl 105 8 0 1 0 0 empty empty loop_len -54 4 0 8 -262144
-1 -1 676 1;
#X obj 92 141 hsl 105 8 0 1 0 0 empty empty cycle_len -60 4 0 8 -262144
-1 -1 676 1;
#X obj 214 38 /;
#X obj 214 -13 /;
#X obj 274 -13 /;
#X obj 514 72 tgl 15 0 empty empty waiting 17 8 0 8 -262144 -1 -1 0
1;
#X obj 23 292 bng 20 250 50 0 empty empty RECORD 22 10 0 10 -258113
-1 -1;
#X obj 23 322 bng 20 250 50 0 empty empty OVERDUB 22 10 0 10 -258113
-1 -1;
#X obj 193 322 bng 20 250 50 0 empty empty MULTIPLY 22 10 0 10 -258113
-1 -1;
#X obj 103 322 bng 20 250 50 0 empty empty INSERT 22 10 0 10 -258113
-1 -1;
#X obj 103 292 bng 20 250 50 0 empty empty REPLACE 22 10 0 10 -258113
-1 -1;
#X obj 733 57 bng 20 250 50 0 empty empty REVERSE 22 10 0 10 -258113
-1 -1;
#X obj 313 292 bng 20 250 50 0 empty empty MUTE 22 10 0 10 -258113
-1 -1;
#X obj 355 102 bng 20 250 50 0 empty empty UNDO 22 10 0 10 -258113
-1 -1;
#X obj 355 132 bng 20 250 50 0 empty empty REDO 22 10 0 10 -258113
-1 -1;
#X obj 433 292 bng 20 250 50 0 empty empty ONESHOT 22 10 0 10 -258113
-1 -1;
#X obj 433 322 bng 20 250 50 0 empty empty TRIGGER 22 10 0 10 -258113
-1 -1;
#X obj 193 292 bng 20 250 50 0 empty empty SUBSTITUTE 22 10 0 10 -258113
-1 -1;
#X obj 415 102 bng 20 250 50 0 empty empty UNDO_ALL 22 10 0 10 -258113
-1 -1;
#X obj 415 132 bng 20 250 50 0 empty empty REDO_ALL 22 10 0 10 -258113
-1 -1;
#X obj 313 352 bng 20 250 50 0 empty empty MUTE_ON 22 10 0 10 -258113
-1 -1;
#X obj 313 322 bng 20 250 50 0 empty empty MUTE_OFF 22 10 0 10 -258113
-1 -1;
#X obj 103 352 bng 20 250 50 0 empty empty SOLO 22 10 0 10 -258113
-1 -1;
#X obj 23 352 bng 20 250 50 0 empty empty PAUSE 22 10 0 10 -258113
-1 -1;
#X msg 603 377 send /sl/-3/hit record;
#X msg 603 397 send /sl/-3/hit overdub;
#X msg 603 417 send /sl/-3/hit multiply;
#X msg 603 437 send /sl/-3/hit insert;
#X msg 603 457 send /sl/-3/hit solo;
#X msg 773 367 send /sl/-3/hit replace;
#X msg 733 87 send /sl/-3/hit reverse;
#X msg 773 387 send /sl/-3/hit mute;
#X msg 773 407 send /sl/-3/hit undo;
#X msg 603 477 send /sl/-3/hit undo_all;
#X msg 603 497 send /sl/-3/hit redo_all;
#X msg 603 517 send /sl/-3/hit mute_on;
#X msg 603 537 send /sl/-3/hit mute_off;
#X msg 773 427 send /sl/-3/hit redo;
#X msg 773 447 send /sl/-3/hit oneshot;
#X msg 773 467 send /sl/-3/hit trigger;
#X msg 773 487 send /sl/-3/hit substitute;
#X msg 773 507 send /sl/-3/hit pause;
#X obj 656 595 s slOSCout;
#X obj 350 69 bng 20 250 50 0 empty empty NEXT_LOOP 22 10 0 10 -258113
-1 -1;
#X obj 136 69 bng 20 250 50 0 empty empty PREV_LOOP 22 10 0 10 -258113
-1 -1;
#X obj 1006 420 nbx 3 14 0 512 0 0 empty SLselected_loop_num selected_loop
0 -8 0 8 -262144 -1 -1 7 256;
#X msg 991 382 -1;
#X msg 1096 382 1;
#X obj 991 440 +;
#X msg 991 512 send /set selected_loop_num \$1;
#X obj 341 177 nbx 5 14 0 1e+37 0 0 empty CCIdry-3 dry 0 -8 0 8 -262144
-1 -1 0 256;
#X obj 471 177 nbx 5 14 0 1e+37 0 0 empty CCIwet-3 wet 0 -8 0 8 -262144
-1 -1 0 256;
#X obj 23 168 nbx 5 14 0 1e+37 0 0 empty CCIrate rate 0 -6 0 8 -262144
-1 -1 1 256;
#X obj 25 472 nbx 5 14 0 1e+37 0 0 empty CCIquantize quantize 0 -8
0 8 -262144 -1 -1 1 256;
#X obj 338 -28 nbx 5 14 0 1e+37 0 0 empty CCIround round 0 -8 0 8 -262144
-1 -1 0 256;
#X obj 386 -28 nbx 5 14 0 1e+37 0 0 empty CCIsync sync 0 -8 0 8 -262144
-1 -1 1 256;
#X obj -68 25 nbx 5 14 0 1e+37 0 0 empty CCIuse_rate use_rate 0 -8
0 8 -262144 -1 -1 0 256;
#X obj 558 -26 nbx 5 14 0 1e+37 0 0 empty CCIuse_common_ins use_common_ins
0 -8 0 8 -262144 -1 -1 0 256;
#X obj 558 4 nbx 5 14 0 1e+37 0 0 empty CCIuse_common_outs use_common_outs
0 -8 0 8 -262144 -1 -1 1 256;
#X obj 442 -26 nbx 5 14 0 1e+37 0 0 empty CCImute_quantized mute_quantized
0 -8 0 8 -262144 -1 -1 0 256;
#X obj -94 313 nbx 5 14 0 1e+37 0 0 empty CCIpan_1 pan_1 0 -8 0 8 -262144
-1 -1 0.488189 256;
#X obj 442 4 nbx 5 14 0 1e+37 0 0 empty CCIreplace_quantized replace_quantized
0 -8 0 8 -262144 -1 -1 1 256;
#X obj 442 34 nbx 5 14 0 1e+37 0 0 empty CCIoverdub_quantized overdub_quantized
0 -8 0 8 -262144 -1 -1 0 256;
#X obj 357 207 tgl 15 0 empty empty use_common_ins 17 7 0 8 -262144
-1 -1 0 1;
#X obj 487 207 tgl 15 0 empty empty use_common_outs 17 7 0 8 -262144
-1 -1 1 1;
#X obj 341 207 bng 15 250 50 0 empty empty empty 17 7 0 10 -258113
-1 -1;
#X obj 471 207 bng 15 250 50 0 empty empty empty 17 7 0 10 -258113
-1 -1;
#X obj 214 212 tgl 15 0 empty empty round 17 7 0 8 -262144 -1 -1 0
1;
#X obj 198 212 bng 15 250 50 0 empty empty empty 17 7 0 10 -258113
-1 -1;
#X obj 214 172 tgl 15 0 empty empty sync 17 7 0 8 -262144 -1 -1 1 1
;
#X obj 198 172 bng 15 250 50 0 empty empty empty 17 7 0 10 -258113
-1 -1;
#X msg -202 494 send /sl/-3/set use_common_ins \$1;
#X obj -202 472 bitflipper;
#X obj -202 522 bitflipper;
#X msg -202 544 send /sl/-3/set use_common_outs \$1;
#X obj 184 476 bitflipper;
#X msg 184 498 send /sl/-3/set round \$1;
#X obj 184 431 bitflipper;
#X msg 184 453 send /sl/-3/set sync \$1;
#X obj 109 185 tgl 15 0 empty empty use_rate 17 7 0 8 -262144 -1 -1
0 1;
#X obj 93 185 bng 15 250 50 0 empty empty empty 17 7 0 10 -258113 -1
-1;
#X obj -202 422 bitflipper;
#X obj 224 95 tgl 15 0 empty empty mute_quantized 17 7 0 8 -262144
-1 -1 0 1;
#X obj 224 115 tgl 15 0 empty empty replace_quantized 17 7 0 8 -262144
-1 -1 1 1;
#X obj 208 95 bng 15 250 50 0 empty empty empty 17 7 0 10 -258113 -1
-1;
#X obj 208 115 bng 15 250 50 0 empty empty empty 17 7 0 10 -258113
-1 -1;
#X obj 224 135 tgl 15 0 empty empty overdub_quantized 17 7 0 8 -262144
-1 -1 0 1;
#X obj 208 135 bng 15 250 50 0 empty empty empty 17 7 0 10 -258113
-1 -1;
#X obj 355 432 bitflipper;
#X obj 355 482 bitflipper;
#X obj 355 532 bitflipper;
#X msg -202 444 send /sl/-3/set use_rate \$1;
#X msg 355 454 send /sl/-3/set mute_quantized \$1;
#X msg 355 504 send /sl/-3/set replace_quantized \$1;
#X msg 355 554 send /sl/-3/set overdub_quantized \$1;
#N canvas 725 99 488 261 parse_quantize 0;
#X obj 72 36 inlet;
#X obj 254 224 outlet;
#X obj 72 66 select 0 1 2 3;
#X msg 72 180 set Off;
#X msg 92 160 set Cycle;
#X msg 112 140 set 8th;
#X msg 132 120 set Loop;
#X msg 153 100 set ERR;
#X connect 0 0 2 0;
#X connect 2 0 3 0;
#X connect 2 1 4 0;
#X connect 2 2 5 0;
#X connect 2 3 6 0;
#X connect 2 4 7 0;
#X connect 3 0 1 0;
#X connect 4 0 1 0;
#X connect 5 0 1 0;
#X connect 6 0 1 0;
#X connect 7 0 1 0;
#X restore 25 489 pd parse_quantize;
#X symbolatom 216 191 10 0 0 1 quantize - -;
#X obj 198 192 bng 15 250 50 0 empty empty empty 17 7 0 10 -258113
-1 -1;
#N canvas 79 366 450 300 send_set_quantize 0;
#X obj 56 61 inlet;
#X obj 141 61 inlet;
#X obj 56 89 f;
#X msg 56 147 1;
#X obj 56 230 outlet;
#X obj 56 118 select 0 1 2 3;
#X msg 140 147 0;
#X msg 84 147 2;
#X msg 112 147 3;
#X msg 56 207 send /sl/-3/set quantize \$1;
#X connect 0 0 2 0;
#X connect 1 0 2 1;
#X connect 2 0 5 0;
#X connect 3 0 9 0;
#X connect 5 0 3 0;
#X connect 5 1 7 0;
#X connect 5 2 8 0;
#X connect 5 3 6 0;
#X connect 6 0 9 0;
#X connect 7 0 9 0;
#X connect 8 0 9 0;
#X connect 9 0 4 0;
#X restore 25 510 pd send_set_quantize;
#X obj -158 304 hsl 50 10 0 1 0 0 empty CCIpan_1 pan_1 8 -8 0 8 -262144
-1 -1 2392 1;
#X obj -158 317 hsl 50 10 0 1 0 0 empty empty empty 8 -8 0 8 -258113
-1 -1 0 1;
#X msg -161 335 send /sl/-3/set pan_1 \$1;
#X obj -72 597 s slOSCout;
#X obj 344 194 hsl 50 10 0 1 0 0 empty empty empty 8 -8 0 8 -258113
-1 -1 0 1;
#X msg -201 377 send /sl/-3/set dry \$1;
#X obj 474 194 hsl 50 10 0 1 0 0 empty empty empty 8 -8 0 8 -258113
-1 -1 0 1;
#X msg -201 397 send /sl/-3/set wet \$1;
#X msg 24 432 send /sl/-3/set rate \$1;
#X obj 23 185 tgl 15 0 empty empty reverse 17 8 0 8 -258113 -1 -1 0
1;
#X msg 603 253 send /sl/-3/down reverse;
#X msg 603 275 send /sl/-3/up reverse;
#X obj 603 231 select 1 0;
#N canvas 656 129 450 300 time_presets-\$0 0;
#X obj 10 265 outlet;
#X obj 58 85 bng 15 250 50 0 empty empty 1/2 0 -4 0 6 -258113 -1 -1
;
#X obj 78 85 bng 15 250 50 0 empty empty 1x 2 -4 0 6 -258113 -1 -1
;
#X obj 98 85 bng 15 250 50 0 empty empty 2x 2 -4 0 6 -258113 -1 -1
;
#X obj 118 85 bng 15 250 50 0 empty empty 4x 2 -4 0 6 -258113 -1 -1
;
#X msg 58 153 0.5;
#X msg 88 153 1;
#X msg 118 153 2;
#X msg 148 153 4;
#X obj 38 85 bng 15 250 50 0 empty empty 1/4 0 -4 0 6 -258113 -1 -1
;
#X msg 22 153 0.25;
#X text 42 59 playback rate;
#X obj 41 106 hsl 90 10 0.25 4 0 0 empty empty empty 8 -8 0 8 -258113
-1 -1 593 1;
#X text 54 113 |1x;
#X connect 1 0 5 0;
#X connect 2 0 6 0;
#X connect 3 0 7 0;
#X connect 4 0 8 0;
#X connect 5 0 12 0;
#X connect 6 0 12 0;
#X connect 7 0 12 0;
#X connect 8 0 12 0;
#X connect 9 0 10 0;
#X connect 10 0 12 0;
#X connect 12 0 0 0;
#X coords 0 -1 1 1 110 70 2 30 60;
#X restore 23 205 pd time_presets-\$0;
#X obj 991 463 moses 7;
#X obj 1042 486 moses 13;
#X obj 203 247 hsl 50 10 0 1 0 0 empty CCIpan_1 pan_1 8 -8 0 8 -262144
-1 -1 2392 1;
#X obj 203 260 hsl 50 10 0 1 0 0 empty empty empty 8 -8 0 8 -258113
-1 -1 0 1;
#X msg 916 222 send /sl/-3/set pan_1 \$1;
#X msg 781 552 send /set selected_loop_num 0;
#X msg 781 572 send /set selected_loop_num 7;
#X obj 540 366 bng 15 250 50 0 empty empty chan_0 17 9 0 6 -258113
-1 -1;
#X obj 540 386 bng 15 250 50 0 empty empty chan_7 17 9 0 6 -258113
-1 -1;
#X msg 861 2 send /set selected_loop_num 1;
#X msg 871 22 send /set selected_loop_num 2;
#X msg 881 42 send /set selected_loop_num 3;
#X msg 891 62 send /set selected_loop_num 4;
#X msg 901 82 send /set selected_loop_num 5;
#X msg 911 102 send /set selected_loop_num 6;
#X obj -110 247 slOSCsender2;
#N canvas 347 179 593 116 cli_BigMonitor 1;
#N canvas 206 345 999 251 cli_BigMonitorGOP 0;
#X obj 90 66 nbx 5 14 0 1e+37 0 0 empty CCIloop_len loop_len 0 -8 0
8 -262144 -1 -1 12.3649 256;
#X obj 43 66 nbx 5 14 0 1e+37 0 0 empty CCIloop_pos loop_pos 0 -8 0
8 -262144 -1 -1 8.02717 256;
#X obj 43 97 /;
#X obj 106 142 hsl 560 40 0 1 0 0 empty empty CURRENT_LOOP -2 -18 0
24 -262144 -1 -1 36290 1;
#X obj 361 82 hsl 50 10 0 1 0 0 empty CCIpan_1 pan_1 8 -8 0 8 -262144
-1 -1 2392 1;
#X obj 361 107 hsl 64 30 0 1 0 0 empty empty PAN 16 16 0 14 -228856
-262144 -33289 3075 1;
#X obj 450 16 nbx 5 14 0 1e+37 0 0 empty CCIstate state 0 -8 0 8 -262144
-1 -1 4 256;
#X obj 450 35 select 10;
#X obj 450 107 tgl 30 0 empty empty MUTE 34 16 0 16 -228856 -262144
-33289 0 1;
#X obj 450 56 bng 15 250 50 0 empty empty empty 17 7 0 10 -262144 -1
-1;
#X obj 501 56 bng 15 250 50 0 empty empty empty 17 7 0 10 -262144 -1
-1;
#X msg 450 74 1;
#X msg 501 74 0;
#X obj 554 7 nbx 3 14 0 512 0 0 empty SLselected_loop_num selected_loop
33 7 0 8 -262144 -1 -1 7 256;
#X obj 554 26 ftos;
#X msg 554 47 \; current_loop_number_display label \$1;
#X obj 643 115 tgl 8 0 empty current_loop_number_display 7 -60 7 0
24 -262144 -1 -1 0 1;
#X connect 0 0 2 1;
#X connect 1 0 2 0;
#X connect 2 0 3 0;
#X connect 4 0 5 0;
#X connect 6 0 7 0;
#X connect 7 0 9 0;
#X connect 7 1 10 0;
#X connect 9 0 11 0;
#X connect 10 0 12 0;
#X connect 11 0 8 0;
#X connect 12 0 8 0;
#X connect 13 0 14 0;
#X connect 14 0 15 0;
#X coords 0 -1 1 1 570 90 2 100 100;
#X restore 5 -3 pd cli_BigMonitorGOP;
#X restore 11 -20 pd cli_BigMonitor;
#X connect 1 0 153 0;
#X connect 2 0 3 0;
#X connect 3 0 1 0;
#X connect 3 0 21 0;
#X connect 3 0 20 0;
#X connect 3 1 4 0;
#X connect 3 1 22 0;
#X connect 4 0 153 0;
#X connect 5 0 6 0;
#X connect 6 0 2 0;
#X connect 8 0 28 0;
#X connect 10 0 29 0;
#X connect 11 0 27 0;
#X connect 12 0 18 0;
#X connect 13 0 17 0;
#X connect 14 0 27 1;
#X connect 14 0 28 1;
#X connect 14 0 29 1;
#X connect 15 0 30 0;
#X connect 17 0 19 0;
#X connect 18 0 16 0;
#X connect 20 0 153 0;
#X connect 21 0 153 0;
#X connect 22 0 153 0;
#X connect 27 0 24 0;
#X connect 28 0 26 0;
#X connect 29 0 25 0;
#X connect 31 0 49 0;
#X connect 32 0 50 0;
#X connect 33 0 51 0;
#X connect 34 0 52 0;
#X connect 35 0 54 0;
#X connect 36 0 55 0;
#X connect 37 0 56 0;
#X connect 38 0 57 0;
#X connect 39 0 62 0;
#X connect 40 0 63 0;
#X connect 41 0 64 0;
#X connect 42 0 65 0;
#X connect 43 0 58 0;
#X connect 44 0 59 0;
#X connect 45 0 60 0;
#X connect 46 0 61 0;
#X connect 47 0 53 0;
#X connect 48 0 66 0;
#X connect 49 0 67 0;
#X connect 50 0 67 0;
#X connect 51 0 67 0;
#X connect 52 0 67 0;
#X connect 53 0 67 0;
#X connect 54 0 67 0;
#X connect 55 0 67 0;
#X connect 56 0 67 0;
#X connect 57 0 67 0;
#X connect 58 0 67 0;
#X connect 59 0 67 0;
#X connect 60 0 67 0;
#X connect 61 0 67 0;
#X connect 62 0 67 0;
#X connect 63 0 67 0;
#X connect 64 0 67 0;
#X connect 65 0 67 0;
#X connect 66 0 67 0;
#X connect 68 0 72 0;
#X connect 69 0 71 0;
#X connect 70 0 73 1;
#X connect 71 0 73 0;
#X connect 72 0 73 0;
#X connect 73 0 138 0;
#X connect 74 0 67 0;
#X connect 78 0 120 0;
#X connect 78 0 123 1;
#X connect 79 0 92 0;
#X connect 80 0 94 0;
#X connect 81 0 104 0;
#X connect 82 0 88 0;
#X connect 83 0 89 0;
#X connect 84 0 107 0;
#X connect 86 0 108 0;
#X connect 87 0 111 0;
#X connect 88 0 97 1;
#X connect 89 0 98 1;
#X connect 90 0 97 0;
#X connect 91 0 98 0;
#X connect 92 0 100 1;
#X connect 93 0 100 0;
#X connect 94 0 102 1;
#X connect 95 0 102 0;
#X connect 96 0 127 0;
#X connect 97 0 96 0;
#X connect 98 0 99 0;
#X connect 99 0 127 0;
#X connect 100 0 101 0;
#X connect 101 0 127 0;
#X connect 102 0 103 0;
#X connect 103 0 127 0;
#X connect 104 0 106 1;
#X connect 105 0 106 0;
#X connect 106 0 116 0;
#X connect 107 0 113 1;
#X connect 108 0 114 1;
#X connect 109 0 113 0;
#X connect 110 0 114 0;
#X connect 111 0 115 1;
#X connect 112 0 115 0;
#X connect 113 0 117 0;
#X connect 114 0 118 0;
#X connect 115 0 119 0;
#X connect 116 0 127 0;
#X connect 117 0 127 0;
#X connect 118 0 127 0;
#X connect 119 0 127 0;
#X connect 120 0 121 0;
#X connect 122 0 123 0;
#X connect 123 0 127 0;
#X connect 125 0 126 0;
#X connect 126 0 127 0;
#X connect 128 0 129 0;
#X connect 129 0 127 0;
#X connect 130 0 131 0;
#X connect 131 0 127 0;
#X connect 132 0 127 0;
#X connect 133 0 136 0;
#X connect 134 0 67 0;
#X connect 135 0 67 0;
#X connect 136 0 134 0;
#X connect 136 1 135 0;
#X connect 137 0 132 0;
#X connect 138 1 139 0;
#X connect 139 0 74 0;
#X connect 141 0 142 0;
#X connect 142 0 67 0;
#X connect 143 0 67 0;
#X connect 144 0 67 0;
#X connect 145 0 143 0;
#X connect 146 0 144 0;
#X connect 147 0 67 0;
#X connect 148 0 67 0;
#X connect 149 0 67 0;
#X connect 150 0 67 0;
#X connect 151 0 67 0;
#X connect 152 0 67 0;
#X connect 153 0 7 0;
#X coords 0 -1 1 1 580 340 2 15 65;
#X restore 5 6 pd current_loop_interface;
