#N canvas 73 34 1126 641 10;
#X floatatom 15 556 5 0 0 0 - - -;
#X obj 15 606 ctlout;
#X floatatom 33 572 5 0 0 0 - - -;
#X floatatom 51 588 5 0 0 0 - - -;
#X text 102 550 Inlets:;
#X text 101 615 Outlets: none. Transmits directly to the MIDI port.
;
#X text 114 567 Left: (int) control value (0-127).;
#X text 114 582 Middle: (int) controller number.;
#X text 114 598 Right: (int) channel number.;
#X obj 11 66 routeOSC /eqEnable /reverbEnable;
#X obj 200 90 routeOSC /fxRev1 /fxRev2 /fxRev3 /fxRev4 /fxRev5 /fxRev6
/fxRev7;
#X obj 11 88 int;
#X obj 105 89 int;
#X obj 200 129 int;
#X obj 247 129 int;
#X obj 295 129 int;
#X obj 342 129 int;
#X obj 390 129 int;
#X obj 437 129 int;
#X obj 485 129 int;
#X obj 200 391 pack f 12 2;
#X obj 200 411 ctlout;
#X obj 247 351 pack f 13 2;
#X obj 247 371 ctlout;
#X obj 295 331 ctlout;
#X obj 342 291 ctlout;
#X obj 390 251 ctlout;
#X obj 437 211 ctlout;
#X obj 485 171 ctlout;
#X obj 570 129 int;
#X obj 605 129 int;
#X obj 640 129 int;
#X obj 675 129 int;
#X obj 710 129 int;
#X obj 745 129 int;
#X obj 780 129 int;
#X obj 570 531 ctlout;
#X obj 605 491 ctlout;
#X obj 640 451 ctlout;
#X obj 675 411 ctlout;
#X obj 710 371 ctlout;
#X obj 745 331 ctlout;
#X obj 780 291 ctlout;
#X obj 570 90 routeOSC /eq1 /eq2 /eq3 /eq4 /eq5 /eq6 /eq7 /eq8 /eq9
/eq10;
#X obj 815 129 int;
#X obj 850 129 int;
#X obj 885 129 int;
#X obj 815 251 ctlout;
#X obj 850 211 ctlout;
#X obj 885 171 ctlout;
#X obj 570 511 pack f 1 2;
#X obj 605 471 pack f 2 2;
#X obj 640 431 pack f 3 2;
#X obj 675 391 pack f 4 2;
#X obj 710 351 pack f 5 2;
#X obj 745 311 pack f 6 2;
#X obj 780 271 pack f 7 2;
#X obj 815 231 pack f 8 2;
#X obj 850 191 pack f 9 2;
#X obj 885 151 pack f 10 2;
#X obj 988 148 print NEW;
#X obj 11 110 pack f 11 2;
#X obj 11 132 ctlout;
#X obj 105 110 pack f 19 2;
#X obj 105 132 ctlout;
#X obj 295 311 pack f 14 2;
#X obj 342 271 pack f 15 2;
#X obj 390 231 pack f 16 2;
#X obj 437 191 pack f 17 2;
#X obj 485 151 pack f 18 2;
#X obj 11 39 routeOSC /a500goldfish;
#X obj 11 13 r localOSCin;
#X connect 0 0 1 0;
#X connect 2 0 1 1;
#X connect 3 0 1 2;
#X connect 9 0 11 0;
#X connect 9 1 12 0;
#X connect 9 2 10 0;
#X connect 10 0 13 0;
#X connect 10 1 14 0;
#X connect 10 2 15 0;
#X connect 10 3 16 0;
#X connect 10 4 17 0;
#X connect 10 5 18 0;
#X connect 10 6 19 0;
#X connect 10 7 43 0;
#X connect 11 0 61 0;
#X connect 12 0 63 0;
#X connect 13 0 20 0;
#X connect 14 0 22 0;
#X connect 15 0 65 0;
#X connect 16 0 66 0;
#X connect 17 0 67 0;
#X connect 18 0 68 0;
#X connect 19 0 69 0;
#X connect 20 0 21 0;
#X connect 22 0 23 0;
#X connect 29 0 50 0;
#X connect 30 0 51 0;
#X connect 31 0 52 0;
#X connect 32 0 53 0;
#X connect 33 0 54 0;
#X connect 34 0 55 0;
#X connect 35 0 56 0;
#X connect 43 0 29 0;
#X connect 43 1 30 0;
#X connect 43 2 31 0;
#X connect 43 3 32 0;
#X connect 43 4 33 0;
#X connect 43 5 34 0;
#X connect 43 6 35 0;
#X connect 43 7 44 0;
#X connect 43 8 45 0;
#X connect 43 9 46 0;
#X connect 43 10 60 0;
#X connect 44 0 57 0;
#X connect 45 0 58 0;
#X connect 46 0 59 0;
#X connect 50 0 36 0;
#X connect 51 0 37 0;
#X connect 52 0 38 0;
#X connect 53 0 39 0;
#X connect 54 0 40 0;
#X connect 55 0 41 0;
#X connect 56 0 42 0;
#X connect 57 0 47 0;
#X connect 58 0 48 0;
#X connect 59 0 49 0;
#X connect 61 0 62 0;
#X connect 63 0 64 0;
#X connect 65 0 24 0;
#X connect 66 0 25 0;
#X connect 67 0 26 0;
#X connect 68 0 27 0;
#X connect 69 0 28 0;
#X connect 70 0 9 0;
#X connect 71 0 70 0;
