#N canvas 467 25 450 647 10;
#X obj 39 13 inlet;
#X obj 19 621 outlet;
#X obj 73 370 list append;
#X obj 73 392 list prepend send;
#X obj 73 458 list append;
#X obj 73 414 list split 3;
#X obj 19 597 list trim;
#X obj 56 480 list append;
#X obj 56 502 list prepend send;
#X obj 56 568 list append;
#X obj 56 524 list split 2;
#X obj 91 260 list append;
#X obj 91 282 list prepend send;
#X obj 91 348 list append;
#X obj 91 304 list split 4;
#X obj 39 38 route 1 2 3 4 5;
#X text 150 45 message format : ARGS ARG1 ARG2 (ARG3 (ARG4));
#X text 256 59 f s s/f s/f s/f;
#X obj 108 150 list append;
#X obj 108 172 list prepend send;
#X obj 108 238 list append;
#X obj 108 194 list split 5;
#X msg 152 94 4 /sl/-3/register_auto_update pitch_shift 100 /updates/pitch_shift
;
#X text 149 75 below is an example of an incoming message;
#X text 78 4 slOSCsender2.pd : adds the local OSC address \, where
required \, in OSC messages sent to sooperlooper;
#X obj 108 216 list append osc.udp://127.0.0.1:9950/;
#X obj 91 326 list append osc.udp://127.0.0.1:9950/;
#X obj 73 436 list append osc.udp://127.0.0.1:9950/;
#X obj 56 546 list append osc.udp://127.0.0.1:9950/;
#X connect 0 0 15 0;
#X connect 2 0 3 0;
#X connect 3 0 5 0;
#X connect 4 0 6 0;
#X connect 5 0 27 0;
#X connect 5 1 4 1;
#X connect 6 0 1 0;
#X connect 7 0 8 0;
#X connect 8 0 10 0;
#X connect 9 0 6 0;
#X connect 10 0 28 0;
#X connect 10 1 9 1;
#X connect 11 0 12 0;
#X connect 12 0 14 0;
#X connect 13 0 6 0;
#X connect 14 0 26 0;
#X connect 14 1 13 1;
#X connect 15 1 7 0;
#X connect 15 2 2 0;
#X connect 15 3 11 0;
#X connect 15 4 18 0;
#X connect 18 0 19 0;
#X connect 19 0 21 0;
#X connect 20 0 6 0;
#X connect 21 0 25 0;
#X connect 21 1 20 1;
#X connect 25 0 20 0;
#X connect 26 0 13 0;
#X connect 27 0 4 0;
#X connect 28 0 9 0;
