#N canvas 627 123 450 574 10;
#X obj 39 13 inlet;
#X obj 39 520 outlet;
#X obj 73 205 list append;
#X obj 73 227 list prepend send;
#X obj 73 271 list append osc.udp://fishtank:9950/;
#X obj 73 293 list append;
#X obj 73 249 list split 3;
#X obj 39 496 list trim;
#X obj 56 320 list append;
#X obj 56 342 list prepend send;
#X obj 56 386 list append osc.udp://fishtank:9950/;
#X obj 56 408 list append;
#X obj 56 364 list split 2;
#X obj 91 90 list append;
#X obj 91 112 list prepend send;
#X obj 91 156 list append osc.udp://fishtank:9950/;
#X obj 91 178 list append;
#X obj 91 134 list split 4;
#X obj 39 38 route 1 2 3 4 5;
#X connect 0 0 18 0;
#X connect 2 0 3 0;
#X connect 3 0 6 0;
#X connect 4 0 5 0;
#X connect 5 0 7 0;
#X connect 6 0 4 0;
#X connect 6 1 5 1;
#X connect 7 0 1 0;
#X connect 8 0 9 0;
#X connect 9 0 12 0;
#X connect 10 0 11 0;
#X connect 11 0 7 0;
#X connect 12 0 10 0;
#X connect 12 1 11 1;
#X connect 13 0 14 0;
#X connect 14 0 17 0;
#X connect 15 0 16 0;
#X connect 16 0 7 0;
#X connect 17 0 15 0;
#X connect 17 1 16 1;
#X connect 18 1 8 0;
#X connect 18 2 2 0;
#X connect 18 3 13 0;
