#N canvas 467 25 450 698 10;
#X obj 39 13 inlet;
#X obj 39 670 outlet;
#X obj 73 355 list append;
#X obj 73 377 list prepend send;
#X obj 73 443 list append;
#X obj 73 399 list split 3;
#X obj 39 646 list trim;
#X obj 56 470 list append;
#X obj 56 492 list prepend send;
#X obj 56 558 list append;
#X obj 56 514 list split 2;
#X obj 91 240 list append;
#X obj 91 262 list prepend send;
#X obj 91 328 list append;
#X obj 91 284 list split 4;
#X obj 39 38 route 1 2 3 4 5;
#X text 150 7 inserts the sooperlooper server address;
#X text 150 21 in the second last position for 2 \, 3 and 4;
#X text 150 35 argument OSC messages.;
#X msg 134 629 4 /sl/-3/register_auto_update pitch_shift 100 /updates/pitch_shift
;
#X text 150 55 message format : ARGS ARG1 ARG2 (ARG3 (ARG4));
#X text 256 69 f s s/f s/f s/f;
#X obj 108 120 list append;
#X obj 108 142 list prepend send;
#X obj 108 208 list append;
#X obj 108 164 list split 5;
#X obj 108 186 list append osc.udp://192.168.75.151:9950/;
#X obj 91 306 list append osc.udp://192.168.75.151:9950/;
#X obj 73 421 list append osc.udp://192.168.75.151:9950/;
#X obj 56 536 list append osc.udp://192.168.75.151:9950/;
#X connect 0 0 15 0;
#X connect 2 0 3 0;
#X connect 3 0 5 0;
#X connect 4 0 6 0;
#X connect 5 0 28 0;
#X connect 5 1 4 1;
#X connect 6 0 1 0;
#X connect 7 0 8 0;
#X connect 8 0 10 0;
#X connect 9 0 6 0;
#X connect 10 0 29 0;
#X connect 10 1 9 1;
#X connect 11 0 12 0;
#X connect 12 0 14 0;
#X connect 13 0 6 0;
#X connect 14 0 27 0;
#X connect 14 1 13 1;
#X connect 15 1 7 0;
#X connect 15 2 2 0;
#X connect 15 3 11 0;
#X connect 15 4 22 0;
#X connect 22 0 23 0;
#X connect 23 0 25 0;
#X connect 24 0 6 0;
#X connect 25 0 26 0;
#X connect 25 1 24 1;
#X connect 26 0 24 0;
#X connect 27 0 13 0;
#X connect 28 0 4 0;
#X connect 29 0 9 0;
